SplineFontDB: 3.0
FontName: Asul-Regular
FullName: Asul
FamilyName: Asul
Weight: Book
Copyright: Copyright (c) 2011, Mariela Monsalve (marmonsalve@gmail.com), with Reserved Font Name "Asul"
Version: 1.001
ItalicAngle: 0
UnderlinePosition: -50
UnderlineWidth: 50
Ascent: 800
Descent: 200
sfntRevision: 0x00010042
LayerCount: 2
Layer: 0 1 "Back"  1
Layer: 1 1 "Fore"  0
XUID: [1021 875 1750315281 11118573]
FSType: 0
OS2Version: 2
OS2_WeightWidthSlopeOnly: 0
OS2_UseTypoMetrics: 1
CreationTime: 1324165722
ModificationTime: 1324194835
PfmFamily: 17
TTFWeight: 400
TTFWidth: 5
LineGap: 0
VLineGap: 0
Panose: 2 0 0 0 0 0 0 0 0 0
OS2TypoAscent: 149
OS2TypoAOffset: 1
OS2TypoDescent: -64
OS2TypoDOffset: 1
OS2TypoLinegap: 0
OS2WinAscent: 0
OS2WinAOffset: 1
OS2WinDescent: 0
OS2WinDOffset: 1
HheadAscent: 0
HheadAOffset: 1
HheadDescent: 0
HheadDOffset: 1
OS2SubXSize: 700
OS2SubYSize: 650
OS2SubXOff: 0
OS2SubYOff: 140
OS2SupXSize: 700
OS2SupYSize: 650
OS2SupXOff: 0
OS2SupYOff: 477
OS2StrikeYSize: 50
OS2StrikeYPos: 250
OS2Vendor: 'pyrs'
OS2CodePages: 00000001.00000000
OS2UnicodeRanges: 00000023.00000000.00000000.00000000
Lookup: 258 0 0 "'kern' Horizontal Kerning in Latin lookup 0"  {"'kern' Horizontal Kerning in Latin lookup 0 subtable"  } ['kern' ('DFLT' <'dflt' > 'latn' <'dflt' > ) ]
DEI: 91125
TtTable: prep
PUSHW_1
 511
SCANCTRL
PUSHB_1
 4
SCANTYPE
EndTTInstrs
ShortTable: maxp 16
  1
  0
  244
  76
  5
  0
  0
  2
  0
  1
  1
  0
  64
  0
  0
  0
EndShort
LangName: 1033 "" "" "" "MarielaMonsalve: Asul: 2011" "" "Version 1.001" "" "Asul is a trademark of Mariela Monsalve" "Mariela Monsalve" "Mariela Monsalve" "" "" "www.mukamonsalve.com.ar" "This Font Software is licensed under the SIL Open Font License, Version 1.1. This license is available with a FAQ at: http://scripts.sil.org/OFL" "http://scripts.sil.org/OFL" 
GaspTable: 1 65535 15 1
Encoding: UnicodeBmp
UnicodeInterp: none
NameList: Adobe Glyph List
DisplaySize: -24
AntiAlias: 1
FitToEm: 1
BeginChars: 65549 244

StartChar: exclam
Encoding: 33 33 4
Width: 268
GlyphClass: 2
Flags: W
LayerCount: 2
Fore
SplineSet
98 167 m 1,0,1
 99 175 99 175 99 220 c 128,-1,2
 99 265 99 265 97 355 c 128,-1,3
 95 445 95 445 94 475 c 128,-1,4
 93 505 93 505 92 524.5 c 128,-1,5
 91 544 91 544 90 558.5 c 128,-1,6
 89 573 89 573 88 588 c 0,7,8
 81 658 81 658 50 680 c 1,9,-1
 50 690 l 1,10,-1
 187 714 l 1,11,-1
 193 704 l 1,12,13
 187 659 187 659 169 180 c 1,14,-1
 98 167 l 1,0,1
204 20 m 0,15,16
 204 16 204 16 204 12 c 1,17,-1
 196 4 l 1,18,19
 145 -9 145 -9 112 -11 c 1,20,-1
 102 -7 l 1,21,22
 89 21 89 21 89 59 c 0,23,24
 89 64 89 64 89 69 c 1,25,-1
 97 77 l 1,26,27
 144 92 144 92 179 92 c 0,28,29
 183 92 183 92 192 87 c 1,30,31
 204 57 204 57 204 20 c 0,15,16
EndSplineSet
EndChar

StartChar: quotedbl
Encoding: 34 34 5
Width: 471
GlyphClass: 2
Flags: W
LayerCount: 2
Fore
SplineSet
184 694 m 2,0,1
 192 688 192 688 192 656 c 128,-1,2
 192 624 192 624 181 537 c 128,-1,3
 170 450 170 450 159 427 c 1,4,-1
 131 427 l 1,5,6
 120 450 120 450 110 533.5 c 128,-1,7
 100 617 100 617 100 650 c 128,-1,8
 100 683 100 683 107 693 c 1,9,-1
 116 699 l 1,10,11
 132 703 132 703 143 703 c 0,12,13
 157 703 157 703 177 699 c 1,14,-1
 184 694 l 2,0,1
364 694 m 2,15,16
 372 688 372 688 372 656 c 128,-1,17
 372 624 372 624 361 537 c 128,-1,18
 350 450 350 450 339 427 c 1,19,-1
 311 427 l 1,20,21
 300 450 300 450 290 533.5 c 128,-1,22
 280 617 280 617 280 650 c 128,-1,23
 280 683 280 683 287 693 c 1,24,-1
 296 699 l 1,25,26
 312 703 312 703 323 703 c 0,27,28
 337 703 337 703 357 699 c 1,29,-1
 364 694 l 2,15,16
EndSplineSet
EndChar

StartChar: numbersign
Encoding: 35 35 6
Width: 573
GlyphClass: 2
Flags: W
LayerCount: 2
Fore
SplineSet
516 216 m 1,0,-1
 396 216 l 1,1,2
 386 137 386 137 370 0 c 1,3,-1
 293 -6 l 1,4,-1
 292 0 l 1,5,6
 309 57 309 57 337 216 c 1,7,-1
 191 216 l 1,8,9
 181 137 181 137 165 0 c 1,10,-1
 88 -6 l 1,11,-1
 87 0 l 1,12,13
 104 57 104 57 132 216 c 1,14,-1
 2 216 l 1,15,-1
 19 288 l 1,16,-1
 145 288 l 1,17,18
 154 333 154 333 165 410 c 1,19,-1
 29 410 l 1,20,-1
 46 482 l 1,21,-1
 176 482 l 1,22,-1
 202 688 l 1,23,-1
 277 706 l 1,24,-1
 278 700 l 1,25,26
 259 626 259 626 235 482 c 1,27,-1
 381 482 l 1,28,-1
 407 688 l 1,29,-1
 482 706 l 1,30,-1
 483 700 l 1,31,32
 464 626 464 626 440 482 c 1,33,-1
 556 482 l 1,34,-1
 545 410 l 1,35,-1
 428 410 l 1,36,-1
 408 288 l 1,37,-1
 531 288 l 1,38,-1
 516 216 l 1,0,-1
223 410 m 1,39,-1
 203 288 l 1,40,-1
 350 288 l 1,41,42
 359 333 359 333 370 410 c 1,43,-1
 223 410 l 1,39,-1
EndSplineSet
EndChar

StartChar: dollar
Encoding: 36 36 7
Width: 560
GlyphClass: 2
Flags: W
LayerCount: 2
Fore
SplineSet
500 205 m 0,0,1
 500 9 500 9 303 -9 c 1,2,3
 303 -71 303 -71 307 -115 c 1,4,-1
 248 -131 l 1,5,-1
 244 -124 l 1,6,7
 253 -63 253 -63 254 -11 c 1,8,9
 136 -8 136 -8 54 48 c 1,10,11
 57 108 57 108 90 153 c 1,12,13
 161 75 161 75 255 57 c 1,14,-1
 255 335 l 1,15,16
 217 352 217 352 199.5 360 c 128,-1,17
 182 368 182 368 151.5 387 c 128,-1,18
 121 406 121 406 107 423 c 0,19,20
 69 469 69 469 69 526 c 0,21,22
 69 613 69 613 120 658 c 128,-1,23
 171 703 171 703 255 710 c 1,24,25
 253 762 253 762 251 792 c 1,26,-1
 306 818 l 1,27,-1
 310 811 l 1,28,29
 303 758 303 758 303 712 c 1,30,31
 392 707 392 707 482 666 c 1,32,33
 471 616 471 616 446 569 c 1,34,35
 378 627 378 627 303 646 c 1,36,-1
 303 410 l 1,37,38
 343 392 343 392 361 383.5 c 128,-1,39
 379 375 379 375 411.5 354.5 c 128,-1,40
 444 334 444 334 459 316 c 128,-1,41
 474 298 474 298 487 268.5 c 128,-1,42
 500 239 500 239 500 205 c 0,0,1
389 77 m 1,43,44
 415 110 415 110 415 166 c 128,-1,45
 415 222 415 222 386 254 c 128,-1,46
 357 286 357 286 303 313 c 1,47,-1
 303 53 l 1,48,49
 352 53 352 53 389 77 c 1,43,44
169 636 m 1,50,51
 147 608 147 608 147 561.5 c 128,-1,52
 147 515 147 515 175 486 c 128,-1,53
 203 457 203 457 255 431 c 1,54,-1
 255 653 l 1,55,-1
 252 653 l 2,56,57
 199 653 199 653 169 636 c 1,50,51
EndSplineSet
EndChar

StartChar: percent
Encoding: 37 37 8
Width: 778
GlyphClass: 2
Flags: W
LayerCount: 2
Fore
SplineSet
552 716 m 1,0,-1
 636 720 l 1,1,-1
 635 714 l 1,2,3
 593 654 593 654 490 481.5 c 128,-1,4
 387 309 387 309 341 226 c 1,5,-1
 214 -11 l 1,6,-1
 129 -19 l 1,7,-1
 130 -13 l 1,8,9
 171 46 171 46 272.5 218 c 128,-1,10
 374 390 374 390 424 479 c 1,11,-1
 552 716 l 1,0,-1
65.5 367.5 m 128,-1,13
 26 423 26 423 26 514 c 128,-1,14
 26 605 26 605 69.5 658.5 c 128,-1,15
 113 712 113 712 182 712 c 128,-1,16
 251 712 251 712 286 658 c 128,-1,17
 321 604 321 604 321 517 c 128,-1,18
 321 430 321 430 281 371 c 128,-1,19
 241 312 241 312 173 312 c 128,-1,12
 105 312 105 312 65.5 367.5 c 128,-1,13
243 503 m 0,20,21
 243 654 243 654 168 654 c 0,22,23
 139 654 139 654 126 639 c 1,24,25
 104 602 104 602 104 531 c 0,26,27
 104 367 104 367 186 367 c 0,28,29
 210 367 210 367 221 384 c 1,30,31
 243 412 243 412 243 503 c 0,20,21
483.5 43.5 m 128,-1,33
 444 99 444 99 444 190 c 128,-1,34
 444 281 444 281 487.5 334.5 c 128,-1,35
 531 388 531 388 600 388 c 128,-1,36
 669 388 669 388 704 334 c 128,-1,37
 739 280 739 280 739 193 c 128,-1,38
 739 106 739 106 699 47 c 128,-1,39
 659 -12 659 -12 591 -12 c 128,-1,32
 523 -12 523 -12 483.5 43.5 c 128,-1,33
661 179 m 0,40,41
 661 330 661 330 586 330 c 0,42,43
 557 330 557 330 544 315 c 1,44,45
 522 278 522 278 522 207 c 0,46,47
 522 46 522 46 604 46 c 0,48,49
 628 46 628 46 639 63 c 1,50,51
 661 91 661 91 661 179 c 0,40,41
EndSplineSet
EndChar

StartChar: ampersand
Encoding: 38 38 9
Width: 773
GlyphClass: 2
Flags: W
LayerCount: 2
Fore
SplineSet
666 402 m 1,0,-1
 599 402 l 1,1,2
 603 358 603 358 603 322 c 0,3,4
 603 224 603 224 571 154 c 1,5,6
 663 91 663 91 777 32 c 1,7,-1
 711 -57 l 1,8,9
 635 5 635 5 602 28 c 1,10,-1
 529 85 l 1,11,12
 447 -12 447 -12 298 -12 c 0,13,14
 169 -12 169 -12 104.5 52 c 128,-1,15
 40 116 40 116 40 218 c 0,16,17
 40 267 40 267 55 306 c 128,-1,18
 70 345 70 345 93 366 c 0,19,20
 134 403 134 403 173 414 c 1,21,22
 108 499 108 499 108 575 c 0,23,24
 108 711 108 711 287 711 c 0,25,26
 385 711 385 711 472 682 c 1,27,28
 465 619 465 619 435 580 c 1,29,30
 346 655 346 655 280 655 c 0,31,32
 236 655 236 655 211.5 630.5 c 128,-1,33
 187 606 187 606 187 559 c 0,34,35
 187 467 187 467 375 306 c 0,36,37
 446 244 446 244 522 189 c 1,38,39
 532 236 532 236 532 290.5 c 128,-1,40
 532 345 532 345 513 405 c 1,41,-1
 407 403 l 1,42,-1
 447 461 l 1,43,44
 523 454 523 454 558 454 c 1,45,-1
 693 460 l 1,46,-1
 666 402 l 1,0,-1
490 117 m 1,47,48
 287 283 287 283 202 380 c 1,49,50
 136 335 136 335 136 238 c 0,51,52
 136 161 136 161 183 107 c 128,-1,53
 230 53 230 53 325 53 c 0,54,55
 440 53 440 53 490 117 c 1,47,48
EndSplineSet
EndChar

StartChar: quotesingle
Encoding: 39 39 10
Width: 281
GlyphClass: 2
Flags: W
LayerCount: 2
Fore
SplineSet
179 694 m 2,0,1
 187 688 187 688 187 656 c 128,-1,2
 187 624 187 624 176 537 c 128,-1,3
 165 450 165 450 154 427 c 1,4,-1
 126 427 l 1,5,6
 115 450 115 450 105 533.5 c 128,-1,7
 95 617 95 617 95 650 c 128,-1,8
 95 683 95 683 102 693 c 1,9,-1
 111 699 l 1,10,11
 127 703 127 703 138 703 c 0,12,13
 152 703 152 703 172 699 c 1,14,-1
 179 694 l 2,0,1
EndSplineSet
EndChar

StartChar: parenleft
Encoding: 40 40 11
Width: 400
GlyphClass: 2
Flags: W
LayerCount: 2
Fore
SplineSet
368 -135 m 1,0,1
 360 -166 360 -166 351 -173 c 1,2,3
 238 -133 238 -133 159 -22 c 0,4,5
 119 34 119 34 96 114.5 c 128,-1,6
 73 195 73 195 73 291 c 0,7,8
 73 554 73 554 232 688 c 0,9,10
 288 734 288 734 351 757 c 1,11,-1
 355 754 l 1,12,13
 367 724 367 724 368 719 c 1,14,15
 250 667 250 667 205 547 c 0,16,17
 165 440 165 440 165 271.5 c 128,-1,18
 165 103 165 103 212.5 8 c 128,-1,19
 260 -87 260 -87 368 -135 c 1,0,1
EndSplineSet
EndChar

StartChar: parenright
Encoding: 41 41 12
Width: 400
GlyphClass: 2
Flags: W
LayerCount: 2
Fore
SplineSet
327 291 m 0,0,1
 327 195 327 195 304 114.5 c 128,-1,2
 281 34 281 34 241 -22 c 0,3,4
 162 -133 162 -133 49 -173 c 1,5,6
 40 -166 40 -166 32 -135 c 1,7,8
 140 -87 140 -87 187.5 8 c 128,-1,9
 235 103 235 103 235 283 c 0,10,11
 235 540 235 540 132 650 c 0,12,13
 91 693 91 693 32 719 c 1,14,15
 33 724 33 724 45 754 c 1,16,-1
 49 757 l 1,17,18
 112 734 112 734 168 688 c 0,19,20
 327 554 327 554 327 291 c 0,0,1
EndSplineSet
EndChar

StartChar: asterisk
Encoding: 42 42 13
Width: 419
GlyphClass: 2
Flags: W
LayerCount: 2
Fore
SplineSet
45 481 m 1,0,-1
 38 484 l 1,1,-1
 37 573 l 1,2,-1
 44 574 l 1,3,4
 87 561 87 561 170 555 c 1,5,6
 127 614 127 614 89 646 c 1,7,-1
 86 653 l 1,8,-1
 162 700 l 1,9,-1
 168 695 l 1,10,11
 182 625 182 625 209 569 c 1,12,13
 253 645 253 645 264 695 c 1,14,-1
 269 700 l 1,15,-1
 345 653 l 1,16,-1
 344 646 l 1,17,18
 305 621 305 621 246 553 c 1,19,20
 337 562 337 562 375 574 c 1,21,-1
 382 573 l 1,22,-1
 381 482 l 1,23,-1
 374 480 l 1,24,25
 322 503 322 503 244 512 c 1,26,27
 295 448 295 448 342 416 c 1,28,-1
 345 409 l 1,29,-1
 269 361 l 1,30,-1
 264 366 l 1,31,32
 256 407 256 407 209 490 c 1,33,34
 180 427 180 427 168 367 c 1,35,-1
 162 361 l 1,36,-1
 87 408 l 1,37,-1
 89 415 l 1,38,39
 136 456 136 456 174 511 c 1,40,41
 88 501 88 501 45 481 c 1,0,-1
EndSplineSet
EndChar

StartChar: plus
Encoding: 43 43 14
Width: 600
GlyphClass: 2
Flags: W
LayerCount: 2
Fore
SplineSet
330 358 m 1,0,-1
 558 358 l 1,1,-1
 557 292 l 1,2,-1
 330 292 l 1,3,-1
 330 64 l 1,4,-1
 262 64 l 1,5,-1
 262 292 l 1,6,-1
 42 292 l 1,7,-1
 43 359 l 1,8,-1
 262 358 l 1,9,-1
 263 578 l 1,10,-1
 330 577 l 1,11,-1
 330 358 l 1,0,-1
EndSplineSet
EndChar

StartChar: comma
Encoding: 44 44 15
Width: 277
GlyphClass: 2
Flags: W
LayerCount: 2
Fore
SplineSet
174 112 m 1,0,1
 197 89 197 89 197 32.5 c 128,-1,2
 197 -24 197 -24 167.5 -73 c 128,-1,3
 138 -122 138 -122 84 -180 c 1,4,-1
 32 -159 l 1,5,6
 66 -107 66 -107 81 -71 c 128,-1,7
 96 -35 96 -35 96 6 c 128,-1,8
 96 47 96 47 73 86 c 1,9,10
 75 92 75 92 79 96 c 1,11,12
 120 113 120 113 163 113 c 0,13,14
 169 113 169 113 174 112 c 1,0,1
EndSplineSet
EndChar

StartChar: hyphen
Encoding: 45 45 16
Width: 354
GlyphClass: 2
Flags: W
LayerCount: 2
Fore
SplineSet
38 323 m 1,0,1
 78 314 78 314 128 314 c 2,2,-1
 214 315 l 2,3,4
 236 315 236 315 282.5 317 c 128,-1,5
 329 319 329 319 353 319 c 1,6,-1
 323 241 l 1,7,-1
 316 241 l 1,8,9
 248 250 248 250 135 250 c 1,10,-1
 1 244 l 1,11,-1
 31 323 l 1,12,-1
 38 323 l 1,0,1
EndSplineSet
EndChar

StartChar: period
Encoding: 46 46 17
Width: 311
GlyphClass: 2
Flags: W
LayerCount: 2
Fore
SplineSet
225 108 m 1,0,1
 241 92 241 92 241 41 c 0,2,3
 241 28 241 28 239 17 c 1,4,-1
 229 9 l 1,5,6
 180 -6 180 -6 119 -10 c 1,7,-1
 108 -5 l 1,8,9
 91 27 91 27 91 76 c 0,10,11
 91 81 91 81 91 86 c 1,12,-1
 101 95 l 1,13,14
 154 114 154 114 204 114 c 0,15,16
 209 114 209 114 214 114 c 1,17,-1
 225 108 l 1,0,1
EndSplineSet
EndChar

StartChar: slash
Encoding: 47 47 18
Width: 329
GlyphClass: 2
Flags: W
LayerCount: 2
Fore
SplineSet
273 716 m 1,0,-1
 361 734 l 1,1,-1
 361 728 l 1,2,3
 292 592 292 592 95 41 c 0,4,5
 88 21 88 21 74 -23 c 128,-1,6
 60 -67 60 -67 52 -91 c 1,7,-1
 -46 -118 l 1,8,-1
 -46 -112 l 1,9,10
 -16 -53 -16 -53 70.5 166 c 128,-1,11
 157 385 157 385 191 479 c 1,12,-1
 273 716 l 1,0,-1
EndSplineSet
EndChar

StartChar: zero
Encoding: 48 48 19
Width: 675
GlyphClass: 2
Flags: W
LayerCount: 2
Fore
SplineSet
141.5 89 m 128,-1,1
 70 190 70 190 70 355.5 c 128,-1,2
 70 521 70 521 149 617.5 c 128,-1,3
 228 714 228 714 353 714 c 128,-1,4
 478 714 478 714 541.5 616 c 128,-1,5
 605 518 605 518 605 359.5 c 128,-1,6
 605 201 605 201 533 94.5 c 128,-1,7
 461 -12 461 -12 347 -12 c 0,8,0
 213 -12 213 -12 141.5 89 c 128,-1,1
499 334 m 0,9,10
 499 643 499 643 328 643 c 0,11,12
 297 643 297 643 268.5 633.5 c 128,-1,13
 240 624 240 624 228 612 c 1,14,15
 206 581 206 581 191 514 c 128,-1,16
 176 447 176 447 176 383 c 128,-1,17
 176 319 176 319 184.5 264.5 c 128,-1,18
 193 210 193 210 213 162 c 128,-1,19
 233 114 233 114 270.5 86.5 c 128,-1,20
 308 59 308 59 360 59 c 0,21,22
 378 59 378 59 405.5 68 c 128,-1,23
 433 77 433 77 446 92 c 0,24,25
 471 120 471 120 485 191 c 128,-1,26
 499 262 499 262 499 334 c 0,9,10
EndSplineSet
EndChar

StartChar: one
Encoding: 49 49 20
Width: 374
GlyphClass: 2
Flags: W
LayerCount: 2
Fore
SplineSet
251 587 m 1,0,-1
 251 210 l 2,1,2
 251 65 251 65 266 7 c 1,3,-1
 266 0 l 1,4,-1
 140 0 l 1,5,-1
 140 7 l 1,6,7
 155 65 155 65 155 210 c 2,8,-1
 155 509 l 2,9,10
 155 582 155 582 152 607 c 1,11,12
 84 592 84 592 28 589 c 1,13,-1
 20 634 l 1,14,15
 116 651 116 651 183 700 c 1,16,-1
 255 700 l 1,17,-1
 251 587 l 1,0,-1
EndSplineSet
EndChar

StartChar: two
Encoding: 50 50 21
Width: 528
GlyphClass: 2
Flags: W
LayerCount: 2
Fore
SplineSet
345 547 m 0,0,1
 345 650 345 650 254 650 c 0,2,3
 186 650 186 650 84 562 c 1,4,5
 50 603 50 603 45 664 c 1,6,7
 159 712 159 712 255.5 712 c 128,-1,8
 352 712 352 712 401.5 670 c 128,-1,9
 451 628 451 628 451 554 c 0,10,11
 451 445 451 445 344 304 c 0,12,13
 290 233 290 233 251 188 c 128,-1,14
 212 143 212 143 144 71 c 1,15,16
 220 71 220 71 250 72 c 0,17,18
 427 78 427 78 478 122 c 1,19,-1
 487 115 l 1,20,-1
 446 0 l 1,21,-1
 58 0 l 1,22,-1
 39 49 l 1,23,24
 219 242 219 242 278 344 c 0,25,26
 345 459 345 459 345 547 c 0,0,1
EndSplineSet
EndChar

StartChar: three
Encoding: 51 51 22
Width: 504
GlyphClass: 2
Flags: W
LayerCount: 2
Fore
SplineSet
395.5 52.5 m 128,-1,1
 332 -11 332 -11 220.5 -11 c 128,-1,2
 109 -11 109 -11 19 40 c 1,3,4
 19 44 19 44 19 47 c 0,5,6
 19 95 19 95 45 124 c 1,7,8
 142 50 142 50 222 50 c 0,9,10
 283 50 283 50 312 69 c 1,11,12
 358 113 358 113 358 210 c 0,13,14
 358 284 358 284 325.5 315 c 128,-1,15
 293 346 293 346 224 346 c 128,-1,16
 155 346 155 346 128 342 c 1,17,-1
 124 342 l 1,18,-1
 107 404 l 1,19,-1
 192 404 l 2,20,21
 246 404 246 404 280 446 c 128,-1,22
 314 488 314 488 314 542 c 0,23,24
 314 655 314 655 228 655 c 0,25,26
 157 655 157 655 78 587 c 1,27,28
 52 623 52 623 46 682 c 1,29,30
 142 712 142 712 238 712 c 0,31,32
 410 712 410 712 410 566 c 0,33,34
 410 496 410 496 374.5 449.5 c 128,-1,35
 339 403 339 403 299 391 c 1,36,37
 459 371 459 371 459 215 c 0,38,0
 459 116 459 116 395.5 52.5 c 128,-1,1
EndSplineSet
EndChar

StartChar: four
Encoding: 52 52 23
Width: 566
GlyphClass: 2
Flags: W
LayerCount: 2
Fore
SplineSet
410 191 m 1,0,1
 410 64 410 64 421 7 c 1,2,-1
 421 0 l 1,3,-1
 308 0 l 1,4,-1
 308 7 l 1,5,6
 317 63 317 63 319 181 c 1,7,-1
 319 191 l 1,8,9
 73 191 73 191 39 190 c 1,10,-1
 16 238 l 1,11,12
 120 429 120 429 293 700 c 1,13,-1
 412 712 l 1,14,15
 408 624 408 624 408 264 c 1,16,17
 429 264 429 264 466 267 c 128,-1,18
 503 270 503 270 513 270 c 1,19,-1
 497 191 l 1,20,-1
 410 191 l 1,0,1
321 262 m 1,21,-1
 321 630 l 1,22,23
 146 345 146 345 100 259 c 1,24,25
 108 259 108 259 321 262 c 1,21,-1
EndSplineSet
EndChar

StartChar: five
Encoding: 53 53 24
Width: 538
GlyphClass: 2
Flags: W
LayerCount: 2
Fore
SplineSet
446 569 m 1,0,1
 385 628 385 628 251 632 c 1,2,-1
 201 632 l 1,3,4
 187 585 187 585 158 425 c 1,5,6
 289 417 289 417 329 408.5 c 128,-1,7
 369 400 369 400 409 380 c 0,8,9
 490 340 490 340 490 224 c 0,10,11
 490 123 490 123 422 55.5 c 128,-1,12
 354 -12 354 -12 242 -12 c 128,-1,13
 130 -12 130 -12 14 51 c 1,14,15
 17 71 17 71 30.5 100 c 128,-1,16
 44 129 44 129 56 141 c 1,17,18
 167 54 167 54 267 54 c 0,19,20
 318 54 318 54 350 70 c 1,21,22
 368 93 368 93 378.5 133.5 c 128,-1,23
 389 174 389 174 389 210 c 0,24,25
 389 337 389 337 216 350 c 2,26,-1
 99 359 l 1,27,-1
 81 380 l 1,28,29
 94 491 94 491 131 698 c 1,30,-1
 434 703 l 1,31,-1
 457 569 l 1,32,-1
 446 569 l 1,0,1
EndSplineSet
EndChar

StartChar: six
Encoding: 54 54 25
Width: 594
GlyphClass: 2
Flags: W
LayerCount: 2
Fore
SplineSet
348 449 m 0,0,1
 418 449 418 449 474 406 c 1,2,3
 502 383 502 383 519.5 340 c 128,-1,4
 537 297 537 297 537 239 c 0,5,6
 537 129 537 129 477 59 c 128,-1,7
 417 -11 417 -11 307 -11 c 128,-1,8
 197 -11 197 -11 133.5 60 c 128,-1,9
 70 131 70 131 70 279 c 0,10,11
 70 563 70 563 324 677 c 0,12,13
 386 705 386 705 437 712 c 1,14,-1
 447 667 l 1,15,16
 327 630 327 630 266 558.5 c 128,-1,17
 205 487 205 487 184 380 c 1,18,19
 253 449 253 449 348 449 c 0,0,1
176 252 m 0,20,21
 176 146 176 146 205.5 96.5 c 128,-1,22
 235 47 235 47 311 47 c 0,23,24
 368 47 368 47 392 64 c 1,25,26
 431 116 431 116 431 206.5 c 128,-1,27
 431 297 431 297 400 336 c 128,-1,28
 369 375 369 375 317 375 c 0,29,30
 248 375 248 375 178 321 c 1,31,32
 176 279 176 279 176 252 c 0,20,21
EndSplineSet
EndChar

StartChar: seven
Encoding: 55 55 26
Width: 443
GlyphClass: 2
Flags: W
LayerCount: 2
Fore
SplineSet
221 700 m 2,0,-1
 449 701 l 1,1,-1
 450 697 l 1,2,3
 429 657 429 657 333.5 393.5 c 128,-1,4
 238 130 238 130 217 -3 c 1,5,-1
 75 -3 l 1,6,-1
 74 4 l 1,7,8
 225 277 225 277 355 626 c 1,9,10
 313 630 313 630 259 630 c 0,11,12
 116 630 116 630 57 571 c 1,13,-1
 46 571 l 1,14,-1
 21 703 l 1,15,16
 135 700 135 700 221 700 c 2,0,-1
EndSplineSet
EndChar

StartChar: eight
Encoding: 56 56 27
Width: 574
GlyphClass: 2
Flags: W
LayerCount: 2
Fore
SplineSet
397 542 m 0,0,1
 397 661 397 661 287 661 c 0,2,3
 248 661 248 661 218 647 c 1,4,5
 185 615 185 615 185 551 c 0,6,7
 185 509 185 509 214 476.5 c 128,-1,8
 243 444 243 444 328 398 c 1,9,10
 397 448 397 448 397 542 c 0,0,1
158 191 m 0,11,12
 158 56 158 56 293 56 c 0,13,14
 347 56 347 56 377 69 c 1,15,16
 416 99 416 99 416 163 c 0,17,18
 416 209 416 209 381 244 c 128,-1,19
 346 279 346 279 250 331 c 1,20,21
 158 291 158 291 158 191 c 0,11,12
522 181 m 0,22,23
 522 90 522 90 455.5 39 c 128,-1,24
 389 -12 389 -12 287.5 -12 c 128,-1,25
 186 -12 186 -12 119 37.5 c 128,-1,26
 52 87 52 87 52 179 c 0,27,28
 52 253 52 253 94 297.5 c 128,-1,29
 136 342 136 342 198 363 c 1,30,31
 143 400 143 400 117 438.5 c 128,-1,32
 91 477 91 477 91 534 c 0,33,34
 91 620 91 620 146 666 c 128,-1,35
 201 712 201 712 290.5 712 c 128,-1,36
 380 712 380 712 435.5 672.5 c 128,-1,37
 491 633 491 633 491 548 c 0,38,39
 491 482 491 482 459.5 441 c 128,-1,40
 428 400 428 400 376 367 c 1,41,42
 457 317 457 317 489.5 279.5 c 128,-1,43
 522 242 522 242 522 181 c 0,22,23
EndSplineSet
EndChar

StartChar: nine
Encoding: 57 57 28
Width: 595
GlyphClass: 2
Flags: W
LayerCount: 2
Fore
SplineSet
121 280 m 0,0,1
 92 304 92 304 75 348.5 c 128,-1,2
 58 393 58 393 58 453 c 0,3,4
 58 569 58 569 119 640 c 128,-1,5
 180 711 180 711 289 711 c 128,-1,6
 398 711 398 711 461.5 638.5 c 128,-1,7
 525 566 525 566 525 413 c 0,8,9
 525 184 525 184 378 71 c 0,10,11
 297 9 297 9 160 -11 c 1,12,-1
 148 33 l 1,13,14
 198 42 198 42 248 69 c 128,-1,15
 298 96 298 96 335.5 139.5 c 128,-1,16
 373 183 373 183 405 288 c 1,17,18
 335 236 335 236 255.5 236 c 128,-1,19
 176 236 176 236 121 280 c 0,0,1
419 443 m 0,20,21
 419 551 419 551 389.5 601 c 128,-1,22
 360 651 360 651 284 651 c 0,23,24
 226 651 226 651 203 633 c 1,25,26
 164 579 164 579 164 485 c 128,-1,27
 164 391 164 391 196.5 351.5 c 128,-1,28
 229 312 229 312 290 312 c 128,-1,29
 351 312 351 312 414 348 c 1,30,31
 419 396 419 396 419 443 c 0,20,21
EndSplineSet
EndChar

StartChar: colon
Encoding: 58 58 29
Width: 333
GlyphClass: 2
Flags: W
LayerCount: 2
Fore
SplineSet
214 456 m 1,1,2
 229 442 229 442 229 394 c 0,3,4
 229 382 229 382 228 373 c 1,5,-1
 219 364 l 1,6,7
 169 351 169 351 117 347 c 1,8,-1
 106 352 l 1,9,10
 91 382 91 382 91 425 c 0,11,12
 91 431 91 431 91 436 c 1,13,-1
 100 445 l 1,14,15
 154 462 154 462 199 462 c 0,16,0
 204 462 204 462 214 456 c 1,1,2
232 99 m 1,17,18
 247 85 247 85 247 37 c 0,19,20
 247 25 247 25 246 16 c 1,21,-1
 237 7 l 1,22,23
 187 -6 187 -6 135 -10 c 1,24,-1
 124 -5 l 1,25,26
 109 25 109 25 109 68 c 0,27,28
 109 74 109 74 109 79 c 1,29,-1
 118 88 l 1,30,31
 172 105 172 105 217 105 c 0,32,33
 222 105 222 105 232 99 c 1,17,18
EndSplineSet
EndChar

StartChar: semicolon
Encoding: 59 59 30
Width: 315
GlyphClass: 2
Flags: W
LayerCount: 2
Fore
SplineSet
198 -48 m 128,-1,1
 179 -89 179 -89 160 -113 c 128,-1,2
 141 -137 141 -137 104 -180 c 1,3,-1
 52 -159 l 1,4,5
 54 -155 54 -155 64 -139.5 c 128,-1,6
 74 -124 74 -124 76 -120.5 c 128,-1,7
 78 -117 78 -117 85.5 -104.5 c 128,-1,8
 93 -92 93 -92 94.5 -87.5 c 128,-1,9
 96 -83 96 -83 100.5 -71.5 c 128,-1,10
 105 -60 105 -60 106 -52.5 c 128,-1,11
 107 -45 107 -45 110 -33 c 0,12,13
 113 -16 113 -16 113 13 c 128,-1,14
 113 42 113 42 93 86 c 1,15,-1
 99 96 l 1,16,17
 140 113 140 113 183 113 c 0,18,19
 189 113 189 113 194 112 c 1,20,21
 217 89 217 89 217 41 c 128,-1,0
 217 -7 217 -7 198 -48 c 128,-1,1
182 451 m 1,22,23
 197 437 197 437 197 389 c 0,24,25
 197 377 197 377 196 368 c 1,26,-1
 187 359 l 1,27,28
 137 346 137 346 85 342 c 1,29,-1
 74 347 l 1,30,31
 59 377 59 377 59 420 c 0,32,33
 59 426 59 426 59 431 c 1,34,-1
 68 440 l 1,35,36
 122 457 122 457 167 457 c 0,37,38
 172 457 172 457 182 451 c 1,22,23
EndSplineSet
EndChar

StartChar: less
Encoding: 60 60 31
Width: 536
GlyphClass: 2
Flags: W
LayerCount: 2
Fore
SplineSet
526 115 m 1,0,-1
 526 45 l 1,1,-1
 10 287 l 1,2,-1
 10 357 l 1,3,-1
 526 600 l 1,4,-1
 526 529 l 1,5,-1
 92 322 l 1,6,-1
 526 115 l 1,0,-1
EndSplineSet
EndChar

StartChar: equal
Encoding: 61 61 32
Width: 536
GlyphClass: 2
Flags: W
LayerCount: 2
Fore
SplineSet
526 446 m 1,0,-1
 525 380 l 1,1,-1
 10 380 l 1,2,-1
 11 447 l 1,3,-1
 526 446 l 1,0,-1
526 279 m 1,4,-1
 525 213 l 1,5,-1
 10 213 l 1,6,-1
 11 280 l 1,7,-1
 526 279 l 1,4,-1
EndSplineSet
EndChar

StartChar: greater
Encoding: 62 62 33
Width: 534
GlyphClass: 2
Flags: W
LayerCount: 2
Fore
SplineSet
9 45 m 1,0,-1
 9 115 l 1,1,-1
 443 322 l 1,2,-1
 9 529 l 1,3,-1
 9 600 l 1,4,-1
 525 357 l 1,5,-1
 525 287 l 1,6,-1
 9 45 l 1,0,-1
EndSplineSet
EndChar

StartChar: question
Encoding: 63 63 34
Width: 430
GlyphClass: 2
Flags: W
LayerCount: 2
Fore
SplineSet
297 534 m 0,0,1
 297 634 297 634 203 634 c 0,2,3
 138 634 138 634 69 577 c 1,4,5
 45 620 45 620 45 673 c 0,6,7
 45 679 45 679 45 685 c 1,8,9
 118 712 118 712 206 712 c 128,-1,10
 294 712 294 712 343.5 671 c 128,-1,11
 393 630 393 630 393 548 c 0,12,13
 393 499 393 499 373.5 453.5 c 128,-1,14
 354 408 354 408 329.5 379 c 128,-1,15
 305 350 305 350 273 325 c 0,16,17
 229 291 229 291 199 277 c 1,18,19
 199 272 199 272 199 254 c 128,-1,20
 199 236 199 236 210 200 c 1,21,-1
 210 193 l 1,22,23
 190 189 190 189 167 189 c 128,-1,24
 144 189 144 189 120 193 c 1,25,-1
 120 200 l 1,26,27
 131 247 131 247 131 266 c 128,-1,28
 131 285 131 285 130 291 c 1,29,-1
 142 300 l 1,30,31
 206 345 206 345 251.5 407.5 c 128,-1,32
 297 470 297 470 297 534 c 0,0,1
212 85 m 1,33,34
 225 72 225 72 225 28 c 0,35,36
 225 18 225 18 224 10 c 1,37,-1
 216 2 l 1,38,39
 182 -8 182 -8 140 -11 c 1,40,-1
 130 -7 l 1,41,42
 118 18 118 18 118 37 c 128,-1,43
 118 56 118 56 120 68 c 1,44,-1
 128 76 l 1,45,46
 161 87 161 87 203 90 c 1,47,-1
 212 85 l 1,33,34
EndSplineSet
EndChar

StartChar: at
Encoding: 64 64 35
Width: 806
GlyphClass: 2
Flags: W
LayerCount: 2
Fore
SplineSet
389 -43 m 0,0,1
 242 -43 242 -43 138.5 54 c 128,-1,2
 35 151 35 151 35 318 c 128,-1,3
 35 485 35 485 140 599 c 128,-1,4
 245 713 245 713 426 713 c 0,5,6
 588 713 588 713 678.5 622 c 128,-1,7
 769 531 769 531 769 410 c 128,-1,8
 769 289 769 289 699 210.5 c 128,-1,9
 629 132 629 132 537 132 c 128,-1,10
 445 132 445 132 445 214 c 0,11,12
 445 238 445 238 449 261 c 1,13,-1
 446 260 l 1,14,15
 341 132 341 132 270 132 c 0,16,17
 205 132 205 132 205 241 c 0,18,19
 205 316 205 316 234 386 c 128,-1,20
 263 456 263 456 327 505.5 c 128,-1,21
 391 555 391 555 478 555 c 0,22,23
 544 555 544 555 584 541 c 1,24,-1
 516 295 l 2,25,26
 506 259 506 259 506 229 c 0,27,28
 506 185 506 185 546 185 c 0,29,30
 611 185 611 185 658 249.5 c 128,-1,31
 705 314 705 314 705 392 c 128,-1,32
 705 470 705 470 673 522.5 c 128,-1,33
 641 575 641 575 592 602 c 0,34,35
 493 657 493 657 394 657 c 0,36,37
 332 657 332 657 275 637 c 1,38,39
 119 542 119 542 119 336 c 0,40,41
 119 177 119 177 201.5 94.5 c 128,-1,42
 284 12 284 12 405 12 c 0,43,44
 496 12 496 12 596 64 c 1,45,-1
 617 31 l 1,46,47
 514 -43 514 -43 389 -43 c 0,0,1
498 495 m 1,48,49
 476 508 476 508 440 508 c 128,-1,50
 404 508 404 508 373 495 c 1,51,52
 323 432 323 432 301 342 c 0,53,54
 288 290 288 290 288 253 c 0,55,56
 288 201 288 201 317 201 c 0,57,58
 341 201 341 201 397 255 c 128,-1,59
 453 309 453 309 463 355 c 1,60,-1
 498 495 l 1,48,49
EndSplineSet
EndChar

StartChar: A
Encoding: 65 65 36
Width: 573
GlyphClass: 2
Flags: W
LayerCount: 2
Fore
SplineSet
261 245 m 128,-1,1
 188 245 188 245 150 244 c 1,2,3
 122 132 122 132 115.5 95.5 c 128,-1,4
 109 59 109 59 109 17 c 2,5,-1
 109 0 l 1,6,-1
 -27 0 l 1,7,-1
 -27 10 l 1,8,9
 18 45 18 45 93.5 287.5 c 128,-1,10
 169 530 169 530 191.5 605 c 128,-1,11
 214 680 214 680 216 701 c 1,12,-1
 333 713 l 1,13,14
 333 678 333 678 396 494.5 c 128,-1,15
 459 311 459 311 497.5 211 c 128,-1,16
 536 111 536 111 557 72 c 128,-1,17
 578 33 578 33 604 10 c 1,18,-1
 604 0 l 1,19,-1
 436 0 l 1,20,-1
 436 17 l 2,21,22
 436 53 436 53 426.5 84 c 128,-1,23
 417 115 417 115 414 124 c 2,24,-1
 374 244 l 1,25,0
 334 245 334 245 261 245 c 128,-1,1
258 626 m 1,26,27
 238 573 238 573 162 301 c 1,28,-1
 357 301 l 1,29,30
 339 356 339 356 304 474 c 128,-1,31
 269 592 269 592 258 626 c 1,26,27
EndSplineSet
EndChar

StartChar: B
Encoding: 66 66 37
Width: 660
GlyphClass: 2
Flags: W
LayerCount: 2
Fore
SplineSet
306 52 m 0,0,1
 384 52 384 52 432 95.5 c 128,-1,2
 480 139 480 139 480 211 c 128,-1,3
 480 283 480 283 433.5 320 c 128,-1,4
 387 357 387 357 279 359 c 2,5,-1
 230 360 l 1,6,7
 230 110 230 110 234 61 c 1,8,9
 264 52 264 52 306 52 c 0,0,1
230 411 m 1,10,-1
 309 411 l 2,11,12
 445 411 445 411 445 532 c 0,13,14
 445 595 445 595 411.5 623.5 c 128,-1,15
 378 652 378 652 320.5 652 c 128,-1,16
 263 652 263 652 232 649 c 1,17,18
 230 634 230 634 230 411 c 1,10,-1
170 698 m 1,19,-1
 332 700 l 1,20,21
 546 700 546 700 546 560 c 0,22,23
 546 504 546 504 518 464.5 c 128,-1,24
 490 425 490 425 449 403 c 1,25,26
 492 395 492 395 536 360 c 1,27,28
 562 341 562 341 577.5 304 c 128,-1,29
 593 267 593 267 593 218 c 0,30,31
 593 143 593 143 557 93 c 128,-1,32
 521 43 521 43 463.5 20.5 c 128,-1,33
 406 -2 406 -2 320 -2 c 1,34,-1
 201 3 l 1,35,-1
 108 0 l 1,36,-1
 108 7 l 1,37,38
 127 58 127 58 127 150 c 2,39,-1
 127 540 l 2,40,41
 127 640 127 640 111 693 c 1,42,-1
 111 700 l 1,43,-1
 170 698 l 1,19,-1
EndSplineSet
EndChar

StartChar: C
Encoding: 67 67 38
Width: 658
GlyphClass: 2
Flags: W
LayerCount: 2
Fore
SplineSet
162 375 m 0,0,1
 162 231 162 231 231.5 151 c 128,-1,2
 301 71 301 71 404 71 c 0,3,4
 479 71 479 71 603 139 c 1,5,-1
 630 98 l 1,6,7
 584 64 584 64 558.5 49 c 128,-1,8
 533 34 533 34 501 18 c 0,9,10
 436 -13 436 -13 362 -13 c 0,11,12
 232 -13 232 -13 140.5 84 c 128,-1,13
 49 181 49 181 49 344 c 128,-1,14
 49 507 49 507 155 609.5 c 128,-1,15
 261 712 261 712 418 712 c 0,16,17
 523 712 523 712 615 664 c 1,18,19
 603 601 603 601 573 558 c 1,20,21
 470 641 470 641 350 641 c 0,22,23
 314 641 314 641 280 634 c 1,24,25
 229 596 229 596 195.5 531 c 128,-1,26
 162 466 162 466 162 375 c 0,0,1
EndSplineSet
EndChar

StartChar: D
Encoding: 68 68 39
Width: 754
GlyphClass: 2
Flags: W
LayerCount: 2
Fore
SplineSet
166 698 m 1,0,1
 351 701 351 701 354 701 c 0,2,3
 531 701 531 701 618 620.5 c 128,-1,4
 705 540 705 540 705 373 c 0,5,6
 705 268 705 268 672 186 c 0,7,8
 597 0 597 0 357 0 c 1,9,-1
 167 1 l 1,10,-1
 108 1 l 1,11,-1
 108 8 l 1,12,13
 124 70 124 70 124 211 c 2,14,-1
 124 490 l 2,15,16
 124 631 124 631 108 693 c 1,17,-1
 108 700 l 1,18,-1
 166 698 l 1,0,1
353 68 m 0,19,20
 474 68 474 68 526 99 c 1,21,22
 592 174 592 174 592 343.5 c 128,-1,23
 592 513 592 513 531.5 577 c 128,-1,24
 471 641 471 641 328 641 c 0,25,26
 325 641 325 641 229 640 c 1,27,28
 227 602 227 602 227 394 c 2,29,-1
 227 334 l 2,30,31
 227 104 227 104 231 74 c 1,32,33
 291 68 291 68 353 68 c 0,19,20
EndSplineSet
EndChar

StartChar: E
Encoding: 69 69 40
Width: 573
GlyphClass: 2
Flags: W
LayerCount: 2
Fore
SplineSet
480 628 m 1,0,1
 421 643 421 643 337.5 643 c 128,-1,2
 254 643 254 643 231 641 c 1,3,4
 229 603 229 603 229 395 c 1,5,-1
 467 400 l 1,6,-1
 438 331 l 1,7,-1
 431 331 l 1,8,9
 363 339 363 339 323 339 c 128,-1,10
 283 339 283 339 229 336 c 1,11,12
 229 93 229 93 233 63 c 1,13,14
 256 60 256 60 309 60 c 0,15,16
 466 60 466 60 538 92 c 1,17,-1
 545 92 l 1,18,-1
 527 0 l 1,19,-1
 108 0 l 1,20,-1
 108 7 l 1,21,22
 124 69 124 69 124 210 c 2,23,-1
 124 490 l 2,24,25
 124 631 124 631 108 693 c 1,26,-1
 108 700 l 1,27,-1
 512 703 l 1,28,-1
 487 628 l 1,29,-1
 480 628 l 1,0,1
EndSplineSet
EndChar

StartChar: F
Encoding: 70 70 41
Width: 530
GlyphClass: 2
Flags: W
LayerCount: 2
Fore
SplineSet
422 320 m 1,0,1
 368 328 368 328 315.5 328 c 128,-1,2
 263 328 263 328 227 326 c 1,3,-1
 227 211 l 2,4,5
 227 69 227 69 243 7 c 1,6,-1
 243 0 l 1,7,-1
 108 0 l 1,8,-1
 108 7 l 1,9,10
 124 69 124 69 124 210 c 2,11,-1
 124 489 l 2,12,13
 124 630 124 630 108 692 c 1,14,-1
 108 699 l 1,15,-1
 513 702 l 1,16,-1
 488 626 l 1,17,-1
 481 626 l 1,18,19
 418 642 418 642 336 642 c 128,-1,20
 254 642 254 642 231 640 c 1,21,22
 227 610 227 610 227 387 c 1,23,-1
 461 392 l 1,24,-1
 429 320 l 1,25,-1
 422 320 l 1,0,1
EndSplineSet
EndChar

StartChar: G
Encoding: 71 71 42
Width: 707
GlyphClass: 2
Flags: W
LayerCount: 2
Fore
SplineSet
626 273 m 1,0,1
 626 135 626 135 633 78 c 1,2,3
 490 -12 490 -12 356 -12 c 128,-1,4
 222 -12 222 -12 135.5 83.5 c 128,-1,5
 49 179 49 179 49 336.5 c 128,-1,6
 49 494 49 494 144.5 603 c 128,-1,7
 240 712 240 712 398 712 c 0,8,9
 525 712 525 712 640 626 c 1,10,11
 603 587 603 587 545 551 c 1,12,13
 477 641 477 641 346 641 c 0,14,15
 291 641 291 641 259 631 c 1,16,17
 162 549 162 549 162 367 c 0,18,19
 162 62 162 62 399 62 c 0,20,21
 484 62 484 62 525 88 c 1,22,23
 537 150 537 150 537 266 c 1,24,-1
 406 266 l 1,25,-1
 448 332 l 1,26,27
 527 326 527 326 585 326 c 128,-1,28
 643 326 643 326 684 328 c 1,29,-1
 656 273 l 1,30,-1
 626 273 l 1,0,1
EndSplineSet
EndChar

StartChar: H
Encoding: 72 72 43
Width: 767
GlyphClass: 2
Flags: W
LayerCount: 2
Fore
SplineSet
541 336 m 1,0,-1
 383 337 l 2,1,2
 284 337 284 337 226 336 c 1,3,-1
 226 209 l 2,4,5
 226 172 226 172 230.5 101 c 128,-1,6
 235 30 235 30 241 7 c 1,7,-1
 241 0 l 1,8,-1
 108 0 l 1,9,-1
 108 7 l 1,10,11
 123 65 123 65 123 210 c 2,12,-1
 123 490 l 2,13,14
 123 635 123 635 108 693 c 1,15,-1
 108 700 l 1,16,-1
 241 700 l 1,17,-1
 241 693 l 1,18,19
 235 670 235 670 230.5 598.5 c 128,-1,20
 226 527 226 527 226 490 c 2,21,-1
 226 399 l 1,22,-1
 541 399 l 1,23,-1
 541 490 l 2,24,25
 541 527 541 527 536.5 598.5 c 128,-1,26
 532 670 532 670 526 693 c 1,27,-1
 526 700 l 1,28,-1
 659 700 l 1,29,-1
 659 693 l 1,30,31
 644 635 644 635 644 490 c 2,32,-1
 644 210 l 2,33,34
 644 65 644 65 659 7 c 1,35,-1
 659 0 l 1,36,-1
 526 0 l 1,37,-1
 526 7 l 1,38,39
 532 30 532 30 536.5 101 c 128,-1,40
 541 172 541 172 541 209 c 2,41,-1
 541 336 l 1,0,-1
EndSplineSet
EndChar

StartChar: I
Encoding: 73 73 44
Width: 349
GlyphClass: 2
Flags: W
LayerCount: 2
Fore
SplineSet
226 480 m 2,0,-1
 226 210 l 2,1,2
 226 173 226 173 230.5 101.5 c 128,-1,3
 235 30 235 30 241 7 c 1,4,-1
 241 0 l 1,5,-1
 108 0 l 1,6,-1
 108 7 l 1,7,8
 123 65 123 65 123 220 c 2,9,-1
 123 490 l 2,10,11
 123 635 123 635 108 693 c 1,12,-1
 108 700 l 1,13,-1
 241 700 l 1,14,-1
 241 693 l 1,15,16
 235 670 235 670 230.5 594 c 128,-1,17
 226 518 226 518 226 480 c 2,0,-1
EndSplineSet
EndChar

StartChar: J
Encoding: 74 74 45
Width: 356
GlyphClass: 2
Flags: W
LayerCount: 2
Fore
SplineSet
130 199 m 2,0,-1
 130 490 l 2,1,2
 130 643 130 643 113 693 c 1,3,-1
 113 700 l 1,4,-1
 248 700 l 1,5,-1
 248 693 l 1,6,7
 233 645 233 645 233 490 c 2,8,-1
 233 156 l 2,9,10
 233 73 233 73 214 -14 c 0,11,12
 206 -54 206 -54 164 -121 c 0,13,14
 154 -137 154 -137 128 -161 c 0,15,16
 98 -189 98 -189 23 -247 c 1,17,-1
 -13 -213 l 1,18,19
 1 -204 1 -204 33 -174 c 0,20,21
 93 -120 93 -120 111.5 -45 c 128,-1,22
 130 30 130 30 130 199 c 2,0,-1
EndSplineSet
EndChar

StartChar: K
Encoding: 75 75 46
Width: 610
GlyphClass: 2
Flags: W
LayerCount: 2
Fore
SplineSet
649 0 m 1,0,-1
 485 0 l 1,1,2
 450 43 450 43 226 346 c 1,3,-1
 226 210 l 2,4,5
 226 173 226 173 230.5 101.5 c 128,-1,6
 235 30 235 30 241 7 c 1,7,-1
 241 0 l 1,8,-1
 108 0 l 1,9,-1
 108 7 l 1,10,11
 123 65 123 65 123 210 c 2,12,-1
 123 489 l 2,13,14
 123 635 123 635 108 693 c 1,15,-1
 108 700 l 1,16,-1
 241 700 l 1,17,-1
 241 693 l 1,18,19
 235 670 235 670 230.5 598 c 128,-1,20
 226 526 226 526 226 489 c 2,21,-1
 226 369 l 1,22,-1
 389 580 l 2,23,24
 453 663 453 663 453 700 c 1,25,-1
 579 700 l 1,26,-1
 579 690 l 1,27,28
 537 683 537 683 462 585 c 2,29,-1
 307 385 l 1,30,-1
 437 217 l 2,31,32
 515 117 515 117 564.5 68.5 c 128,-1,33
 614 20 614 20 649 10 c 1,34,-1
 649 0 l 1,0,-1
EndSplineSet
EndChar

StartChar: L
Encoding: 76 76 47
Width: 523
GlyphClass: 2
Flags: W
LayerCount: 2
Fore
SplineSet
108 0 m 1,0,-1
 108 7 l 1,1,2
 123 65 123 65 123 210 c 2,3,-1
 123 490 l 2,4,5
 123 635 123 635 108 693 c 1,6,-1
 108 700 l 1,7,-1
 241 700 l 1,8,-1
 241 693 l 1,9,10
 235 669 235 669 230.5 596.5 c 128,-1,11
 226 524 226 524 226 487 c 2,12,-1
 226 206 l 2,13,14
 226 140 226 140 232 63 c 1,15,16
 254 60 254 60 312 60 c 0,17,18
 465 60 465 60 536 92 c 1,19,-1
 543 92 l 1,20,-1
 525 0 l 1,21,-1
 108 0 l 1,0,-1
EndSplineSet
EndChar

StartChar: M
Encoding: 77 77 48
Width: 889
GlyphClass: 2
Flags: W
LayerCount: 2
Fore
SplineSet
75 10 m 1,0,1
 112 290 112 290 112 563 c 0,2,3
 112 644 112 644 107 692 c 1,4,-1
 107 702 l 1,5,-1
 246 713 l 1,6,7
 252 674 252 674 270 618 c 0,8,9
 304 510 304 510 447 96 c 1,10,11
 529 345 529 345 574.5 504.5 c 128,-1,12
 620 664 620 664 626 700 c 1,13,-1
 774 715 l 1,14,-1
 774 705 l 1,15,16
 773 678 773 678 773 608 c 128,-1,17
 773 538 773 538 784.5 349 c 128,-1,18
 796 160 796 160 820 7 c 1,19,-1
 820 0 l 1,20,-1
 690 0 l 1,21,-1
 690 17 l 1,22,23
 692 105 692 105 692 183.5 c 128,-1,24
 692 262 692 262 689 328 c 128,-1,25
 686 394 686 394 682 443.5 c 128,-1,26
 678 493 678 493 674 526.5 c 128,-1,27
 670 560 670 560 669 578 c 1,28,29
 640 492 640 492 579 300 c 128,-1,30
 518 108 518 108 489 1 c 1,31,-1
 380 -9 l 1,32,33
 380 37 380 37 219 492 c 0,34,35
 188 580 188 580 185 586 c 1,36,37
 185 585 185 585 183 548 c 0,38,39
 172 343 172 343 172 234.5 c 128,-1,40
 172 126 172 126 174 17 c 1,41,-1
 174 0 l 1,42,-1
 75 0 l 1,43,-1
 75 10 l 1,0,1
EndSplineSet
EndChar

StartChar: N
Encoding: 78 78 49
Width: 710
GlyphClass: 2
Flags: W
LayerCount: 2
Fore
SplineSet
173 0 m 1,0,-1
 72 0 l 1,1,-1
 72 7 l 1,2,3
 87 73 87 73 87 239 c 2,4,-1
 87 463 l 2,5,6
 87 617 87 617 74 693 c 1,7,-1
 74 700 l 1,8,-1
 195 709 l 1,9,-1
 545 165 l 1,10,-1
 545 490 l 2,11,12
 545 543 545 543 539 605.5 c 128,-1,13
 533 668 533 668 524 693 c 1,14,-1
 524 700 l 1,15,-1
 629 700 l 1,16,-1
 629 693 l 1,17,18
 614 627 614 627 614 461 c 2,19,-1
 614 210 l 2,20,21
 614 150 614 150 618.5 81.5 c 128,-1,22
 623 13 623 13 627 0 c 1,23,-1
 533 -10 l 1,24,-1
 155 575 l 1,25,-1
 155 210 l 2,26,27
 155 77 155 77 173 7 c 1,28,-1
 173 0 l 1,0,-1
EndSplineSet
EndChar

StartChar: O
Encoding: 79 79 50
Width: 753
GlyphClass: 2
Flags: W
LayerCount: 2
Fore
SplineSet
134.5 89 m 128,-1,1
 49 190 49 190 49 344.5 c 128,-1,2
 49 499 49 499 146 606.5 c 128,-1,3
 243 714 243 714 396 714 c 0,4,5
 495 714 495 714 566 665 c 0,6,7
 704 570 704 570 704 368 c 0,8,9
 704 203 704 203 606.5 95.5 c 128,-1,10
 509 -12 509 -12 364.5 -12 c 128,-1,0
 220 -12 220 -12 134.5 89 c 128,-1,1
591 341 m 0,11,12
 591 469 591 469 543 550 c 0,13,14
 490 641 490 641 365 641 c 0,15,16
 277 641 277 641 227 610 c 1,17,18
 198 574 198 574 180 508.5 c 128,-1,19
 162 443 162 443 162 361.5 c 128,-1,20
 162 280 162 280 183 214.5 c 128,-1,21
 204 149 204 149 258.5 104 c 128,-1,22
 313 59 313 59 392.5 59 c 128,-1,23
 472 59 472 59 524 92 c 1,24,25
 591 167 591 167 591 341 c 0,11,12
EndSplineSet
EndChar

StartChar: P
Encoding: 80 80 51
Width: 623
GlyphClass: 2
Flags: W
LayerCount: 2
Fore
SplineSet
170 698 m 1,0,-1
 327 700 l 1,1,2
 585 700 585 700 585 509 c 0,3,4
 585 399 585 399 509.5 338 c 128,-1,5
 434 277 434 277 316 277 c 0,6,7
 275 277 275 277 230 286 c 1,8,-1
 230 135 l 2,9,10
 230 53 230 53 249 6 c 1,11,-1
 249 0 l 1,12,-1
 108 0 l 1,13,-1
 108 7 l 1,14,15
 127 58 127 58 127 150 c 2,16,-1
 127 533 l 2,17,18
 127 638 127 638 111 693 c 1,19,-1
 111 700 l 1,20,-1
 170 698 l 1,0,-1
472 499 m 0,21,22
 472 649 472 649 328 649 c 0,23,24
 255 649 255 649 232 646 c 1,25,26
 230 619 230 619 230 470 c 2,27,-1
 230 333 l 1,28,29
 269 322 269 322 311 322 c 0,30,31
 390 322 390 322 431 368.5 c 128,-1,32
 472 415 472 415 472 499 c 0,21,22
EndSplineSet
EndChar

StartChar: Q
Encoding: 81 81 52
Width: 752
GlyphClass: 2
Flags: W
LayerCount: 2
Fore
SplineSet
134.5 88.5 m 128,-1,1
 49 189 49 189 49 344.5 c 128,-1,2
 49 500 49 500 146.5 607 c 128,-1,3
 244 714 244 714 392 714 c 128,-1,4
 540 714 540 714 622 616 c 128,-1,5
 704 518 704 518 704 365 c 0,6,7
 704 175 704 175 571 62 c 1,8,9
 659 -20 659 -20 723 -53 c 1,10,-1
 724 -59 l 1,11,-1
 612 -99 l 1,12,13
 554 -28 554 -28 508 21 c 1,14,15
 440 -12 440 -12 363 -12 c 0,16,0
 220 -12 220 -12 134.5 88.5 c 128,-1,1
591 344 m 0,17,18
 591 465 591 465 546 547 c 0,19,20
 521 591 521 591 475 616 c 128,-1,21
 429 641 429 641 353 641 c 128,-1,22
 277 641 277 641 227 610 c 1,23,24
 162 528 162 528 162 362 c 0,25,26
 162 239 162 239 210 154 c 0,27,28
 235 109 235 109 283.5 82.5 c 128,-1,29
 332 56 332 56 399 56 c 0,30,31
 434 56 434 56 465 65 c 1,32,33
 440 91 440 91 370 156 c 1,34,-1
 370 160 l 1,35,-1
 439 190 l 1,36,37
 470 153 470 153 530 99 c 1,38,39
 591 187 591 187 591 344 c 0,17,18
EndSplineSet
EndChar

StartChar: R
Encoding: 82 82 53
Width: 641
GlyphClass: 2
Flags: W
LayerCount: 2
Fore
SplineSet
174 698 m 1,0,-1
 323 700 l 1,1,2
 563 700 563 700 563 527 c 0,3,4
 563 443 563 443 507.5 386.5 c 128,-1,5
 452 330 452 330 360 319 c 1,6,-1
 475 174 l 2,7,8
 547 83 547 83 583 50 c 128,-1,9
 619 17 619 17 645 10 c 1,10,-1
 645 0 l 1,11,-1
 481 0 l 1,12,13
 462 31 462 31 421 89 c 2,14,-1
 259 316 l 1,15,-1
 230 318 l 1,16,-1
 230 161 l 2,17,18
 230 56 230 56 245 7 c 1,19,-1
 245 0 l 1,20,-1
 108 0 l 1,21,-1
 108 7 l 1,22,23
 127 58 127 58 127 150 c 2,24,-1
 127 538 l 2,25,26
 127 642 127 642 112 693 c 1,27,-1
 112 700 l 1,28,29
 112 700 112 700 174 698 c 1,0,-1
310 649 m 0,30,31
 262 649 262 649 233 645 c 1,32,33
 230 623 230 623 230 367 c 1,34,35
 266 363 266 363 299 363 c 0,36,37
 383 363 383 363 417.5 401.5 c 128,-1,38
 452 440 452 440 452 515.5 c 128,-1,39
 452 591 452 591 420 620 c 128,-1,40
 388 649 388 649 310 649 c 0,30,31
EndSplineSet
EndChar

StartChar: S
Encoding: 83 83 54
Width: 562
GlyphClass: 2
Flags: W
LayerCount: 2
Fore
SplineSet
173 632 m 1,0,1
 152 605 152 605 152 566.5 c 128,-1,2
 152 528 152 528 171 503 c 128,-1,3
 190 478 190 478 221 461.5 c 128,-1,4
 252 445 252 445 289 429.5 c 128,-1,5
 326 414 326 414 363 395.5 c 128,-1,6
 400 377 400 377 431 352.5 c 128,-1,7
 462 328 462 328 481 287.5 c 128,-1,8
 500 247 500 247 500 194 c 0,9,10
 500 93 500 93 435 41 c 128,-1,11
 370 -11 370 -11 257 -11 c 128,-1,12
 144 -11 144 -11 54 53 c 1,13,14
 57 119 57 119 90 168 c 1,15,16
 130 120 130 120 187 89 c 128,-1,17
 244 58 244 58 296 58 c 128,-1,18
 348 58 348 58 385 81 c 1,19,20
 410 111 410 111 410 160 c 128,-1,21
 410 209 410 209 384.5 240 c 128,-1,22
 359 271 359 271 321.5 288.5 c 128,-1,23
 284 306 284 306 239.5 327.5 c 128,-1,24
 195 349 195 349 157.5 371 c 128,-1,25
 120 393 120 393 94.5 434 c 128,-1,26
 69 475 69 475 69 530 c 0,27,28
 69 622 69 622 131.5 667 c 128,-1,29
 194 712 194 712 288.5 712 c 128,-1,30
 383 712 383 712 482 666 c 1,31,32
 471 607 471 607 446 554 c 1,33,34
 405 595 405 595 351.5 621.5 c 128,-1,35
 298 648 298 648 250 648 c 128,-1,36
 202 648 202 648 173 632 c 1,0,1
EndSplineSet
EndChar

StartChar: T
Encoding: 84 84 55
Width: 487
GlyphClass: 2
Flags: W
LayerCount: 2
Fore
SplineSet
-10 614 m 1,0,1
 -10 659 -10 659 -15 703 c 1,2,3
 186 700 186 700 243.5 700 c 128,-1,4
 301 700 301 700 502 703 c 1,5,6
 495 642 495 642 495 614 c 1,7,-1
 488 614 l 1,8,9
 377 642 377 642 299 644 c 1,10,11
 294 592 294 592 294 483 c 2,12,-1
 294 208 l 2,13,14
 294 73 294 73 309 7 c 1,15,-1
 309 0 l 1,16,-1
 178 0 l 1,17,-1
 178 7 l 1,18,19
 191 72 191 72 191 204 c 2,20,-1
 191 479 l 2,21,22
 191 592 191 592 186 644 c 1,23,24
 110 642 110 642 -3 614 c 1,25,-1
 -10 614 l 1,0,1
EndSplineSet
EndChar

StartChar: U
Encoding: 85 85 56
Width: 701
GlyphClass: 2
Flags: W
LayerCount: 2
Fore
SplineSet
609 501 m 2,0,-1
 609 311 l 2,1,2
 609 129 609 129 550 58.5 c 128,-1,3
 491 -12 491 -12 351.5 -12 c 128,-1,4
 212 -12 212 -12 150 56.5 c 128,-1,5
 88 125 88 125 88 275 c 2,6,-1
 88 486 l 2,7,8
 88 635 88 635 73 693 c 1,9,-1
 73 700 l 1,10,-1
 203 700 l 1,11,-1
 203 693 l 1,12,13
 190 608 190 608 190 455 c 2,14,-1
 190 321 l 2,15,16
 190 153 190 153 234 104 c 0,17,18
 276 57 276 57 364 57 c 128,-1,19
 452 57 452 57 495 87 c 1,20,21
 521 129 521 129 528 202 c 128,-1,22
 535 275 535 275 535 442 c 128,-1,23
 535 609 535 609 520 693 c 1,24,-1
 520 700 l 1,25,-1
 624 700 l 1,26,-1
 624 693 l 1,27,28
 618 669 618 669 613.5 602.5 c 128,-1,29
 609 536 609 536 609 501 c 2,0,-1
EndSplineSet
EndChar

StartChar: V
Encoding: 86 86 57
Width: 623
GlyphClass: 2
Flags: W
LayerCount: 2
Fore
SplineSet
484 700 m 1,0,-1
 630 700 l 1,1,-1
 630 690 l 1,2,3
 580 651 580 651 496 399 c 1,4,5
 391 68 391 68 372 -1 c 1,6,-1
 250 -13 l 1,7,8
 250 20 250 20 186 214 c 0,9,10
 40 659 40 659 -5 690 c 1,11,-1
 -5 700 l 1,12,-1
 158 700 l 1,13,-1
 158 683 l 2,14,15
 158 630 158 630 199 498 c 2,16,-1
 330 75 l 1,17,18
 419 382 419 382 427 412.5 c 128,-1,19
 435 443 435 443 445 478 c 0,20,21
 470 566 470 566 476 600.5 c 128,-1,22
 482 635 482 635 484 683 c 1,23,-1
 484 700 l 1,0,-1
EndSplineSet
EndChar

StartChar: W
Encoding: 87 87 58
Width: 953
GlyphClass: 2
Flags: W
LayerCount: 2
Fore
SplineSet
826 683 m 2,0,-1
 826 700 l 1,1,-1
 961 700 l 1,2,-1
 961 690 l 1,3,4
 890 538 890 538 804 194 c 0,5,6
 761 25 761 25 754 -1 c 1,7,-1
 626 -13 l 1,8,9
 626 42 626 42 521 410 c 0,10,11
 517 424 517 424 512 443.5 c 128,-1,12
 507 463 507 463 498.5 494.5 c 128,-1,13
 490 526 490 526 483 552 c 1,14,-1
 481 552 l 1,15,16
 474 525 474 525 459 477.5 c 128,-1,17
 444 430 444 430 411.5 317 c 128,-1,18
 379 204 379 204 364.5 142 c 128,-1,19
 350 80 350 80 327 -1 c 1,20,-1
 199 -13 l 1,21,22
 199 35 199 35 69 492 c 0,23,24
 38 601 38 601 25 636 c 128,-1,25
 12 671 12 671 -4 690 c 1,26,-1
 -4 700 l 1,27,-1
 145 700 l 1,28,-1
 145 683 l 2,29,30
 145 617 145 617 176 498 c 1,31,-1
 282 75 l 1,32,33
 375 389 375 389 410 590 c 0,34,35
 422 661 422 661 423 700 c 1,36,-1
 546 700 l 1,37,38
 556 605 556 605 608 420 c 0,39,40
 627 353 627 353 706 75 c 1,41,42
 710 94 710 94 736 186 c 0,43,44
 826 513 826 513 826 683 c 2,0,-1
EndSplineSet
EndChar

StartChar: X
Encoding: 88 88 59
Width: 593
GlyphClass: 2
Flags: W
LayerCount: 2
Fore
SplineSet
281 302 m 1,0,1
 129 73 129 73 129 -1 c 1,2,-1
 -14 0 l 1,3,-1
 -14 10 l 1,4,5
 37 39 37 39 103 143 c 1,6,7
 214 312 214 312 240 355 c 1,8,-1
 161 488 l 2,9,10
 56 665 56 665 3 690 c 1,11,-1
 3 700 l 1,12,-1
 177 700 l 1,13,-1
 177 689 l 2,14,15
 177 655 177 655 200 609 c 1,16,17
 223 560 223 560 302 430 c 1,18,19
 358 514 358 514 385 567 c 0,20,21
 434 661 434 661 434 700 c 1,22,-1
 578 700 l 1,23,-1
 578 690 l 1,24,25
 545 669 545 669 521.5 641 c 128,-1,26
 498 613 498 613 428 508 c 128,-1,27
 358 403 358 403 342 378 c 1,28,-1
 425 245 l 1,29,30
 499 121 499 121 535.5 73.5 c 128,-1,31
 572 26 572 26 602 10 c 1,32,-1
 602 0 l 1,33,-1
 425 0 l 1,34,-1
 425 8 l 2,35,36
 425 41 425 41 391 104 c 0,37,38
 342 193 342 193 321 233 c 1,39,-1
 281 302 l 1,0,1
EndSplineSet
EndChar

StartChar: Y
Encoding: 89 89 60
Width: 511
GlyphClass: 2
Flags: W
LayerCount: 2
Fore
SplineSet
277 348 m 1,0,1
 404 623 404 623 404 683 c 2,2,-1
 404 700 l 1,3,-1
 520 700 l 1,4,-1
 520 690 l 1,5,6
 479 660 479 660 311 290 c 1,7,-1
 311 210 l 2,8,9
 311 175 311 175 315.5 103 c 128,-1,10
 320 31 320 31 325 7 c 1,11,-1
 325 0 l 1,12,-1
 197 0 l 1,13,-1
 197 7 l 1,14,15
 211 68 211 68 211 183 c 2,16,-1
 211 293 l 1,17,-1
 115 482 l 1,18,19
 16 671 16 671 -15 690 c 1,20,-1
 -15 700 l 1,21,-1
 133 700 l 1,22,-1
 133 683 l 2,23,24
 133 644 133 644 165.5 574 c 128,-1,25
 198 504 198 504 214 470 c 128,-1,26
 230 436 230 436 234 429 c 0,27,28
 247 409 247 409 277 348 c 1,0,1
EndSplineSet
EndChar

StartChar: Z
Encoding: 90 90 61
Width: 514
GlyphClass: 2
Flags: W
LayerCount: 2
Fore
SplineSet
124 63 m 1,0,1
 147 60 147 60 233 60 c 128,-1,2
 319 60 319 60 400 69 c 128,-1,3
 481 78 481 78 512 92 c 1,4,-1
 519 92 l 1,5,-1
 501 0 l 1,6,-1
 25 0 l 1,7,-1
 -4 51 l 1,8,-1
 384 638 l 1,9,10
 361 641 361 641 287.5 641 c 128,-1,11
 214 641 214 641 144 629.5 c 128,-1,12
 74 618 74 618 38 602 c 1,13,-1
 31 602 l 1,14,-1
 48 698 l 1,15,-1
 475 705 l 1,16,-1
 509 645 l 1,17,-1
 124 63 l 1,0,1
EndSplineSet
EndChar

StartChar: bracketleft
Encoding: 91 91 62
Width: 431
GlyphClass: 2
Flags: W
LayerCount: 2
Fore
SplineSet
203 -135 m 2,0,1
 273 -135 273 -135 319 -116 c 1,2,-1
 326 -116 l 1,3,-1
 356 -176 l 1,4,-1
 95 -173 l 1,5,-1
 96 757 l 1,6,-1
 356 760 l 1,7,-1
 326 700 l 1,8,-1
 319 700 l 1,9,10
 275 718 275 718 204 718 c 2,11,-1
 177 718 l 1,12,-1
 177 -42 l 2,13,14
 177 -90 177 -90 180 -135 c 1,15,-1
 203 -135 l 2,0,1
EndSplineSet
EndChar

StartChar: backslash
Encoding: 92 92 63
Width: 291
GlyphClass: 2
Flags: W
LayerCount: 2
Fore
SplineSet
-72 654 m 1,0,-1
 -26 731 l 1,1,-1
 -21 727 l 1,2,3
 33 582 33 582 303 65 c 0,4,5
 310 52 310 52 333 11.5 c 128,-1,6
 356 -29 356 -29 370 -56 c 1,7,-1
 324 -146 l 1,8,-1
 320 -142 l 1,9,10
 296 -81 296 -81 195.5 129 c 128,-1,11
 95 339 95 339 47 433 c 1,12,-1
 -72 654 l 1,0,-1
EndSplineSet
EndChar

StartChar: bracketright
Encoding: 93 93 64
Width: 431
GlyphClass: 2
Flags: W
LayerCount: 2
Fore
SplineSet
228 -135 m 2,0,-1
 251 -135 l 1,1,2
 254 -90 254 -90 254 -42 c 2,3,-1
 254 718 l 1,4,-1
 227 718 l 2,5,6
 156 718 156 718 112 700 c 1,7,-1
 105 700 l 1,8,-1
 75 760 l 1,9,-1
 335 757 l 1,10,-1
 336 -173 l 1,11,-1
 75 -176 l 1,12,-1
 105 -116 l 1,13,-1
 112 -116 l 1,14,15
 158 -135 158 -135 228 -135 c 2,0,-1
EndSplineSet
EndChar

StartChar: asciicircum
Encoding: 94 94 65
Width: 602
GlyphClass: 2
Flags: W
LayerCount: 2
Fore
SplineSet
272 682 m 1,0,-1
 336 682 l 1,1,-1
 484 379 l 1,2,-1
 403 379 l 1,3,-1
 302 592 l 1,4,-1
 196 379 l 1,5,-1
 118 379 l 1,6,-1
 272 682 l 1,0,-1
EndSplineSet
EndChar

StartChar: underscore
Encoding: 95 95 66
Width: 560
GlyphClass: 2
Flags: W
LayerCount: 2
Fore
SplineSet
536 -138 m 1,0,-1
 24 -138 l 1,1,-1
 24 -82 l 1,2,-1
 536 -82 l 1,3,-1
 536 -138 l 1,0,-1
EndSplineSet
EndChar

StartChar: grave
Encoding: 96 96 67
Width: 500
GlyphClass: 2
Flags: W
LayerCount: 2
Fore
SplineSet
319 530 m 1,0,1
 230 579 230 579 132 674 c 1,2,3
 157 715 157 715 200 732 c 1,4,5
 254 636 254 636 342 556 c 1,6,-1
 319 530 l 1,0,1
EndSplineSet
EndChar

StartChar: a
Encoding: 97 97 68
Width: 504
GlyphClass: 2
Flags: W
LayerCount: 2
Fore
SplineSet
330 200 m 1,0,1
 289 215 289 215 235.5 215 c 128,-1,2
 182 215 182 215 158 198 c 1,3,4
 143 175 143 175 143 136.5 c 128,-1,5
 143 98 143 98 164 76 c 128,-1,6
 185 54 185 54 216.5 54 c 128,-1,7
 248 54 248 54 281 70.5 c 128,-1,8
 314 87 314 87 330 106 c 1,9,-1
 330 200 l 1,0,1
346 56 m 1,10,11
 285 -11 285 -11 208.5 -11 c 128,-1,12
 132 -11 132 -11 88.5 22 c 128,-1,13
 45 55 45 55 45 128.5 c 128,-1,14
 45 202 45 202 96.5 234 c 128,-1,15
 148 266 148 266 242 266 c 1,16,-1
 330 263 l 1,17,-1
 330 320 l 2,18,19
 330 373 330 373 304 406 c 128,-1,20
 278 439 278 439 225 439 c 1,21,22
 186 438 186 438 100 364 c 1,23,24
 71 401 71 401 59 460 c 1,25,26
 158 492 158 492 241 492 c 128,-1,27
 324 492 324 492 374 449 c 128,-1,28
 424 406 424 406 424 327 c 2,29,-1
 424 159 l 1,30,31
 425 114 425 114 438.5 75.5 c 128,-1,32
 452 37 452 37 474 22 c 1,33,-1
 476 12 l 1,34,-1
 369 -14 l 1,35,36
 356 18 356 18 346 56 c 1,10,11
EndSplineSet
EndChar

StartChar: b
Encoding: 98 98 69
Width: 588
GlyphClass: 2
Flags: W
LayerCount: 2
Fore
SplineSet
191 88 m 1,0,1
 257 54 257 54 315 54 c 128,-1,2
 373 54 373 54 394 66 c 1,3,4
 411 86 411 86 424 142 c 128,-1,5
 437 198 437 198 437 250 c 0,6,7
 437 417 437 417 333 417 c 0,8,9
 275 417 275 417 191 360 c 1,10,-1
 191 88 l 1,0,1
191 654 m 2,11,-1
 191 417 l 1,12,13
 274 491 274 491 356.5 491 c 128,-1,14
 439 491 439 491 491.5 426 c 128,-1,15
 544 361 544 361 544 268 c 0,16,17
 544 151 544 151 473 70 c 128,-1,18
 402 -11 402 -11 309.5 -11 c 128,-1,19
 217 -11 217 -11 86 31 c 1,20,-1
 86 37 l 1,21,22
 97 67 97 67 97 174 c 2,23,-1
 97 587 l 2,24,25
 97 666 97 666 50 711 c 1,26,-1
 50 723 l 1,27,-1
 188 747 l 1,28,-1
 194 737 l 1,29,30
 191 708 191 708 191 654 c 2,11,-1
EndSplineSet
EndChar

StartChar: c
Encoding: 99 99 70
Width: 490
GlyphClass: 2
Flags: W
LayerCount: 2
Fore
SplineSet
169 354.5 m 128,-1,1
 150 305 150 305 150 236.5 c 128,-1,2
 150 168 150 168 177.5 117 c 128,-1,3
 205 66 205 66 265 66 c 0,4,5
 305 66 305 66 358 84.5 c 128,-1,6
 411 103 411 103 428 116 c 1,7,-1
 453 77 l 1,8,9
 325 -11 325 -11 259 -11 c 0,10,11
 159 -11 159 -11 101.5 57 c 128,-1,12
 44 125 44 125 44 235 c 128,-1,13
 44 345 44 345 118.5 419 c 128,-1,14
 193 493 193 493 288.5 493 c 128,-1,15
 384 493 384 493 447 450 c 1,16,17
 408 388 408 388 396 375 c 1,18,19
 328 427 328 427 266 427 c 0,20,21
 243 427 243 427 221 424 c 1,22,0
 188 404 188 404 169 354.5 c 128,-1,1
EndSplineSet
EndChar

StartChar: d
Encoding: 100 100 71
Width: 571
GlyphClass: 2
Flags: W
LayerCount: 2
Fore
SplineSet
255 -11 m 0,0,1
 151 -11 151 -11 100 59.5 c 128,-1,2
 49 130 49 130 49 237 c 128,-1,3
 49 344 49 344 114.5 418 c 128,-1,4
 180 492 180 492 280 492 c 0,5,6
 336 492 336 492 391 473 c 1,7,-1
 391 587 l 2,8,9
 391 667 391 667 345 711 c 1,10,-1
 345 723 l 1,11,-1
 482 747 l 1,12,-1
 488 737 l 1,13,14
 485 708 485 708 485 654 c 2,15,-1
 485 159 l 2,16,17
 485 114 485 114 499 73.5 c 128,-1,18
 513 33 513 33 535 18 c 1,19,-1
 537 8 l 1,20,-1
 428 -18 l 1,21,22
 418 7 418 7 403 64 c 1,23,24
 326 -11 326 -11 255 -11 c 0,0,1
208 93 m 0,25,26
 237 63 237 63 287 63 c 128,-1,27
 337 63 337 63 391 111 c 1,28,-1
 391 393 l 1,29,30
 339 431 339 431 261 431 c 0,31,32
 216 431 216 431 192 413 c 1,33,34
 155 354 155 354 155 250 c 128,-1,35
 155 146 155 146 208 93 c 0,25,26
EndSplineSet
EndChar

StartChar: e
Encoding: 101 101 72
Width: 494
GlyphClass: 2
Flags: W
LayerCount: 2
Fore
SplineSet
267 -11 m 0,0,1
 162 -11 162 -11 103 54 c 128,-1,2
 44 119 44 119 44 225.5 c 128,-1,3
 44 332 44 332 110 412 c 128,-1,4
 176 492 176 492 274 492 c 0,5,6
 453 492 453 492 453 271 c 1,7,-1
 416 235 l 1,8,-1
 150 235 l 1,9,10
 150 151 150 151 186 109 c 128,-1,11
 222 67 222 67 283 67 c 0,12,13
 307 67 307 67 351 81.5 c 128,-1,14
 395 96 395 96 429 116 c 1,15,-1
 454 78 l 1,16,17
 435 59 435 59 371.5 24 c 128,-1,18
 308 -11 308 -11 267 -11 c 0,0,1
256 442 m 0,19,20
 214 442 214 442 191 423 c 1,21,22
 172 397 172 397 161 357 c 128,-1,23
 150 317 150 317 150 287 c 1,24,-1
 355 295 l 1,25,26
 355 442 355 442 256 442 c 0,19,20
EndSplineSet
EndChar

StartChar: f
Encoding: 102 102 73
Width: 357
GlyphClass: 2
Flags: W
LayerCount: 2
Fore
SplineSet
63 484 m 1,0,-1
 120 481 l 1,1,-1
 120 541 l 2,2,3
 120 626 120 626 159.5 683 c 128,-1,4
 199 740 199 740 282 740 c 128,-1,5
 365 740 365 740 449 702 c 1,6,7
 423 639 423 639 406 614 c 1,8,9
 335 678 335 678 276 678 c 0,10,11
 257 678 257 678 235 669 c 1,12,13
 214 642 214 642 214 538 c 2,14,-1
 214 480 l 1,15,16
 287 481 287 481 359 488 c 1,17,-1
 332 415 l 1,18,19
 273 424 273 424 214 426 c 1,20,-1
 214 193 l 2,21,22
 214 146 214 146 223 89 c 128,-1,23
 232 32 232 32 243 7 c 1,24,-1
 243 0 l 1,25,-1
 103 0 l 1,26,-1
 103 7 l 1,27,28
 120 57 120 57 120 170 c 2,29,-1
 120 426 l 1,30,-1
 40 423 l 1,31,-1
 63 484 l 1,0,-1
EndSplineSet
EndChar

StartChar: g
Encoding: 103 103 74
Width: 518
GlyphClass: 2
Flags: W
LayerCount: 2
Fore
SplineSet
171 132 m 128,-1,1
 157 118 157 118 157 109.5 c 128,-1,2
 157 101 157 101 161 96 c 128,-1,3
 165 91 165 91 175 87 c 128,-1,4
 185 83 185 83 195 80.5 c 128,-1,5
 205 78 205 78 222.5 75 c 128,-1,6
 240 72 240 72 253.5 70 c 128,-1,7
 267 68 267 68 290 64.5 c 128,-1,8
 313 61 313 61 328 59 c 0,9,10
 417 46 417 46 457 22 c 128,-1,11
 497 -2 497 -2 497 -59 c 0,12,13
 497 -140 497 -140 422 -184 c 128,-1,14
 347 -228 347 -228 243 -228 c 0,15,16
 168 -228 168 -228 106 -204 c 0,17,18
 71 -190 71 -190 50 -163.5 c 128,-1,19
 29 -137 29 -137 29 -99 c 0,20,21
 29 -20 29 -20 122 19 c 1,22,23
 72 40 72 40 72 83.5 c 128,-1,24
 72 127 72 127 157 173 c 1,25,26
 69 218 69 218 69 320 c 0,27,28
 69 400 69 400 122 444.5 c 128,-1,29
 175 489 175 489 251 489 c 128,-1,30
 327 489 327 489 373 463 c 1,31,32
 409 463 409 463 491 471 c 1,33,-1
 518 414 l 1,34,-1
 427 416 l 1,35,36
 453 377 453 377 453 324 c 0,37,38
 453 243 453 243 400 197 c 128,-1,39
 347 151 347 151 263 151 c 0,40,41
 233 151 233 151 206 157 c 1,42,0
 185 146 185 146 171 132 c 128,-1,1
162 1 m 1,43,44
 93 -24 93 -24 93 -78 c 128,-1,45
 93 -132 93 -132 148 -158.5 c 128,-1,46
 203 -185 203 -185 267 -185 c 0,47,48
 345 -185 345 -185 387 -150 c 0,49,50
 412 -130 412 -130 412 -99 c 0,51,52
 412 -73 412 -73 389 -55 c 0,53,54
 369 -39 369 -39 274 -22 c 0,55,56
 254 -18 254 -18 213.5 -9.5 c 128,-1,57
 173 -1 173 -1 162 1 c 1,43,44
182 257 m 0,58,59
 208 201 208 201 269 201 c 0,60,61
 311 201 311 201 327 215 c 1,62,63
 355 247 355 247 355 313.5 c 128,-1,64
 355 380 355 380 334 409.5 c 128,-1,65
 313 439 313 439 265 439 c 128,-1,66
 217 439 217 439 194 426 c 1,67,68
 167 389 167 389 167 338.5 c 128,-1,69
 167 288 167 288 182 257 c 0,58,59
EndSplineSet
EndChar

StartChar: h
Encoding: 104 104 75
Width: 599
GlyphClass: 2
Flags: W
LayerCount: 2
Fore
SplineSet
187 545 m 2,0,-1
 187 408 l 1,1,2
 225 437 225 437 245.5 451 c 128,-1,3
 266 465 266 465 298.5 478.5 c 128,-1,4
 331 492 331 492 360 492 c 0,5,6
 434 492 434 492 474 446 c 128,-1,7
 514 400 514 400 514 314 c 2,8,-1
 514 170 l 2,9,10
 514 75 514 75 544 7 c 1,11,-1
 544 0 l 1,12,-1
 403 0 l 1,13,-1
 403 7 l 1,14,15
 420 57 420 57 420 140 c 2,16,-1
 420 293 l 2,17,18
 420 351 420 351 402.5 380.5 c 128,-1,19
 385 410 385 410 329.5 410 c 128,-1,20
 274 410 274 410 190 359 c 1,21,-1
 190 170 l 2,22,23
 190 73 190 73 219 7 c 1,24,-1
 219 0 l 1,25,-1
 79 0 l 1,26,-1
 79 7 l 1,27,28
 96 57 96 57 96 140 c 2,29,-1
 96 587 l 2,30,31
 96 667 96 667 50 711 c 1,32,-1
 50 723 l 1,33,-1
 184 747 l 1,34,-1
 190 737 l 1,35,36
 187 708 187 708 187 545 c 2,0,-1
EndSplineSet
EndChar

StartChar: i
Encoding: 105 105 76
Width: 265
GlyphClass: 2
Flags: W
LayerCount: 2
Fore
SplineSet
97 139 m 2,0,-1
 97 333 l 2,1,2
 97 422 97 422 47 457 c 1,3,-1
 47 469 l 1,4,-1
 188 493 l 1,5,-1
 194 483 l 1,6,7
 191 454 191 454 191 400 c 2,8,-1
 191 164 l 2,9,10
 191 64 191 64 216 7 c 1,11,-1
 216 0 l 1,12,-1
 81 0 l 1,13,-1
 81 7 l 1,14,15
 97 54 97 54 97 139 c 2,0,-1
181 708 m 1,16,17
 195 696 195 696 195 650 c 0,18,19
 195 639 195 639 194 630 c 1,20,-1
 186 623 l 1,21,22
 146 612 146 612 91 607 c 1,23,-1
 82 611 l 1,24,25
 67 637 67 637 67 680 c 0,26,27
 67 685 67 685 67 690 c 1,28,-1
 75 697 l 1,29,30
 123 713 123 713 167 713 c 0,31,32
 172 713 172 713 181 708 c 1,16,17
EndSplineSet
EndChar

StartChar: j
Encoding: 106 106 77
Width: 251
GlyphClass: 2
Flags: W
LayerCount: 2
Fore
SplineSet
176 707 m 1,1,2
 190 694 190 694 190 649 c 0,3,4
 190 638 190 638 189 629 c 1,5,-1
 181 622 l 1,6,7
 141 611 141 611 86 606 c 1,8,-1
 77 610 l 1,9,10
 62 636 62 636 62 679 c 0,11,12
 62 684 62 684 62 689 c 1,13,-1
 70 696 l 1,14,15
 118 712 118 712 162 712 c 0,16,0
 167 712 167 712 176 707 c 1,1,2
186 398 m 2,17,-1
 186 110 l 2,18,19
 186 -42 186 -42 143 -112 c 0,20,21
 120 -150 120 -150 102 -169.5 c 128,-1,22
 84 -189 84 -189 62 -207 c 0,23,24
 62 -208 62 -208 15 -248 c 1,25,-1
 -21 -215 l 1,26,27
 53 -169 53 -169 76 -70 c 0,28,29
 92 -1 92 -1 92 149 c 2,30,-1
 92 330 l 2,31,32
 92 421 92 421 36 457 c 1,33,-1
 36 469 l 1,34,-1
 183 493 l 1,35,-1
 189 483 l 1,36,37
 186 453 186 453 186 398 c 2,17,-1
EndSplineSet
EndChar

StartChar: k
Encoding: 107 107 78
Width: 534
GlyphClass: 2
Flags: W
LayerCount: 2
Fore
SplineSet
206 0 m 1,0,-1
 79 0 l 1,1,-1
 79 12 l 1,2,3
 96 62 96 62 96 170 c 2,4,-1
 96 587 l 2,5,6
 96 667 96 667 50 711 c 1,7,-1
 50 723 l 1,8,-1
 187 747 l 1,9,-1
 193 737 l 1,10,11
 190 708 190 708 190 654 c 2,12,-1
 190 302 l 1,13,-1
 360 444 l 2,14,15
 388 467 388 467 388 480 c 1,16,-1
 503 480 l 1,17,-1
 503 468 l 1,18,19
 484 466 484 466 409 406 c 1,20,-1
 267 284 l 1,21,-1
 392 150 l 1,22,23
 461 74 461 74 491 48 c 128,-1,24
 521 22 521 22 549 12 c 1,25,-1
 549 0 l 1,26,-1
 400 0 l 1,27,28
 400 2 400 2 190 252 c 1,29,-1
 190 170 l 2,30,31
 190 59 190 59 206 12 c 1,32,-1
 206 0 l 1,0,-1
EndSplineSet
EndChar

StartChar: l
Encoding: 108 108 79
Width: 264
GlyphClass: 2
Flags: W
LayerCount: 2
Fore
SplineSet
208 0 m 1,0,-1
 79 0 l 1,1,-1
 79 12 l 1,2,3
 96 62 96 62 96 170 c 2,4,-1
 96 587 l 2,5,6
 96 667 96 667 50 711 c 1,7,-1
 50 723 l 1,8,-1
 187 747 l 1,9,-1
 193 737 l 1,10,11
 190 708 190 708 190 545 c 2,12,-1
 191 170 l 2,13,14
 191 62 191 62 208 12 c 1,15,-1
 208 0 l 1,0,-1
EndSplineSet
EndChar

StartChar: m
Encoding: 109 109 80
Width: 874
GlyphClass: 2
Flags: W
LayerCount: 2
Fore
SplineSet
492 321 m 2,0,-1
 492 140 l 2,1,2
 492 60 492 60 507 7 c 1,3,-1
 507 0 l 1,4,-1
 383 0 l 1,5,-1
 383 7 l 1,6,7
 398 60 398 60 398 140 c 2,8,-1
 398 300 l 2,9,10
 398 357 398 357 383 383.5 c 128,-1,11
 368 410 368 410 323 410 c 128,-1,12
 278 410 278 410 202 359 c 1,13,-1
 202 170 l 2,14,15
 202 73 202 73 231 7 c 1,16,-1
 231 0 l 1,17,-1
 91 0 l 1,18,-1
 91 7 l 1,19,20
 108 57 108 57 108 140 c 2,21,-1
 108 310 l 2,22,23
 108 353 108 353 90.5 394.5 c 128,-1,24
 73 436 73 436 50 450 c 1,25,-1
 49 462 l 1,26,-1
 180 493 l 1,27,-1
 186 483 l 1,28,29
 194 446 194 446 198 408 c 1,30,31
 234 439 234 439 249.5 451.5 c 128,-1,32
 265 464 265 464 293.5 478 c 128,-1,33
 322 492 322 492 347 492 c 0,34,35
 450 492 450 492 480 403 c 1,36,37
 583 492 583 492 641 492 c 0,38,39
 711 492 711 492 750 446 c 128,-1,40
 789 400 789 400 789 314 c 2,41,-1
 789 170 l 2,42,43
 789 75 789 75 819 7 c 1,44,-1
 819 0 l 1,45,-1
 678 0 l 1,46,-1
 678 7 l 1,47,48
 695 57 695 57 695 140 c 2,49,-1
 695 293 l 2,50,51
 695 410 695 410 622 410 c 0,52,53
 561 410 561 410 490 358 c 1,54,55
 492 334 492 334 492 321 c 2,0,-1
EndSplineSet
EndChar

StartChar: n
Encoding: 110 110 81
Width: 605
GlyphClass: 2
Flags: W
LayerCount: 2
Fore
SplineSet
369 492 m 0,0,1
 441 492 441 492 480.5 446 c 128,-1,2
 520 400 520 400 520 314 c 2,3,-1
 520 170 l 2,4,5
 520 75 520 75 550 7 c 1,6,-1
 550 0 l 1,7,-1
 409 0 l 1,8,-1
 409 7 l 1,9,10
 426 57 426 57 426 140 c 2,11,-1
 426 293 l 2,12,13
 426 351 426 351 408.5 380.5 c 128,-1,14
 391 410 391 410 338 410 c 128,-1,15
 285 410 285 410 202 359 c 1,16,-1
 202 170 l 2,17,18
 202 73 202 73 231 7 c 1,19,-1
 231 0 l 1,20,-1
 91 0 l 1,21,-1
 91 7 l 1,22,23
 108 57 108 57 108 140 c 2,24,-1
 108 310 l 2,25,26
 108 353 108 353 90.5 394.5 c 128,-1,27
 73 436 73 436 50 450 c 1,28,-1
 49 462 l 1,29,-1
 180 493 l 1,30,-1
 186 483 l 1,31,32
 194 446 194 446 198 408 c 1,33,34
 235 437 235 437 255.5 451 c 128,-1,35
 276 465 276 465 308 478.5 c 128,-1,36
 340 492 340 492 369 492 c 0,0,1
EndSplineSet
EndChar

StartChar: o
Encoding: 111 111 82
Width: 562
GlyphClass: 2
Flags: W
LayerCount: 2
Fore
SplineSet
105 54.5 m 128,-1,1
 44 121 44 121 44 228.5 c 128,-1,2
 44 336 44 336 115 414 c 128,-1,3
 186 492 186 492 293.5 492 c 128,-1,4
 401 492 401 492 459.5 427 c 128,-1,5
 518 362 518 362 518 253 c 128,-1,6
 518 144 518 144 447 66 c 128,-1,7
 376 -12 376 -12 271 -12 c 128,-1,0
 166 -12 166 -12 105 54.5 c 128,-1,1
412 228 m 0,8,9
 412 327 412 327 381 381 c 128,-1,10
 350 435 350 435 271 435 c 0,11,12
 220 435 220 435 191 413 c 1,13,14
 173 390 173 390 161.5 343 c 128,-1,15
 150 296 150 296 150 253 c 0,16,17
 150 44 150 44 298 44 c 0,18,19
 344 44 344 44 373 65 c 1,20,21
 392 88 392 88 402 136 c 128,-1,22
 412 184 412 184 412 228 c 0,8,9
EndSplineSet
EndChar

StartChar: p
Encoding: 112 112 83
Width: 588
GlyphClass: 2
Flags: W
LayerCount: 2
Fore
SplineSet
328 53 m 0,0,1
 373 53 373 53 394 65 c 1,2,3
 410 84 410 84 423 141 c 128,-1,4
 436 198 436 198 436 251 c 0,5,6
 436 418 436 418 335 418 c 0,7,8
 271 418 271 418 195 365 c 1,9,-1
 195 95 l 1,10,11
 258 53 258 53 328 53 c 0,0,1
101 -100 m 2,12,-1
 101 314 l 2,13,14
 101 358 101 358 87 396.5 c 128,-1,15
 73 435 73 435 50 449 c 1,16,-1
 49 461 l 1,17,-1
 186 493 l 1,18,-1
 192 483 l 1,19,20
 190 460 190 460 190 418 c 1,21,22
 273 492 273 492 355.5 492 c 128,-1,23
 438 492 438 492 490.5 427 c 128,-1,24
 543 362 543 362 543 269 c 0,25,26
 543 153 543 153 474 70.5 c 128,-1,27
 405 -12 405 -12 317 -12 c 0,28,29
 259 -12 259 -12 195 10 c 1,30,-1
 195 -58 l 1,31,32
 197 -178 197 -178 236 -226 c 1,33,-1
 236 -231 l 1,34,-1
 98 -246 l 1,35,36
 101 -206 101 -206 101 -100 c 2,12,-1
EndSplineSet
EndChar

StartChar: q
Encoding: 113 113 84
Width: 547
GlyphClass: 2
Flags: W
LayerCount: 2
Fore
SplineSet
398 -61 m 2,0,-1
 398 64 l 1,1,2
 321 -11 321 -11 250 -11 c 0,3,4
 146 -11 146 -11 95 59.5 c 128,-1,5
 44 130 44 130 44 237 c 128,-1,6
 44 344 44 344 109.5 418 c 128,-1,7
 175 492 175 492 275 492 c 0,8,9
 346 492 346 492 413 454 c 1,10,-1
 470 489 l 1,11,12
 486 491 486 491 498 487 c 1,13,14
 493 432 493 432 493 342 c 2,15,-1
 493 -100 l 2,16,17
 493 -206 493 -206 496 -246 c 1,18,-1
 357 -238 l 1,19,-1
 357 -233 l 1,20,21
 398 -183 398 -183 398 -61 c 2,0,-1
202 93 m 0,22,23
 232 63 232 63 275 63 c 0,24,25
 300 63 300 63 333 75.5 c 128,-1,26
 366 88 366 88 392 111 c 1,27,-1
 392 393 l 1,28,29
 340 431 340 431 256 431 c 0,30,31
 211 431 211 431 187 413 c 1,32,33
 150 354 150 354 150 250 c 128,-1,34
 150 146 150 146 202 93 c 0,22,23
EndSplineSet
EndChar

StartChar: r
Encoding: 114 114 85
Width: 377
GlyphClass: 2
Flags: W
LayerCount: 2
Fore
SplineSet
338 492 m 0,0,1
 369 492 369 492 384 485 c 1,2,3
 384 479 384 479 384 473 c 0,4,5
 384 414 384 414 366 366 c 1,6,7
 321 395 321 395 264 395 c 0,8,9
 233 395 233 395 202 384 c 1,10,-1
 202 170 l 2,11,12
 202 73 202 73 231 7 c 1,13,-1
 231 0 l 1,14,-1
 91 0 l 1,15,-1
 91 7 l 1,16,17
 108 57 108 57 108 140 c 2,18,-1
 108 310 l 2,19,20
 108 353 108 353 90.5 394.5 c 128,-1,21
 73 436 73 436 50 450 c 1,22,-1
 49 462 l 1,23,-1
 167 493 l 1,24,25
 183 466 183 466 193 430 c 1,26,27
 253 492 253 492 338 492 c 0,0,1
EndSplineSet
EndChar

StartChar: s
Encoding: 115 115 86
Width: 458
GlyphClass: 2
Flags: W
LayerCount: 2
Fore
SplineSet
161 429 m 1,0,1
 143 411 143 411 143 379.5 c 128,-1,2
 143 348 143 348 163 330.5 c 128,-1,3
 183 313 183 313 213.5 305 c 128,-1,4
 244 297 244 297 279 285 c 128,-1,5
 314 273 314 273 344.5 259.5 c 128,-1,6
 375 246 375 246 395 216 c 128,-1,7
 415 186 415 186 415 143 c 0,8,9
 415 67 415 67 359 28 c 128,-1,10
 303 -11 303 -11 211.5 -11 c 128,-1,11
 120 -11 120 -11 49 36 c 1,12,13
 52 87 52 87 79 127 c 1,14,15
 169 45 169 45 243 45 c 0,16,17
 275 45 275 45 300 58 c 1,18,19
 324 79 324 79 324 114.5 c 128,-1,20
 324 150 324 150 296.5 169.5 c 128,-1,21
 269 189 269 189 230 200 c 128,-1,22
 191 211 191 211 152 225 c 128,-1,23
 113 239 113 239 85.5 269 c 128,-1,24
 58 299 58 299 58 347 c 0,25,26
 58 417 58 417 110.5 454.5 c 128,-1,27
 163 492 163 492 243 492 c 128,-1,28
 323 492 323 492 400 458 c 1,29,30
 391 414 391 414 365 370 c 1,31,32
 294 441 294 441 217 441 c 0,33,34
 184 441 184 441 161 429 c 1,0,1
EndSplineSet
EndChar

StartChar: t
Encoding: 116 116 87
Width: 369
GlyphClass: 2
Flags: W
LayerCount: 2
Fore
SplineSet
202 112 m 2,0,1
 202 59 202 59 234 59 c 0,2,3
 261 59 261 59 325 91 c 1,4,-1
 346 56 l 1,5,6
 314 34 314 34 266 11.5 c 128,-1,7
 218 -11 218 -11 178 -11 c 128,-1,8
 138 -11 138 -11 123 14 c 128,-1,9
 108 39 108 39 108 86 c 2,10,-1
 108 423 l 1,11,-1
 18 418 l 1,12,-1
 42 483 l 1,13,14
 60 481 60 481 106 479 c 1,15,16
 104 529 104 529 100 569 c 1,17,-1
 202 595 l 1,18,-1
 202 480 l 1,19,20
 256 482 256 482 349 492 c 1,21,-1
 321 414 l 1,22,23
 267 422 267 422 202 424 c 1,24,-1
 202 112 l 2,0,1
EndSplineSet
EndChar

StartChar: u
Encoding: 117 117 88
Width: 602
GlyphClass: 2
Flags: W
LayerCount: 2
Fore
SplineSet
236 -11 m 0,0,1
 152 -11 152 -11 118.5 32.5 c 128,-1,2
 85 76 85 76 85 167 c 2,3,-1
 85 310 l 2,4,5
 85 405 85 405 55 473 c 1,6,-1
 55 480 l 1,7,-1
 194 480 l 1,8,-1
 194 473 l 1,9,10
 179 420 179 420 179 340 c 2,11,-1
 179 183 l 2,12,13
 179 123 179 123 194 97 c 128,-1,14
 209 71 209 71 267 71 c 128,-1,15
 325 71 325 71 403 126 c 1,16,-1
 403 310 l 2,17,18
 403 407 403 407 374 473 c 1,19,-1
 374 480 l 1,20,-1
 512 480 l 1,21,-1
 512 473 l 1,22,23
 497 420 497 420 497 340 c 2,24,-1
 497 171 l 2,25,26
 497 127 497 127 512 84.5 c 128,-1,27
 527 42 527 42 547 28 c 1,28,-1
 548 16 l 1,29,-1
 431 -12 l 1,30,31
 414 34 414 34 407 76 c 1,32,33
 358 34 358 34 318 11.5 c 128,-1,34
 278 -11 278 -11 236 -11 c 0,0,1
EndSplineSet
EndChar

StartChar: v
Encoding: 118 118 89
Width: 454
GlyphClass: 2
Flags: W
LayerCount: 2
Fore
SplineSet
130 476 m 2,0,1
 130 447 130 447 170 325 c 2,2,-1
 245 94 l 1,3,-1
 329 347 l 2,4,5
 350 413 350 413 350 468 c 2,6,-1
 350 480 l 1,7,-1
 455 480 l 1,8,-1
 455 468 l 1,9,10
 428 443 428 443 403 371 c 2,11,-1
 290 44 l 1,12,-1
 276 -7 l 1,13,-1
 183 -11 l 1,14,-1
 166 46 l 1,15,-1
 47 375 l 1,16,17
 19 446 19 446 -6 463 c 1,18,-1
 -6 475 l 1,19,-1
 130 488 l 1,20,-1
 130 476 l 2,0,1
EndSplineSet
EndChar

StartChar: w
Encoding: 119 119 90
Width: 763
GlyphClass: 2
Flags: W
LayerCount: 2
Fore
SplineSet
254 106 m 1,0,1
 332 330 332 330 352 411 c 1,2,3
 332 458 332 458 323 465 c 1,4,-1
 323 477 l 1,5,-1
 452 484 l 1,6,-1
 452 472 l 2,7,8
 452 443 452 443 503 293 c 2,9,-1
 568 101 l 1,10,11
 634 304 634 304 645 347 c 1,12,13
 666 417 666 417 666 468 c 2,14,-1
 666 480 l 1,15,-1
 764 480 l 1,16,-1
 764 468 l 1,17,18
 739 445 739 445 716 371 c 2,19,-1
 616 44 l 1,20,-1
 603 -9 l 1,21,-1
 509 -11 l 1,22,-1
 492 46 l 1,23,-1
 389 313 l 1,24,-1
 299 44 l 1,25,-1
 288 -9 l 1,26,-1
 193 -11 l 1,27,-1
 176 46 l 1,28,-1
 45 375 l 2,29,30
 17 448 17 448 -6 463 c 1,31,-1
 -6 475 l 1,32,-1
 138 487 l 1,33,-1
 138 475 l 2,34,35
 138 440 138 440 187 300 c 2,36,-1
 254 106 l 1,0,1
EndSplineSet
EndChar

StartChar: x
Encoding: 120 120 91
Width: 488
GlyphClass: 2
Flags: W
LayerCount: 2
Fore
SplineSet
334 480 m 1,0,-1
 468 480 l 1,1,-1
 468 468 l 1,2,3
 447 461 447 461 415 429 c 128,-1,4
 383 397 383 397 353 350 c 2,5,-1
 290 254 l 1,6,-1
 364 156 l 2,7,8
 461 27 461 27 491 12 c 1,9,-1
 491 0 l 1,10,-1
 324 0 l 1,11,-1
 324 12 l 1,12,13
 319 61 319 61 287 104 c 2,14,-1
 227 184 l 1,15,-1
 168 93 l 2,16,17
 136 43 136 43 134 12 c 1,18,-1
 134 0 l 1,19,-1
 0 0 l 1,20,-1
 0 12 l 1,21,22
 14 18 14 18 47.5 47.5 c 128,-1,23
 81 77 81 77 106 115 c 2,24,-1
 186 240 l 1,25,-1
 104 352 l 2,26,27
 75 392 75 392 43.5 426.5 c 128,-1,28
 12 461 12 461 -1 468 c 1,29,-1
 -1 480 l 1,30,-1
 150 480 l 1,31,-1
 150 468 l 1,32,33
 152 440 152 440 197 380 c 2,34,-1
 249 309 l 1,35,-1
 300 387 l 2,36,37
 332 437 332 437 334 468 c 1,38,-1
 334 480 l 1,0,-1
EndSplineSet
EndChar

StartChar: y
Encoding: 121 121 92
Width: 450
GlyphClass: 2
Flags: W
LayerCount: 2
Fore
SplineSet
254 92 m 1,0,1
 350 385 350 385 350 440 c 0,2,3
 350 457 350 457 343 468 c 1,4,-1
 343 480 l 1,5,-1
 450 480 l 1,6,-1
 450 468 l 1,7,8
 435 455 435 455 287 10 c 1,9,10
 216 -198 216 -198 206 -238 c 1,11,-1
 206 -246 l 1,12,-1
 82 -255 l 1,13,-1
 81 -248 l 1,14,15
 154 -161 154 -161 209 -14 c 1,16,17
 203 3 203 3 36 398 c 0,18,19
 16 445 16 445 -7 464 c 1,20,-1
 -7 476 l 1,21,-1
 127 487 l 1,22,-1
 127 475 l 2,23,24
 127 449 127 449 151 374.5 c 128,-1,25
 175 300 175 300 254 92 c 1,0,1
EndSplineSet
EndChar

StartChar: z
Encoding: 122 122 93
Width: 426
GlyphClass: 2
Flags: W
LayerCount: 2
Fore
SplineSet
402 431 m 1,0,-1
 136 59 l 1,1,2
 300 59 300 59 391 88 c 1,3,-1
 402 83 l 1,4,-1
 374 0 l 1,5,-1
 39 0 l 1,6,-1
 15 48 l 1,7,-1
 282 420 l 1,8,9
 177 420 177 420 134 414.5 c 128,-1,10
 91 409 91 409 56 392 c 1,11,-1
 45 399 l 1,12,-1
 65 483 l 1,13,-1
 377 480 l 1,14,-1
 402 431 l 1,0,-1
EndSplineSet
EndChar

StartChar: braceleft
Encoding: 123 123 94
Width: 414
GlyphClass: 2
Flags: W
LayerCount: 2
Fore
SplineSet
216 103 m 2,0,-1
 216 29 l 2,1,2
 216 -71 216 -71 236 -98 c 0,3,4
 259 -130 259 -130 297.5 -130 c 128,-1,5
 336 -130 336 -130 372 -126 c 1,6,-1
 379 -160 l 1,7,8
 327 -173 327 -173 287.5 -173 c 128,-1,9
 248 -173 248 -173 219.5 -161.5 c 128,-1,10
 191 -150 191 -150 174.5 -132 c 128,-1,11
 158 -114 158 -114 149 -84 c 0,12,13
 135 -36 135 -36 135 46 c 2,14,-1
 135 139 l 2,15,16
 135 201 135 201 104 231 c 0,17,18
 82 252 82 252 53 268 c 1,19,-1
 53 275 l 1,20,21
 77 290 77 290 90.5 300.5 c 128,-1,22
 104 311 104 311 120 341.5 c 128,-1,23
 136 372 136 372 136 412 c 2,24,-1
 136 537 l 2,25,26
 136 669 136 669 172 712 c 0,27,28
 209 756 209 756 287 756 c 0,29,30
 326 756 326 756 378 743 c 1,31,-1
 371 709 l 1,32,33
 335 713 335 713 304 713 c 128,-1,34
 273 713 273 713 254.5 701.5 c 128,-1,35
 236 690 236 690 228 666 c 0,36,37
 216 629 216 629 216 559 c 2,38,-1
 216 436 l 2,39,40
 216 359 216 359 184 321 c 0,41,42
 168 302 168 302 158 294 c 128,-1,43
 148 286 148 286 128 274 c 1,44,-1
 128 271 l 1,45,46
 216 224 216 224 216 103 c 2,0,-1
EndSplineSet
EndChar

StartChar: bar
Encoding: 124 124 95
Width: 227
GlyphClass: 2
Flags: W
LayerCount: 2
Fore
SplineSet
147 600 m 2,0,-1
 147 -147 l 1,1,-1
 74 -177 l 1,2,-1
 73 702 l 1,3,-1
 73 709 l 1,4,-1
 154 739 l 1,5,6
 147 644 147 644 147 600 c 2,0,-1
EndSplineSet
EndChar

StartChar: braceright
Encoding: 125 125 96
Width: 415
GlyphClass: 2
Flags: W
LayerCount: 2
Fore
SplineSet
199 29 m 2,0,-1
 199 103 l 2,1,2
 199 224 199 224 287 271 c 1,3,-1
 287 274 l 1,4,5
 267 286 267 286 257 294 c 128,-1,6
 247 302 247 302 231 321 c 0,7,8
 199 359 199 359 199 436 c 2,9,-1
 199 559 l 2,10,11
 199 629 199 629 189 659.5 c 128,-1,12
 179 690 179 690 160.5 701.5 c 128,-1,13
 142 713 142 713 111 713 c 128,-1,14
 80 713 80 713 44 709 c 1,15,16
 42 713 42 713 35 737 c 1,17,-1
 36 743 l 1,18,19
 88 756 88 756 129 756 c 128,-1,20
 170 756 170 756 199 743 c 128,-1,21
 228 730 228 730 243.5 711.5 c 128,-1,22
 259 693 259 693 267 660 c 0,23,24
 279 612 279 612 279 537 c 2,25,-1
 279 412 l 2,26,27
 279 372 279 372 295 341.5 c 128,-1,28
 311 311 311 311 324.5 300.5 c 128,-1,29
 338 290 338 290 362 275 c 1,30,-1
 362 268 l 1,31,32
 302 236 302 236 288 193 c 0,33,34
 280 170 280 170 280 139 c 2,35,-1
 280 46 l 2,36,37
 280 -86 280 -86 244 -128 c 1,38,39
 207 -173 207 -173 129 -173 c 0,40,41
 89 -173 89 -173 37 -160 c 1,42,-1
 36 -154 l 1,43,44
 43 -130 43 -130 45 -126 c 1,45,46
 81 -130 81 -130 109 -130 c 128,-1,47
 137 -130 137 -130 154 -120.5 c 128,-1,48
 171 -111 171 -111 179.5 -98.5 c 128,-1,49
 188 -86 188 -86 192 -62 c 0,50,51
 199 -27 199 -27 199 29 c 2,0,-1
EndSplineSet
EndChar

StartChar: asciitilde
Encoding: 126 126 97
Width: 640
GlyphClass: 2
Flags: W
LayerCount: 2
Fore
SplineSet
422 222 m 0,0,1
 389 222 389 222 321 246 c 128,-1,2
 253 270 253 270 221 270 c 0,3,4
 167 270 167 270 112 231 c 1,5,-1
 80 297 l 1,6,7
 162 340 162 340 215 340 c 0,8,9
 246 340 246 340 317 315.5 c 128,-1,10
 388 291 388 291 421 291 c 0,11,12
 476 291 476 291 528 327 c 1,13,-1
 560 262 l 1,14,15
 484 222 484 222 422 222 c 0,0,1
EndSplineSet
EndChar

StartChar: exclamdown
Encoding: 161 161 98
Width: 268
GlyphClass: 2
Flags: W
LayerCount: 2
Fore
SplineSet
170 314 m 1,0,1
 169 306 169 306 169 261 c 128,-1,2
 169 216 169 216 171 126 c 128,-1,3
 173 36 173 36 174 6 c 128,-1,4
 175 -24 175 -24 176 -43.5 c 128,-1,5
 177 -63 177 -63 178 -77.5 c 128,-1,6
 179 -92 179 -92 180 -107 c 0,7,8
 187 -177 187 -177 218 -199 c 1,9,-1
 218 -209 l 1,10,-1
 81 -233 l 1,11,-1
 75 -223 l 1,12,13
 81 -178 81 -178 99 301 c 1,14,-1
 170 314 l 1,0,1
179 419 m 0,15,16
 179 415 179 415 179 411 c 1,17,-1
 171 403 l 1,18,19
 120 390 120 390 87 388 c 1,20,-1
 77 392 l 1,21,22
 64 420 64 420 64 458 c 0,23,24
 64 463 64 463 64 468 c 1,25,-1
 72 476 l 1,26,27
 119 491 119 491 154 491 c 0,28,29
 158 491 158 491 167 486 c 1,30,31
 179 456 179 456 179 419 c 0,15,16
EndSplineSet
EndChar

StartChar: cent
Encoding: 162 162 99
Width: 486
GlyphClass: 2
Flags: W
LayerCount: 2
Fore
SplineSet
96.5 58 m 128,-1,1
 40 126 40 126 40 230 c 128,-1,2
 40 334 40 334 101.5 404.5 c 128,-1,3
 163 475 163 475 252 490 c 1,4,5
 252 540 252 540 248 584 c 1,6,-1
 303 610 l 1,7,-1
 307 603 l 1,8,9
 300 543 300 543 300 493 c 1,10,11
 386 489 386 489 443 450 c 1,12,13
 404 388 404 388 392 375 c 1,14,15
 346 410 346 410 300 422 c 1,16,-1
 300 70 l 1,17,18
 337 77 337 77 374.5 92 c 128,-1,19
 412 107 412 107 424 116 c 1,20,-1
 449 77 l 1,21,-1
 444 73 l 1,22,23
 362 15 362 15 300 -3 c 1,24,25
 300 -80 300 -80 304 -115 c 1,26,-1
 245 -131 l 1,27,-1
 241 -124 l 1,28,29
 250 -63 250 -63 251 -11 c 1,30,0
 153 -10 153 -10 96.5 58 c 128,-1,1
165 354.5 m 128,-1,32
 146 305 146 305 146 238 c 128,-1,33
 146 171 146 171 171.5 120.5 c 128,-1,34
 197 70 197 70 252 66 c 1,35,-1
 252 427 l 1,36,37
 241 427 241 427 217 424 c 1,38,31
 184 404 184 404 165 354.5 c 128,-1,32
EndSplineSet
EndChar

StartChar: sterling
Encoding: 163 163 100
Width: 492
GlyphClass: 2
Flags: W
LayerCount: 2
Fore
SplineSet
191 211 m 0,0,1
 191 251 191 251 152 350 c 1,2,-1
 150 350 l 2,3,4
 85 350 85 350 16 344 c 1,5,-1
 41 408 l 1,6,-1
 48 408 l 1,7,8
 89 399 89 399 129 399 c 1,9,10
 88 477 88 477 88 531 c 0,11,12
 88 602 88 602 148.5 657 c 128,-1,13
 209 712 209 712 307.5 712 c 128,-1,14
 406 712 406 712 463 675 c 1,15,16
 427 620 427 620 419 611 c 1,17,18
 358 656 358 656 296 656 c 0,19,20
 274 656 274 656 254 653 c 1,21,22
 227 637 227 637 210.5 603 c 128,-1,23
 194 569 194 569 194 530.5 c 128,-1,24
 194 492 194 492 227 400 c 1,25,26
 248 400 248 400 294 402 c 128,-1,27
 340 404 340 404 363 404 c 1,28,-1
 338 341 l 1,29,-1
 331 341 l 1,30,31
 293 346 293 346 248 348 c 1,32,33
 279 273 279 273 279 234 c 0,34,35
 279 152 279 152 173 60 c 1,36,37
 371 60 371 60 461 121 c 1,38,-1
 471 121 l 1,39,-1
 444 0 l 1,40,-1
 14 0 l 1,41,-1
 48 50 l 1,42,43
 118 65 118 65 154.5 108 c 128,-1,44
 191 151 191 151 191 211 c 0,0,1
EndSplineSet
EndChar

StartChar: currency
Encoding: 164 164 101
Width: 553
GlyphClass: 2
Flags: W
LayerCount: 2
Fore
SplineSet
390 191 m 1,0,1
 340 155 340 155 276.5 155 c 128,-1,2
 213 155 213 155 162 192 c 1,3,-1
 106 130 l 1,4,-1
 45 156 l 1,5,-1
 122 228 l 1,6,7
 80 287 80 287 80 350 c 128,-1,8
 80 413 80 413 122 473 c 1,9,10
 117 478 117 478 88 505 c 128,-1,11
 59 532 59 532 45 546 c 1,12,-1
 106 571 l 1,13,-1
 163 509 l 1,14,15
 210 546 210 546 275 546 c 128,-1,16
 340 546 340 546 390 510 c 1,17,-1
 447 572 l 1,18,-1
 508 547 l 1,19,-1
 429 473 l 1,20,-1
 430 473 l 1,21,22
 472 419 472 419 472 349.5 c 128,-1,23
 472 280 472 280 429 228 c 1,24,-1
 508 154 l 1,25,-1
 447 129 l 1,26,-1
 390 191 l 1,0,1
365.5 259 m 128,-1,28
 402 297 402 297 402 351.5 c 128,-1,29
 402 406 402 406 365.5 444 c 128,-1,30
 329 482 329 482 275 482 c 128,-1,31
 221 482 221 482 185.5 444 c 128,-1,32
 150 406 150 406 150 351.5 c 128,-1,33
 150 297 150 297 185.5 259 c 128,-1,34
 221 221 221 221 275 221 c 128,-1,27
 329 221 329 221 365.5 259 c 128,-1,28
EndSplineSet
EndChar

StartChar: yen
Encoding: 165 165 102
Width: 544
GlyphClass: 2
Flags: W
LayerCount: 2
Fore
SplineSet
294 347 m 1,0,1
 421 624 421 624 421 683 c 2,2,-1
 421 700 l 1,3,-1
 537 700 l 1,4,-1
 537 690 l 1,5,6
 511 671 511 671 458 564 c 0,7,8
 449 545 449 545 420 488 c 0,9,10
 356 363 356 363 329 306 c 1,11,-1
 405 306 l 2,12,13
 449 306 449 306 544 313 c 1,14,-1
 521 245 l 1,15,-1
 328 245 l 1,16,-1
 328 210 l 2,17,18
 328 175 328 175 332.5 103 c 128,-1,19
 337 31 337 31 342 7 c 1,20,-1
 342 0 l 1,21,-1
 214 0 l 1,22,-1
 214 7 l 1,23,24
 228 68 228 68 228 183 c 2,25,-1
 228 245 l 1,26,-1
 149 245 l 2,27,28
 104 245 104 245 10 238 c 1,29,-1
 37 306 l 1,30,-1
 222 306 l 1,31,-1
 132 482 l 1,32,33
 33 671 33 671 2 690 c 1,34,-1
 2 700 l 1,35,-1
 150 700 l 1,36,-1
 150 683 l 2,37,38
 150 644 150 644 182.5 574 c 128,-1,39
 215 504 215 504 231 470 c 128,-1,40
 247 436 247 436 252 429 c 0,41,42
 262 412 262 412 294 347 c 1,0,1
EndSplineSet
EndChar

StartChar: brokenbar
Encoding: 166 166 103
Width: 227
GlyphClass: 2
Flags: W
LayerCount: 2
Fore
SplineSet
147 233 m 1,0,-1
 147 -118 l 1,1,-1
 74 -148 l 1,2,-1
 73 233 l 1,3,-1
 147 233 l 1,0,-1
147 368 m 1,4,-1
 73 368 l 1,5,-1
 73 713 l 1,6,-1
 154 743 l 1,7,8
 147 648 147 648 147 604 c 2,9,-1
 147 368 l 1,4,-1
EndSplineSet
EndChar

StartChar: section
Encoding: 167 167 104
Width: 566
GlyphClass: 2
Flags: W
LayerCount: 2
Fore
SplineSet
329 -101 m 0,0,1
 329 24 329 24 275 106 c 0,2,3
 237 163 237 163 160 238 c 0,4,5
 129 267 129 267 104 298 c 0,6,7
 47 369 47 369 47 466 c 0,8,9
 47 586 47 586 122 651.5 c 128,-1,10
 197 717 197 717 289.5 717 c 128,-1,11
 382 717 382 717 457 684 c 1,12,13
 455 632 455 632 425 587 c 1,14,15
 361 658 361 658 284 658 c 0,16,17
 250 658 250 658 222 647 c 1,18,19
 222 542 222 542 280 470 c 0,20,21
 305 439 305 439 336 410.5 c 128,-1,22
 367 382 367 382 398 353 c 128,-1,23
 429 324 429 324 455 292 c 0,24,25
 513 219 513 219 513 110 c 0,26,27
 513 -19 513 -19 439.5 -99 c 128,-1,28
 366 -179 366 -179 265 -179 c 0,29,30
 219 -179 219 -179 165.5 -162 c 128,-1,31
 112 -145 112 -145 73 -115 c 1,32,33
 76 -54 76 -54 105 -15 c 1,34,35
 192 -114 192 -114 285 -114 c 0,36,37
 309 -114 309 -114 329 -109 c 1,38,39
 329 -105 329 -105 329 -101 c 0,0,1
382 262 m 0,40,41
 359 292 359 292 330.5 319.5 c 128,-1,42
 302 347 302 347 273 376 c 128,-1,43
 244 405 244 405 220 437 c 0,44,45
 168 508 168 508 168 620 c 1,46,47
 117 575 117 575 117 482 c 0,48,49
 117 397 117 397 172 332 c 0,50,51
 197 304 197 304 226 275 c 128,-1,52
 255 246 255 246 284 213 c 128,-1,53
 313 180 313 180 336 142 c 0,54,55
 385 62 385 62 385 -63 c 0,56,57
 385 -72 385 -72 385 -81 c 1,58,59
 436 -21 436 -21 436 86.5 c 128,-1,60
 436 194 436 194 382 262 c 0,40,41
EndSplineSet
EndChar

StartChar: dieresis
Encoding: 168 168 105
Width: 500
GlyphClass: 2
Flags: W
LayerCount: 2
Fore
SplineSet
404 687 m 1,0,1
 411 679 411 679 414.5 657.5 c 128,-1,2
 418 636 418 636 418 625 c 128,-1,3
 418 614 418 614 417 607 c 1,4,-1
 409 600 l 1,5,6
 372 588 372 588 335 585 c 1,7,-1
 323 585 l 1,8,-1
 313 588 l 1,9,10
 298 618 298 618 298 668 c 1,11,-1
 308 676 l 1,12,13
 344 689 344 689 379 691 c 1,14,-1
 396 691 l 1,15,-1
 404 687 l 1,0,1
188 678 m 1,16,17
 195 670 195 670 198.5 648.5 c 128,-1,18
 202 627 202 627 202 616 c 128,-1,19
 202 605 202 605 201 598 c 1,20,-1
 193 591 l 1,21,22
 157 579 157 579 120 576 c 1,23,-1
 107 576 l 1,24,-1
 97 579 l 1,25,26
 82 609 82 609 82 658 c 1,27,-1
 92 667 l 1,28,29
 130 680 130 680 164 682 c 1,30,-1
 180 682 l 1,31,-1
 188 678 l 1,16,17
EndSplineSet
EndChar

StartChar: copyright
Encoding: 169 169 106
Width: 758
GlyphClass: 2
Flags: W
LayerCount: 2
Fore
SplineSet
625.5 607.5 m 128,-1,1
 727 504 727 504 727 356 c 128,-1,2
 727 208 727 208 626.5 103.5 c 128,-1,3
 526 -1 526 -1 381 -1 c 128,-1,4
 236 -1 236 -1 133.5 103.5 c 128,-1,5
 31 208 31 208 31 355 c 128,-1,6
 31 502 31 502 133.5 606.5 c 128,-1,7
 236 711 236 711 380 711 c 128,-1,0
 524 711 524 711 625.5 607.5 c 128,-1,1
582 143 m 128,-1,9
 667 230 667 230 667 354 c 128,-1,10
 667 478 667 478 583.5 566 c 128,-1,11
 500 654 500 654 381 654 c 128,-1,12
 262 654 262 654 178 566 c 128,-1,13
 94 478 94 478 94 354.5 c 128,-1,14
 94 231 94 231 178 143.5 c 128,-1,15
 262 56 262 56 379.5 56 c 128,-1,8
 497 56 497 56 582 143 c 128,-1,9
310.5 450 m 128,-1,17
 296 412 296 412 296 359.5 c 128,-1,18
 296 307 296 307 318 268 c 128,-1,19
 340 229 340 229 387 229 c 0,20,21
 419 229 419 229 462 243.5 c 128,-1,22
 505 258 505 258 517 267 c 1,23,-1
 536 237 l 1,24,25
 436 170 436 170 380 170 c 0,26,27
 298 170 298 170 250.5 222 c 128,-1,28
 203 274 203 274 203 358 c 128,-1,29
 203 442 203 442 265 498.5 c 128,-1,30
 327 555 327 555 404 555 c 128,-1,31
 481 555 481 555 531 522 c 1,32,33
 501 475 501 475 491 465 c 1,34,35
 435 505 435 505 388 505 c 0,36,37
 371 505 371 505 351 502 c 1,38,16
 325 488 325 488 310.5 450 c 128,-1,17
EndSplineSet
EndChar

StartChar: ordfeminine
Encoding: 170 170 107
Width: 355
GlyphClass: 2
Flags: W
LayerCount: 2
Fore
SplineSet
213 528 m 1,0,1
 190 537 190 537 159.5 537 c 128,-1,2
 129 537 129 537 115 526 c 1,3,4
 107 510 107 510 107 491 c 0,5,6
 107 443 107 443 150 443 c 0,7,8
 166 443 166 443 185.5 453 c 128,-1,9
 205 463 205 463 213 475 c 1,10,-1
 213 528 l 1,0,1
223 438 m 1,11,12
 179 399 179 399 132.5 399 c 128,-1,13
 86 399 86 399 57.5 420 c 128,-1,14
 29 441 29 441 29 488 c 0,15,16
 29 575 29 575 157 575 c 1,17,-1
 214 573 l 1,18,-1
 214 605 l 2,19,20
 214 635 214 635 198.5 654 c 128,-1,21
 183 673 183 673 155 673 c 128,-1,22
 127 673 127 673 66 617 c 1,23,24
 40 650 40 650 37 687 c 1,25,26
 108 709 108 709 164.5 709 c 128,-1,27
 221 709 221 709 254.5 682.5 c 128,-1,28
 288 656 288 656 288 607 c 2,29,-1
 288 505 l 2,30,31
 288 442 288 442 318 420 c 1,32,-1
 320 413 l 1,33,-1
 237 398 l 1,34,35
 228 417 228 417 223 438 c 1,11,12
EndSplineSet
EndChar

StartChar: guillemotleft
Encoding: 171 171 108
Width: 574
GlyphClass: 2
Flags: W
LayerCount: 2
Fore
SplineSet
67 268 m 1,0,-1
 63 283 l 1,1,2
 112 314 112 314 120 321 c 2,3,-1
 269 456 l 1,4,-1
 306 421 l 1,5,-1
 286 398 l 1,6,-1
 169 272 l 1,7,-1
 306 122 l 1,8,-1
 268 85 l 1,9,10
 264 89 264 89 256 98 c 0,11,12
 237 118 237 118 227 126 c 2,13,-1
 102 238 l 1,14,-1
 67 268 l 1,0,-1
273 268 m 1,15,-1
 269 283 l 1,16,17
 318 314 318 314 326 321 c 2,18,-1
 475 456 l 1,19,-1
 512 421 l 1,20,-1
 492 398 l 1,21,-1
 375 272 l 1,22,-1
 512 122 l 1,23,-1
 474 85 l 1,24,25
 470 89 470 89 462 98 c 0,26,27
 443 118 443 118 433 126 c 2,28,-1
 308 238 l 1,29,-1
 273 268 l 1,15,-1
EndSplineSet
EndChar

StartChar: logicalnot
Encoding: 172 172 109
Width: 569
GlyphClass: 2
Flags: W
LayerCount: 2
Fore
SplineSet
565 142 m 1,0,-1
 495 142 l 1,1,-1
 495 359 l 1,2,-1
 4 359 l 1,3,-1
 4 427 l 1,4,-1
 565 427 l 1,5,-1
 565 142 l 1,0,-1
EndSplineSet
EndChar

StartChar: uni00AD
Encoding: 173 173 110
Width: 354
GlyphClass: 2
Flags: W
LayerCount: 2
Fore
SplineSet
38 323 m 1,0,1
 78 314 78 314 128 314 c 2,2,-1
 214 315 l 2,3,4
 236 315 236 315 282.5 317 c 128,-1,5
 329 319 329 319 353 319 c 1,6,-1
 323 241 l 1,7,-1
 316 241 l 1,8,9
 248 250 248 250 135 250 c 1,10,-1
 1 244 l 1,11,-1
 31 323 l 1,12,-1
 38 323 l 1,0,1
EndSplineSet
EndChar

StartChar: registered
Encoding: 174 174 111
Width: 758
GlyphClass: 2
Flags: W
LayerCount: 2
Fore
SplineSet
625.5 607.5 m 128,-1,1
 727 504 727 504 727 356 c 128,-1,2
 727 208 727 208 626.5 103.5 c 128,-1,3
 526 -1 526 -1 381 -1 c 128,-1,4
 236 -1 236 -1 133.5 103.5 c 128,-1,5
 31 208 31 208 31 355 c 128,-1,6
 31 502 31 502 133.5 606.5 c 128,-1,7
 236 711 236 711 380 711 c 128,-1,0
 524 711 524 711 625.5 607.5 c 128,-1,1
582 143 m 128,-1,9
 667 230 667 230 667 354 c 128,-1,10
 667 478 667 478 583.5 566 c 128,-1,11
 500 654 500 654 381 654 c 128,-1,12
 262 654 262 654 178 566 c 128,-1,13
 94 478 94 478 94 354.5 c 128,-1,14
 94 231 94 231 178 143.5 c 128,-1,15
 262 56 262 56 379.5 56 c 128,-1,8
 497 56 497 56 582 143 c 128,-1,9
274 550 m 1,16,-1
 389 551 l 2,17,18
 456 551 456 551 495 533 c 128,-1,19
 534 515 534 515 534 465 c 128,-1,20
 534 415 534 415 501 384 c 128,-1,21
 468 353 468 353 419 347 c 1,22,-1
 481 269 l 2,23,24
 543 191 543 191 574 181 c 1,25,-1
 574 176 l 1,26,-1
 460 176 l 1,27,28
 436 210 436 210 345 345 c 1,29,30
 333 345 333 345 325 347 c 1,31,-1
 325 263 l 2,32,33
 325 203 325 203 332 180 c 1,34,-1
 332 176 l 1,35,-1
 231 176 l 1,36,-1
 231 180 l 1,37,38
 242 208 242 208 242 258 c 2,39,-1
 242 465 l 2,40,41
 242 523 242 523 233 548 c 1,42,-1
 233 551 l 1,43,-1
 274 550 l 1,16,-1
426 508.5 m 128,-1,45
 409 524 409 524 373 524 c 128,-1,46
 337 524 337 524 326 522 c 1,47,48
 325 510 325 510 325 372 c 1,49,50
 338 371 338 371 362 371 c 0,51,52
 407 371 407 371 425 391.5 c 128,-1,53
 443 412 443 412 443 452.5 c 128,-1,44
 443 493 443 493 426 508.5 c 128,-1,45
EndSplineSet
EndChar

StartChar: macron
Encoding: 175 175 112
Width: 500
GlyphClass: 2
Flags: W
LayerCount: 2
Fore
SplineSet
387 597 m 1,0,-1
 113 597 l 1,1,-1
 113 674 l 1,2,-1
 387 674 l 1,3,-1
 387 597 l 1,0,-1
EndSplineSet
EndChar

StartChar: degree
Encoding: 176 176 113
Width: 361
GlyphClass: 2
Flags: W
LayerCount: 2
Fore
SplineSet
180 707 m 128,-1,1
 242 707 242 707 282 668 c 128,-1,2
 322 629 322 629 322 566.5 c 128,-1,3
 322 504 322 504 283.5 464 c 128,-1,4
 245 424 245 424 182.5 424 c 128,-1,5
 120 424 120 424 79.5 462.5 c 128,-1,6
 39 501 39 501 39 563.5 c 128,-1,7
 39 626 39 626 78.5 666.5 c 128,-1,0
 118 707 118 707 180 707 c 128,-1,1
111.5 499 m 128,-1,9
 138 479 138 479 190 479 c 128,-1,10
 242 479 242 479 267 504 c 1,11,12
 277 525 277 525 277 554 c 0,13,14
 277 652 277 652 174 652 c 0,15,16
 120 652 120 652 95 625 c 1,17,18
 85 604 85 604 85 561.5 c 128,-1,8
 85 519 85 519 111.5 499 c 128,-1,9
EndSplineSet
EndChar

StartChar: plusminus
Encoding: 177 177 114
Width: 600
GlyphClass: 2
Flags: W
LayerCount: 2
Fore
SplineSet
330 448 m 1,0,-1
 558 448 l 1,1,-1
 557 382 l 1,2,-1
 330 382 l 1,3,-1
 330 162 l 1,4,-1
 262 162 l 1,5,-1
 262 382 l 1,6,-1
 42 382 l 1,7,-1
 43 449 l 1,8,-1
 262 448 l 1,9,-1
 263 668 l 1,10,-1
 330 667 l 1,11,-1
 330 448 l 1,0,-1
558 77 m 1,12,-1
 557 11 l 1,13,-1
 42 11 l 1,14,-1
 43 78 l 1,15,-1
 558 77 l 1,12,-1
EndSplineSet
EndChar

StartChar: twosuperior
Encoding: 178 178 115
Width: 361
GlyphClass: 2
Flags: W
LayerCount: 2
Fore
SplineSet
181 668 m 0,0,1
 158 668 158 668 125.5 645 c 128,-1,2
 93 622 93 622 71 596 c 1,3,4
 41 628 41 628 39 675 c 1,5,6
 113 712 113 712 178.5 712 c 128,-1,7
 244 712 244 712 276.5 687 c 128,-1,8
 309 662 309 662 309 623 c 128,-1,9
 309 584 309 584 293 547 c 128,-1,10
 277 510 277 510 243 468 c 0,11,12
 191 405 191 405 119 333 c 1,13,-1
 183 333 l 1,14,15
 293 339 293 339 322 364 c 1,16,-1
 327 360 l 1,17,-1
 303 279 l 1,18,-1
 45 279 l 1,19,-1
 33 319 l 1,20,21
 152 438 152 438 186 492 c 0,22,23
 227 559 227 559 227 613.5 c 128,-1,24
 227 668 227 668 181 668 c 0,0,1
EndSplineSet
EndChar

StartChar: threesuperior
Encoding: 179 179 116
Width: 338
GlyphClass: 2
Flags: W
LayerCount: 2
Fore
SplineSet
208 521 m 1,0,1
 312 507 312 507 312 413 c 0,2,3
 312 354 312 354 265 314 c 128,-1,4
 218 274 218 274 147.5 274 c 128,-1,5
 77 274 77 274 24 308 c 1,6,7
 24 312 24 312 24 315 c 0,8,9
 24 352 24 352 42 371 c 1,10,11
 101 323 101 323 141.5 323 c 128,-1,12
 182 323 182 323 201 333 c 1,13,14
 230 356 230 356 230 417 c 0,15,16
 230 456 230 456 210 472.5 c 128,-1,17
 190 489 190 489 149 489 c 128,-1,18
 108 489 108 489 90 486 c 1,19,-1
 87 486 l 1,20,-1
 77 528 l 1,21,-1
 129 528 l 2,22,23
 161 528 161 528 182 551.5 c 128,-1,24
 203 575 203 575 203 606 c 0,25,26
 203 670 203 670 150 670 c 0,27,28
 101 670 101 670 50 612 c 1,29,30
 30 644 30 644 27 688 c 1,31,32
 97 712 97 712 152 712 c 128,-1,33
 207 712 207 712 245 691 c 128,-1,34
 283 670 283 670 283 627 c 128,-1,35
 283 584 283 584 258.5 555.5 c 128,-1,36
 234 527 234 527 208 521 c 1,0,1
EndSplineSet
EndChar

StartChar: acute
Encoding: 180 180 117
Width: 500
GlyphClass: 2
Flags: W
LayerCount: 2
Fore
SplineSet
355 674 m 1,0,1
 257 579 257 579 168 530 c 1,2,-1
 145 556 l 1,3,4
 233 636 233 636 287 732 c 1,5,6
 330 715 330 715 355 674 c 1,0,1
EndSplineSet
EndChar

StartChar: mu
Encoding: 181 181 118
AltUni2: 0003bc.ffffffff.0
Width: 605
GlyphClass: 2
Flags: W
LayerCount: 2
Fore
SplineSet
319 10.5 m 128,-1,1
 280 -11 280 -11 238 -11 c 128,-1,2
 196 -11 196 -11 163 2 c 1,3,4
 174 -75 174 -75 193 -115 c 0,5,6
 220 -172 220 -172 269 -201 c 1,7,-1
 271 -213 l 1,8,-1
 111 -240 l 1,9,10
 88 -36 88 -36 88 90 c 2,11,-1
 88 310 l 2,12,13
 88 405 88 405 58 473 c 1,14,-1
 58 480 l 1,15,-1
 197 480 l 1,16,-1
 197 473 l 1,17,18
 182 420 182 420 182 340 c 2,19,-1
 182 183 l 2,20,21
 182 123 182 123 197 97 c 128,-1,22
 212 71 212 71 270 71 c 128,-1,23
 328 71 328 71 406 126 c 1,24,-1
 406 310 l 2,25,26
 406 407 406 407 377 473 c 1,27,-1
 377 480 l 1,28,-1
 515 480 l 1,29,-1
 515 473 l 1,30,31
 500 420 500 420 500 340 c 2,32,-1
 500 171 l 2,33,34
 500 127 500 127 515 84.5 c 128,-1,35
 530 42 530 42 550 28 c 1,36,-1
 551 16 l 1,37,-1
 434 -12 l 1,38,39
 417 34 417 34 410 76 c 1,40,0
 358 32 358 32 319 10.5 c 128,-1,1
EndSplineSet
EndChar

StartChar: paragraph
Encoding: 182 182 119
Width: 660
GlyphClass: 2
Flags: W
LayerCount: 2
Fore
SplineSet
416 -109 m 2,0,-1
 416 648 l 1,1,-1
 327 648 l 1,2,3
 324 418 324 418 324 141 c 128,-1,4
 324 -136 324 -136 328 -178 c 1,5,-1
 244 -194 l 1,6,-1
 240 -187 l 1,7,8
 251 -110 251 -110 251 -39 c 2,9,-1
 251 213 l 1,10,11
 139 214 139 214 72 285 c 128,-1,12
 5 356 5 356 5 458.5 c 128,-1,13
 5 561 5 561 73.5 627 c 128,-1,14
 142 693 142 693 253 693 c 1,15,-1
 647 698 l 1,16,-1
 622 634 l 1,17,-1
 615 634 l 1,18,19
 567 646 567 646 489 648 c 1,20,-1
 489 -113 l 2,21,22
 489 -206 489 -206 493 -248 c 1,23,-1
 409 -264 l 1,24,-1
 405 -257 l 1,25,26
 416 -180 416 -180 416 -109 c 2,0,-1
EndSplineSet
EndChar

StartChar: periodcentered
Encoding: 183 183 120
Width: 294
GlyphClass: 2
Flags: W
LayerCount: 2
Fore
SplineSet
206 344 m 1,0,1
 223 329 223 329 223 275 c 0,2,3
 223 262 223 262 221 251 c 1,4,-1
 211 242 l 1,5,6
 161 227 161 227 98 223 c 1,7,-1
 86 228 l 1,8,9
 69 261 69 261 69 311 c 0,10,11
 69 317 69 317 69 322 c 1,12,-1
 79 331 l 1,13,14
 134 350 134 350 185 350 c 0,15,16
 190 350 190 350 195 350 c 1,17,-1
 206 344 l 1,0,1
EndSplineSet
EndChar

StartChar: cedilla
Encoding: 184 184 121
Width: 500
GlyphClass: 2
Flags: W
LayerCount: 2
Fore
SplineSet
430.5 -84.5 m 128,-1,1
 454 -103 454 -103 454 -140.5 c 128,-1,2
 454 -178 454 -178 422 -201 c 128,-1,3
 390 -224 390 -224 345 -224 c 0,4,5
 322 -224 322 -224 289 -213.5 c 128,-1,6
 256 -203 256 -203 243 -195 c 1,7,-1
 259 -163 l 1,8,9
 293 -180 293 -180 326 -180 c 0,10,11
 378 -180 378 -180 378 -135 c 0,12,13
 378 -114 378 -114 366 -102 c 1,14,15
 351 -95 351 -95 330.5 -95 c 128,-1,16
 310 -95 310 -95 289 -99 c 1,17,-1
 283 -90 l 1,18,-1
 325 -2 l 1,19,-1
 379 -9 l 1,20,-1
 343 -68 l 1,21,22
 353 -65 353 -65 380 -65.5 c 128,-1,0
 407 -66 407 -66 430.5 -84.5 c 128,-1,1
EndSplineSet
EndChar

StartChar: onesuperior
Encoding: 185 185 122
Width: 262
GlyphClass: 2
Flags: W
LayerCount: 2
Fore
SplineSet
191 631 m 2,0,-1
 191 398 l 2,1,2
 191 314 191 314 200 276 c 1,3,-1
 200 272 l 1,4,-1
 102 272 l 1,5,-1
 102 276 l 1,6,7
 112 305 112 305 112 393 c 2,8,-1
 112 572 l 2,9,10
 112 614 112 614 109 629 c 1,11,12
 62 618 62 618 23 617 c 1,13,-1
 16 657 l 1,14,15
 91 673 91 673 129 700 c 1,16,-1
 194 700 l 1,17,18
 191 649 191 649 191 631 c 2,0,-1
EndSplineSet
EndChar

StartChar: ordmasculine
Encoding: 186 186 123
Width: 393
GlyphClass: 2
Flags: W
LayerCount: 2
Fore
SplineSet
80.5 439 m 128,-1,1
 40 480 40 480 40 547 c 128,-1,2
 40 614 40 614 86.5 662 c 128,-1,3
 133 710 133 710 204.5 710 c 128,-1,4
 276 710 276 710 314.5 670 c 128,-1,5
 353 630 353 630 353 562 c 128,-1,6
 353 494 353 494 306.5 446 c 128,-1,7
 260 398 260 398 190.5 398 c 128,-1,0
 121 398 121 398 80.5 439 c 128,-1,1
251 450 m 1,8,9
 275 480 275 480 275 542.5 c 128,-1,10
 275 605 275 605 256.5 637 c 128,-1,11
 238 669 238 669 191 669 c 0,12,13
 159 669 159 669 143 657 c 1,14,15
 118 627 118 627 118 562 c 0,16,17
 118 438 118 438 207 438 c 0,18,19
 235 438 235 438 251 450 c 1,8,9
EndSplineSet
EndChar

StartChar: guillemotright
Encoding: 187 187 124
Width: 574
GlyphClass: 2
Flags: W
LayerCount: 2
Fore
SplineSet
511 283 m 1,0,-1
 507 268 l 1,1,-1
 472 238 l 1,2,3
 334 114 334 114 322 101.5 c 128,-1,4
 310 89 310 89 306 85 c 1,5,-1
 268 122 l 1,6,-1
 405 272 l 1,7,-1
 288 398 l 1,8,-1
 268 421 l 1,9,-1
 305 456 l 1,10,-1
 454 321 l 2,11,12
 462 314 462 314 511 283 c 1,0,-1
305 283 m 1,13,-1
 301 268 l 1,14,-1
 266 238 l 1,15,16
 128 114 128 114 116 101.5 c 128,-1,17
 104 89 104 89 100 85 c 1,18,-1
 62 122 l 1,19,-1
 199 272 l 1,20,-1
 82 398 l 1,21,-1
 62 421 l 1,22,-1
 99 456 l 1,23,-1
 248 321 l 2,24,25
 256 314 256 314 305 283 c 1,13,-1
EndSplineSet
EndChar

StartChar: onequarter
Encoding: 188 188 125
Width: 774
GlyphClass: 2
Flags: W
LayerCount: 2
Fore
SplineSet
671 101 m 1,0,1
 671 39 671 39 680 3 c 1,2,-1
 680 0 l 1,3,-1
 585 0 l 1,4,-1
 585 3 l 1,5,6
 590 29 590 29 592 96 c 1,7,-1
 592 101 l 1,8,9
 510 101 510 101 427 101 c 1,10,-1
 402 145 l 1,11,12
 498 309 498 309 572 422 c 1,13,-1
 672 429 l 1,14,15
 670 375 670 375 670 159 c 1,16,17
 686 159 686 159 716.5 161 c 128,-1,18
 747 163 747 163 749 163 c 1,19,-1
 737 101 l 1,20,-1
 671 101 l 1,0,1
71 -13 m 1,21,22
 134 50 134 50 360 394 c 0,23,24
 431 501 431 501 567 719 c 1,25,-1
 649 725 l 1,26,-1
 655 718 l 1,27,28
 587 650 587 650 380 330 c 0,29,30
 264 152 264 152 226 93 c 1,31,-1
 161 -14 l 1,32,-1
 77 -20 l 1,33,-1
 71 -13 l 1,21,22
191 631 m 2,34,-1
 191 398 l 2,35,36
 191 314 191 314 200 276 c 1,37,-1
 200 272 l 1,38,-1
 102 272 l 1,39,-1
 102 276 l 1,40,41
 112 305 112 305 112 393 c 2,42,-1
 112 572 l 2,43,44
 112 614 112 614 109 629 c 1,45,46
 62 618 62 618 23 617 c 1,47,-1
 16 657 l 1,48,49
 91 673 91 673 129 700 c 1,50,-1
 194 700 l 1,51,52
 191 649 191 649 191 631 c 2,34,-1
593 158 m 1,53,-1
 593 373 l 1,54,55
 531 276 531 276 464 156 c 1,56,57
 507 156 507 156 593 158 c 1,53,-1
EndSplineSet
EndChar

StartChar: onehalf
Encoding: 189 189 126
Width: 807
GlyphClass: 2
Flags: W
LayerCount: 2
Fore
SplineSet
627 389 m 0,0,1
 604 389 604 389 571.5 366 c 128,-1,2
 539 343 539 343 517 317 c 1,3,4
 487 349 487 349 485 396 c 1,5,6
 559 433 559 433 624.5 433 c 128,-1,7
 690 433 690 433 722.5 408 c 128,-1,8
 755 383 755 383 755 344 c 128,-1,9
 755 305 755 305 739 268 c 128,-1,10
 723 231 723 231 689 190 c 0,11,12
 637 126 637 126 565 54 c 1,13,-1
 629 54 l 1,14,15
 739 60 739 60 768 85 c 1,16,-1
 773 81 l 1,17,-1
 749 0 l 1,18,-1
 491 0 l 1,19,-1
 479 40 l 1,20,21
 598 159 598 159 632 213 c 0,22,23
 673 280 673 280 673 334.5 c 128,-1,24
 673 389 673 389 627 389 c 0,0,1
69 -13 m 1,25,26
 132 50 132 50 358 394 c 0,27,28
 429 501 429 501 565 719 c 1,29,-1
 647 725 l 1,30,-1
 653 718 l 1,31,32
 585 650 585 650 378 330 c 0,33,34
 262 152 262 152 224 93 c 1,35,-1
 159 -14 l 1,36,-1
 75 -20 l 1,37,-1
 69 -13 l 1,25,26
191 631 m 2,38,-1
 191 398 l 2,39,40
 191 314 191 314 200 276 c 1,41,-1
 200 272 l 1,42,-1
 102 272 l 1,43,-1
 102 276 l 1,44,45
 112 305 112 305 112 393 c 2,46,-1
 112 572 l 2,47,48
 112 614 112 614 109 629 c 1,49,50
 62 618 62 618 23 617 c 1,51,-1
 16 657 l 1,52,53
 91 673 91 673 129 700 c 1,54,-1
 194 700 l 1,55,56
 191 649 191 649 191 631 c 2,38,-1
EndSplineSet
EndChar

StartChar: threequarters
Encoding: 190 190 127
Width: 875
GlyphClass: 2
Flags: W
LayerCount: 2
Fore
SplineSet
772 101 m 1,0,1
 772 39 772 39 781 3 c 1,2,-1
 781 0 l 1,3,-1
 686 0 l 1,4,-1
 686 3 l 1,5,6
 691 29 691 29 693 96 c 1,7,-1
 693 101 l 1,8,9
 610 101 610 101 528 101 c 1,10,-1
 503 145 l 1,11,12
 599 309 599 309 673 422 c 1,13,-1
 773 429 l 1,14,15
 771 375 771 375 771 159 c 1,16,17
 787 159 787 159 817.5 161 c 128,-1,18
 848 163 848 163 850 163 c 1,19,-1
 838 101 l 1,20,-1
 772 101 l 1,0,1
208 521 m 1,21,22
 312 507 312 507 312 413 c 0,23,24
 312 354 312 354 265 314 c 128,-1,25
 218 274 218 274 147.5 274 c 128,-1,26
 77 274 77 274 24 308 c 1,27,28
 24 312 24 312 24 315 c 0,29,30
 24 352 24 352 42 371 c 1,31,32
 101 323 101 323 141.5 323 c 128,-1,33
 182 323 182 323 201 333 c 1,34,35
 230 356 230 356 230 417 c 0,36,37
 230 456 230 456 210 472.5 c 128,-1,38
 190 489 190 489 149 489 c 128,-1,39
 108 489 108 489 90 486 c 1,40,-1
 87 486 l 1,41,-1
 77 528 l 1,42,-1
 129 528 l 2,43,44
 161 528 161 528 182 551.5 c 128,-1,45
 203 575 203 575 203 606 c 0,46,47
 203 670 203 670 150 670 c 0,48,49
 101 670 101 670 50 612 c 1,50,51
 30 644 30 644 27 688 c 1,52,53
 97 712 97 712 152 712 c 128,-1,54
 207 712 207 712 245 691 c 128,-1,55
 283 670 283 670 283 627 c 128,-1,56
 283 584 283 584 258.5 555.5 c 128,-1,57
 234 527 234 527 208 521 c 1,21,22
138 -13 m 1,58,59
 201 50 201 50 427 394 c 0,60,61
 498 501 498 501 634 719 c 1,62,-1
 716 725 l 1,63,-1
 722 718 l 1,64,65
 654 650 654 650 446 330 c 0,66,67
 331 152 331 152 293 93 c 1,68,-1
 228 -14 l 1,69,-1
 144 -20 l 1,70,-1
 138 -13 l 1,58,59
694 158 m 1,71,-1
 694 373 l 1,72,73
 632 276 632 276 565 156 c 1,74,75
 608 156 608 156 694 158 c 1,71,-1
EndSplineSet
EndChar

StartChar: questiondown
Encoding: 191 191 128
Width: 430
GlyphClass: 2
Flags: W
LayerCount: 2
Fore
SplineSet
178 74.5 m 128,-1,1
 133 14 133 14 133 -42 c 0,2,3
 133 -154 133 -154 227 -154 c 0,4,5
 292 -154 292 -154 361 -97 c 1,6,7
 385 -140 385 -140 385 -193 c 0,8,9
 385 -199 385 -199 385 -205 c 1,10,11
 312 -232 312 -232 224.5 -232 c 128,-1,12
 137 -232 137 -232 87 -189.5 c 128,-1,13
 37 -147 37 -147 37 -64 c 0,14,15
 37 -15 37 -15 56.5 30 c 128,-1,16
 76 75 76 75 100 103.5 c 128,-1,17
 124 132 124 132 157 156 c 1,18,19
 196 186 196 186 231 203 c 1,20,21
 231 208 231 208 231 226 c 128,-1,22
 231 244 231 244 220 280 c 1,23,-1
 220 287 l 1,24,25
 240 291 240 291 263 291 c 128,-1,26
 286 291 286 291 310 287 c 1,27,-1
 310 280 l 1,28,29
 299 233 299 233 299 214 c 128,-1,30
 299 195 299 195 300 189 c 1,31,-1
 288 180 l 1,32,0
 223 135 223 135 178 74.5 c 128,-1,1
218 395 m 1,33,34
 205 408 205 408 205 452 c 0,35,36
 205 462 205 462 206 470 c 1,37,-1
 214 478 l 1,38,39
 248 488 248 488 290 491 c 1,40,-1
 300 487 l 1,41,42
 312 462 312 462 312 443 c 128,-1,43
 312 424 312 424 310 412 c 1,44,-1
 302 404 l 1,45,46
 269 393 269 393 227 390 c 1,47,-1
 218 395 l 1,33,34
EndSplineSet
EndChar

StartChar: Agrave
Encoding: 192 192 129
Width: 562
GlyphClass: 2
Flags: W
LayerCount: 2
Fore
SplineSet
361 784 m 1,0,-1
 351 751 l 1,1,2
 237 760 237 760 122 806 c 1,3,4
 128 852 128 852 159 887 c 1,5,6
 246 821 246 821 361 784 c 1,0,-1
364 244 m 1,7,8
 326 245 326 245 255.5 245 c 128,-1,9
 185 245 185 245 148 244 c 1,10,11
 121 129 121 129 115 94 c 128,-1,12
 109 59 109 59 109 17 c 2,13,-1
 109 0 l 1,14,-1
 -27 0 l 1,15,-1
 -27 10 l 1,16,17
 16 43 16 43 89 280 c 0,18,19
 208 664 208 664 211 701 c 1,20,-1
 327 713 l 1,21,22
 327 679 327 679 388 498.5 c 128,-1,23
 449 318 449 318 488 214 c 128,-1,24
 527 110 527 110 547.5 71 c 128,-1,25
 568 32 568 32 593 10 c 1,26,-1
 593 0 l 1,27,-1
 425 0 l 1,28,-1
 425 17 l 2,29,30
 425 60 425 60 404 124 c 0,31,32
 400 135 400 135 391.5 161 c 128,-1,33
 383 187 383 187 376.5 204 c 128,-1,34
 370 221 370 221 364 244 c 1,7,8
162 301 m 1,35,-1
 346 301 l 1,36,37
 329 358 329 358 294.5 480 c 128,-1,38
 260 602 260 602 253 626 c 1,39,40
 239 592 239 592 200.5 447 c 128,-1,41
 162 302 162 302 162 301 c 1,35,-1
EndSplineSet
EndChar

StartChar: Aacute
Encoding: 193 193 130
Width: 562
GlyphClass: 2
Flags: W
LayerCount: 2
Fore
SplineSet
364 244 m 1,0,1
 326 245 326 245 255.5 245 c 128,-1,2
 185 245 185 245 148 244 c 1,3,4
 121 129 121 129 115 94 c 128,-1,5
 109 59 109 59 109 17 c 2,6,-1
 109 0 l 1,7,-1
 -27 0 l 1,8,-1
 -27 10 l 1,9,10
 16 43 16 43 89 280 c 0,11,12
 208 664 208 664 211 701 c 1,13,-1
 327 713 l 1,14,15
 327 679 327 679 388 498.5 c 128,-1,16
 449 318 449 318 488 214 c 128,-1,17
 527 110 527 110 547.5 71 c 128,-1,18
 568 32 568 32 593 10 c 1,19,-1
 593 0 l 1,20,-1
 425 0 l 1,21,-1
 425 17 l 2,22,23
 425 60 425 60 404 124 c 0,24,25
 400 135 400 135 391.5 161 c 128,-1,26
 383 187 383 187 376.5 204 c 128,-1,27
 370 221 370 221 364 244 c 1,0,1
162 301 m 1,28,-1
 346 301 l 1,29,30
 329 358 329 358 294.5 480 c 128,-1,31
 260 602 260 602 253 626 c 1,32,33
 239 592 239 592 200.5 447 c 128,-1,34
 162 302 162 302 162 301 c 1,28,-1
214 751 m 1,35,-1
 204 784 l 1,36,37
 319 821 319 821 406 887 c 1,38,39
 437 852 437 852 443 806 c 1,40,41
 328 760 328 760 214 751 c 1,35,-1
EndSplineSet
EndChar

StartChar: Acircumflex
Encoding: 194 194 131
Width: 562
GlyphClass: 2
Flags: W
LayerCount: 2
Fore
SplineSet
225 903 m 1,0,-1
 305 903 l 1,1,2
 331 850 331 850 380 805 c 0,3,4
 397 789 397 789 430 761 c 1,5,-1
 402 730 l 1,6,7
 331 771 331 771 262 845 c 1,8,9
 196 779 196 779 134 735 c 1,10,-1
 105 765 l 1,11,12
 192 841 192 841 225 903 c 1,0,-1
364 244 m 1,13,14
 326 245 326 245 255.5 245 c 128,-1,15
 185 245 185 245 148 244 c 1,16,17
 121 129 121 129 115 94 c 128,-1,18
 109 59 109 59 109 17 c 2,19,-1
 109 0 l 1,20,-1
 -27 0 l 1,21,-1
 -27 10 l 1,22,23
 16 43 16 43 89 280 c 0,24,25
 208 664 208 664 211 701 c 1,26,-1
 327 713 l 1,27,28
 327 679 327 679 388 498.5 c 128,-1,29
 449 318 449 318 488 214 c 128,-1,30
 527 110 527 110 547.5 71 c 128,-1,31
 568 32 568 32 593 10 c 1,32,-1
 593 0 l 1,33,-1
 425 0 l 1,34,-1
 425 17 l 2,35,36
 425 60 425 60 404 124 c 0,37,38
 400 135 400 135 391.5 161 c 128,-1,39
 383 187 383 187 376.5 204 c 128,-1,40
 370 221 370 221 364 244 c 1,13,14
162 301 m 1,41,-1
 346 301 l 1,42,43
 329 358 329 358 294.5 480 c 128,-1,44
 260 602 260 602 253 626 c 1,45,46
 239 592 239 592 200.5 447 c 128,-1,47
 162 302 162 302 162 301 c 1,41,-1
EndSplineSet
EndChar

StartChar: Atilde
Encoding: 195 195 132
Width: 562
GlyphClass: 2
Flags: W
LayerCount: 2
Fore
SplineSet
353 781 m 0,0,1
 329 781 329 781 278.5 805 c 128,-1,2
 228 829 228 829 203.5 829 c 128,-1,3
 179 829 179 829 161 820.5 c 128,-1,4
 143 812 143 812 116 791 c 1,5,-1
 96 809 l 1,6,7
 120 839 120 839 156.5 871.5 c 128,-1,8
 193 904 193 904 215.5 904 c 128,-1,9
 238 904 238 904 286.5 882.5 c 128,-1,10
 335 861 335 861 356 861 c 0,11,12
 395 861 395 861 448 898 c 1,13,-1
 467 881 l 1,14,15
 390 781 390 781 353 781 c 0,0,1
364 244 m 1,16,17
 326 245 326 245 255.5 245 c 128,-1,18
 185 245 185 245 148 244 c 1,19,20
 121 129 121 129 115 94 c 128,-1,21
 109 59 109 59 109 17 c 2,22,-1
 109 0 l 1,23,-1
 -27 0 l 1,24,-1
 -27 10 l 1,25,26
 16 43 16 43 89 280 c 0,27,28
 208 664 208 664 211 701 c 1,29,-1
 327 713 l 1,30,31
 327 679 327 679 388 498.5 c 128,-1,32
 449 318 449 318 488 214 c 128,-1,33
 527 110 527 110 547.5 71 c 128,-1,34
 568 32 568 32 593 10 c 1,35,-1
 593 0 l 1,36,-1
 425 0 l 1,37,-1
 425 17 l 2,38,39
 425 60 425 60 404 124 c 0,40,41
 400 135 400 135 391.5 161 c 128,-1,42
 383 187 383 187 376.5 204 c 128,-1,43
 370 221 370 221 364 244 c 1,16,17
162 301 m 1,44,-1
 346 301 l 1,45,46
 329 358 329 358 294.5 480 c 128,-1,47
 260 602 260 602 253 626 c 1,48,49
 239 592 239 592 200.5 447 c 128,-1,50
 162 302 162 302 162 301 c 1,44,-1
EndSplineSet
EndChar

StartChar: Adieresis
Encoding: 196 196 133
Width: 595
GlyphClass: 2
Flags: W
LayerCount: 2
Fore
SplineSet
373 244 m 1,0,1
 335 245 335 245 264.5 245 c 128,-1,2
 194 245 194 245 157 244 c 1,3,4
 130 129 130 129 124 94 c 128,-1,5
 118 59 118 59 118 17 c 2,6,-1
 118 0 l 1,7,-1
 -18 0 l 1,8,-1
 -18 10 l 1,9,10
 25 43 25 43 98 280 c 0,11,12
 217 664 217 664 220 701 c 1,13,-1
 336 713 l 1,14,15
 336 679 336 679 397 498.5 c 128,-1,16
 458 318 458 318 497 214 c 128,-1,17
 536 110 536 110 556.5 71 c 128,-1,18
 577 32 577 32 602 10 c 1,19,-1
 602 0 l 1,20,-1
 434 0 l 1,21,-1
 434 17 l 2,22,23
 434 60 434 60 412 124 c 0,24,25
 409 135 409 135 400.5 161 c 128,-1,26
 392 187 392 187 385.5 204 c 128,-1,27
 379 221 379 221 373 244 c 1,0,1
171 301 m 1,28,-1
 355 301 l 1,29,30
 338 358 338 358 303.5 480 c 128,-1,31
 269 602 269 602 262 626 c 1,32,33
 248 592 248 592 209.5 447 c 128,-1,34
 171 302 171 302 171 301 c 1,28,-1
230 846 m 1,35,36
 237 838 237 838 240.5 817 c 128,-1,37
 244 796 244 796 244 785 c 128,-1,38
 244 774 244 774 243 768 c 1,39,-1
 235 761 l 1,40,41
 199 749 199 749 163 746 c 1,42,-1
 151 746 l 1,43,-1
 141 749 l 1,44,45
 126 779 126 779 126 827 c 1,46,-1
 136 835 l 1,47,48
 172 848 172 848 206 850 c 1,49,-1
 222 850 l 1,50,-1
 230 846 l 1,35,36
428 855 m 1,51,52
 435 847 435 847 438.5 825.5 c 128,-1,53
 442 804 442 804 442 793.5 c 128,-1,54
 442 783 442 783 441 777 c 1,55,-1
 433 770 l 1,56,57
 397 758 397 758 361 755 c 1,58,-1
 349 755 l 1,59,-1
 339 758 l 1,60,61
 324 788 324 788 324 836 c 1,62,-1
 334 844 l 1,63,64
 370 857 370 857 404 859 c 1,65,-1
 420 859 l 1,66,-1
 428 855 l 1,51,52
EndSplineSet
EndChar

StartChar: Aring
Encoding: 197 197 134
Width: 595
GlyphClass: 2
Flags: W
LayerCount: 2
Fore
SplineSet
373 244 m 1,0,1
 335 245 335 245 264.5 245 c 128,-1,2
 194 245 194 245 157 244 c 1,3,4
 130 129 130 129 124 94 c 128,-1,5
 118 59 118 59 118 17 c 2,6,-1
 118 0 l 1,7,-1
 -18 0 l 1,8,-1
 -18 10 l 1,9,10
 25 43 25 43 98 280 c 0,11,12
 217 664 217 664 220 701 c 1,13,-1
 234 702 l 1,14,15
 208 713 208 713 189.5 737.5 c 128,-1,16
 171 762 171 762 171 790 c 0,17,18
 171 835 171 835 201 865 c 128,-1,19
 231 895 231 895 273 895 c 0,20,21
 316 895 316 895 343 867 c 128,-1,22
 370 839 370 839 370 801 c 0,23,24
 370 741 370 741 320 711 c 1,25,-1
 336 713 l 1,26,27
 336 679 336 679 397 498.5 c 128,-1,28
 458 318 458 318 497 214 c 128,-1,29
 536 110 536 110 556.5 71 c 128,-1,30
 577 32 577 32 602 10 c 1,31,-1
 602 0 l 1,32,-1
 434 0 l 1,33,-1
 434 17 l 2,34,35
 434 60 434 60 412 124 c 0,36,37
 409 135 409 135 400.5 161 c 128,-1,38
 392 187 392 187 385.5 204 c 128,-1,39
 379 221 379 221 373 244 c 1,0,1
171 301 m 1,40,-1
 355 301 l 1,41,42
 338 358 338 358 303.5 480 c 128,-1,43
 269 602 269 602 262 626 c 1,44,45
 248 592 248 592 209.5 447 c 128,-1,46
 171 302 171 302 171 301 c 1,40,-1
264 852 m 0,47,48
 215 852 215 852 215 804 c 0,49,50
 215 774 215 774 231 758.5 c 128,-1,51
 247 743 247 743 272.5 743 c 128,-1,52
 298 743 298 743 312 752 c 1,53,54
 325 765 325 765 325 792.5 c 128,-1,55
 325 820 325 820 309.5 836 c 128,-1,56
 294 852 294 852 264 852 c 0,47,48
EndSplineSet
EndChar

StartChar: AE
Encoding: 198 198 135
Width: 865
GlyphClass: 2
Flags: W
LayerCount: 2
Fore
SplineSet
772 628 m 1,0,1
 713 643 713 643 629.5 643 c 128,-1,2
 546 643 546 643 523 641 c 1,3,4
 521 603 521 603 521 375 c 1,5,-1
 759 380 l 1,6,-1
 730 311 l 1,7,-1
 723 311 l 1,8,9
 655 319 655 319 615 319 c 128,-1,10
 575 319 575 319 521 316 c 1,11,12
 521 93 521 93 525 63 c 1,13,14
 548 60 548 60 601 60 c 0,15,16
 758 60 758 60 830 92 c 1,17,-1
 837 92 l 1,18,-1
 819 0 l 1,19,-1
 400 0 l 1,20,-1
 400 7 l 1,21,22
 416 69 416 69 416 210 c 2,23,-1
 416 272 l 1,24,-1
 338 272 l 2,25,26
 282 272 282 272 240 271 c 1,27,28
 215 229 215 229 167 129 c 128,-1,29
 119 29 119 29 119 0 c 1,30,-1
 -10 0 l 1,31,-1
 -10 10 l 1,32,33
 13 25 13 25 58 93 c 0,34,35
 70 111 70 111 85 137 c 128,-1,36
 100 163 100 163 111.5 182 c 128,-1,37
 123 201 123 201 138.5 229.5 c 128,-1,38
 154 258 154 258 162 273 c 0,39,40
 194 333 194 333 246 430 c 0,41,42
 369 656 369 656 375 700 c 1,43,-1
 400 700 l 1,44,-1
 804 703 l 1,45,-1
 779 628 l 1,46,-1
 772 628 l 1,0,1
416 490 m 2,47,48
 416 530 416 530 412 600 c 1,49,-1
 406 600 l 1,50,-1
 268 330 l 1,51,-1
 416 330 l 1,52,-1
 416 490 l 2,47,48
EndSplineSet
EndChar

StartChar: Ccedilla
Encoding: 199 199 136
Width: 658
GlyphClass: 2
Flags: W
LayerCount: 2
Fore
SplineSet
49 336 m 0,0,1
 49 509 49 509 154.5 610.5 c 128,-1,2
 260 712 260 712 432 712 c 0,3,4
 465 712 465 712 517.5 700 c 128,-1,5
 570 688 570 688 615 664 c 1,6,7
 603 601 603 601 573 558 c 1,8,9
 471 641 471 641 356 641 c 0,10,11
 314 641 314 641 280 634 c 1,12,13
 162 544 162 544 162 367 c 0,14,15
 162 246 162 246 231.5 158.5 c 128,-1,16
 301 71 301 71 415 71 c 0,17,18
 483 71 483 71 603 139 c 1,19,-1
 630 98 l 1,20,21
 525 22 525 22 455 1 c 0,22,23
 422 -9 422 -9 391 -12 c 1,24,-1
 359 -65 l 1,25,26
 369 -62 369 -62 396 -62.5 c 128,-1,27
 423 -63 423 -63 446.5 -81.5 c 128,-1,28
 470 -100 470 -100 470 -137.5 c 128,-1,29
 470 -175 470 -175 438 -198 c 128,-1,30
 406 -221 406 -221 361 -221 c 0,31,32
 338 -221 338 -221 305 -210.5 c 128,-1,33
 272 -200 272 -200 259 -192 c 1,34,-1
 275 -160 l 1,35,36
 309 -177 309 -177 342 -177 c 0,37,38
 394 -177 394 -177 394 -132 c 0,39,40
 394 -111 394 -111 382 -99 c 1,41,42
 367 -92 367 -92 346.5 -92 c 128,-1,43
 326 -92 326 -92 305 -96 c 1,44,-1
 299 -87 l 1,45,-1
 335 -11 l 1,46,47
 210 2 210 2 129.5 95.5 c 128,-1,48
 49 189 49 189 49 336 c 0,0,1
EndSplineSet
EndChar

StartChar: Egrave
Encoding: 200 200 137
Width: 573
GlyphClass: 2
Flags: W
LayerCount: 2
Fore
SplineSet
480 628 m 1,0,1
 421 643 421 643 337.5 643 c 128,-1,2
 254 643 254 643 231 641 c 1,3,4
 229 603 229 603 229 395 c 1,5,-1
 467 400 l 1,6,-1
 438 331 l 1,7,-1
 431 331 l 1,8,9
 363 339 363 339 323 339 c 128,-1,10
 283 339 283 339 229 336 c 1,11,12
 229 93 229 93 233 63 c 1,13,14
 256 60 256 60 309 60 c 0,15,16
 466 60 466 60 538 92 c 1,17,-1
 545 92 l 1,18,-1
 527 0 l 1,19,-1
 108 0 l 1,20,-1
 108 7 l 1,21,22
 124 69 124 69 124 210 c 2,23,-1
 124 490 l 2,24,25
 124 631 124 631 108 693 c 1,26,-1
 108 700 l 1,27,-1
 512 703 l 1,28,-1
 487 628 l 1,29,-1
 480 628 l 1,0,1
407 784 m 1,30,-1
 397 751 l 1,31,32
 283 760 283 760 168 806 c 1,33,34
 174 852 174 852 205 887 c 1,35,36
 292 821 292 821 407 784 c 1,30,-1
EndSplineSet
EndChar

StartChar: Eacute
Encoding: 201 201 138
Width: 573
GlyphClass: 2
Flags: W
LayerCount: 2
Fore
SplineSet
480 628 m 1,0,1
 421 643 421 643 337.5 643 c 128,-1,2
 254 643 254 643 231 641 c 1,3,4
 229 603 229 603 229 395 c 1,5,-1
 467 400 l 1,6,-1
 438 331 l 1,7,-1
 431 331 l 1,8,9
 363 339 363 339 323 339 c 128,-1,10
 283 339 283 339 229 336 c 1,11,12
 229 93 229 93 233 63 c 1,13,14
 256 60 256 60 309 60 c 0,15,16
 466 60 466 60 538 92 c 1,17,-1
 545 92 l 1,18,-1
 527 0 l 1,19,-1
 108 0 l 1,20,-1
 108 7 l 1,21,22
 124 69 124 69 124 210 c 2,23,-1
 124 490 l 2,24,25
 124 631 124 631 108 693 c 1,26,-1
 108 700 l 1,27,-1
 512 703 l 1,28,-1
 487 628 l 1,29,-1
 480 628 l 1,0,1
248 751 m 1,30,-1
 238 784 l 1,31,32
 353 821 353 821 440 887 c 1,33,34
 471 852 471 852 477 806 c 1,35,36
 362 760 362 760 248 751 c 1,30,-1
EndSplineSet
EndChar

StartChar: Ecircumflex
Encoding: 202 202 139
Width: 573
GlyphClass: 2
Flags: W
LayerCount: 2
Fore
SplineSet
480 628 m 1,0,1
 421 643 421 643 337.5 643 c 128,-1,2
 254 643 254 643 231 641 c 1,3,4
 229 603 229 603 229 395 c 1,5,-1
 467 400 l 1,6,-1
 438 331 l 1,7,-1
 431 331 l 1,8,9
 363 339 363 339 323 339 c 128,-1,10
 283 339 283 339 229 336 c 1,11,12
 229 93 229 93 233 63 c 1,13,14
 256 60 256 60 309 60 c 0,15,16
 466 60 466 60 538 92 c 1,17,-1
 545 92 l 1,18,-1
 527 0 l 1,19,-1
 108 0 l 1,20,-1
 108 7 l 1,21,22
 124 69 124 69 124 210 c 2,23,-1
 124 490 l 2,24,25
 124 631 124 631 108 693 c 1,26,-1
 108 700 l 1,27,-1
 512 703 l 1,28,-1
 487 628 l 1,29,-1
 480 628 l 1,0,1
292 903 m 1,30,-1
 372 903 l 1,31,32
 398 850 398 850 446 805 c 0,33,34
 464 789 464 789 497 761 c 1,35,-1
 469 730 l 1,36,37
 398 771 398 771 329 845 c 1,38,39
 263 779 263 779 201 735 c 1,40,-1
 172 765 l 1,41,42
 259 841 259 841 292 903 c 1,30,-1
EndSplineSet
EndChar

StartChar: Edieresis
Encoding: 203 203 140
Width: 573
GlyphClass: 2
Flags: W
LayerCount: 2
Fore
SplineSet
480 628 m 1,0,1
 421 643 421 643 337.5 643 c 128,-1,2
 254 643 254 643 231 641 c 1,3,4
 229 603 229 603 229 395 c 1,5,-1
 467 400 l 1,6,-1
 438 331 l 1,7,-1
 431 331 l 1,8,9
 363 339 363 339 323 339 c 128,-1,10
 283 339 283 339 229 336 c 1,11,12
 229 93 229 93 233 63 c 1,13,14
 256 60 256 60 309 60 c 0,15,16
 466 60 466 60 538 92 c 1,17,-1
 545 92 l 1,18,-1
 527 0 l 1,19,-1
 108 0 l 1,20,-1
 108 7 l 1,21,22
 124 69 124 69 124 210 c 2,23,-1
 124 490 l 2,24,25
 124 631 124 631 108 693 c 1,26,-1
 108 700 l 1,27,-1
 512 703 l 1,28,-1
 487 628 l 1,29,-1
 480 628 l 1,0,1
474 854 m 1,30,31
 481 846 481 846 484.5 825 c 128,-1,32
 488 804 488 804 488 793 c 128,-1,33
 488 782 488 782 487 776 c 1,34,-1
 479 769 l 1,35,36
 443 757 443 757 407 754 c 1,37,-1
 395 754 l 1,38,-1
 385 757 l 1,39,40
 370 787 370 787 370 835 c 1,41,-1
 380 843 l 1,42,43
 416 856 416 856 450 858 c 1,44,-1
 466 858 l 1,45,-1
 474 854 l 1,30,31
276 845 m 1,46,47
 283 837 283 837 286.5 815.5 c 128,-1,48
 290 794 290 794 290 783.5 c 128,-1,49
 290 773 290 773 289 767 c 1,50,-1
 281 760 l 1,51,52
 245 748 245 748 209 745 c 1,53,-1
 197 745 l 1,54,-1
 187 748 l 1,55,56
 172 778 172 778 172 826 c 1,57,-1
 182 834 l 1,58,59
 218 847 218 847 252 849 c 1,60,-1
 268 849 l 1,61,-1
 276 845 l 1,46,47
EndSplineSet
EndChar

StartChar: Igrave
Encoding: 204 204 141
Width: 353
GlyphClass: 2
Flags: W
LayerCount: 2
Fore
SplineSet
226 480 m 2,0,-1
 226 210 l 2,1,2
 226 173 226 173 230.5 101.5 c 128,-1,3
 235 30 235 30 241 7 c 1,4,-1
 241 0 l 1,5,-1
 108 0 l 1,6,-1
 108 7 l 1,7,8
 123 65 123 65 123 220 c 2,9,-1
 123 490 l 2,10,11
 123 635 123 635 108 693 c 1,12,-1
 108 700 l 1,13,-1
 241 700 l 1,14,-1
 241 693 l 1,15,16
 235 670 235 670 230.5 594 c 128,-1,17
 226 518 226 518 226 480 c 2,0,-1
253 784 m 1,18,-1
 243 751 l 1,19,20
 129 760 129 760 14 806 c 1,21,22
 20 852 20 852 51 887 c 1,23,24
 138 821 138 821 253 784 c 1,18,-1
EndSplineSet
EndChar

StartChar: Iacute
Encoding: 205 205 142
Width: 353
GlyphClass: 2
Flags: W
LayerCount: 2
Fore
SplineSet
232 480 m 2,0,-1
 232 210 l 2,1,2
 232 173 232 173 236.5 101.5 c 128,-1,3
 241 30 241 30 247 7 c 1,4,-1
 247 0 l 1,5,-1
 114 0 l 1,6,-1
 114 7 l 1,7,8
 129 65 129 65 129 220 c 2,9,-1
 129 490 l 2,10,11
 129 635 129 635 114 693 c 1,12,-1
 114 700 l 1,13,-1
 247 700 l 1,14,-1
 247 693 l 1,15,16
 241 670 241 670 236.5 594 c 128,-1,17
 232 518 232 518 232 480 c 2,0,-1
111 751 m 1,18,-1
 101 784 l 1,19,20
 216 821 216 821 303 887 c 1,21,22
 334 852 334 852 340 806 c 1,23,24
 225 760 225 760 111 751 c 1,18,-1
EndSplineSet
EndChar

StartChar: Icircumflex
Encoding: 206 206 143
Width: 348
GlyphClass: 2
Flags: W
LayerCount: 2
Fore
SplineSet
226 480 m 2,0,-1
 226 210 l 2,1,2
 226 173 226 173 230.5 101.5 c 128,-1,3
 235 30 235 30 241 7 c 1,4,-1
 241 0 l 1,5,-1
 108 0 l 1,6,-1
 108 7 l 1,7,8
 123 65 123 65 123 220 c 2,9,-1
 123 490 l 2,10,11
 123 635 123 635 108 693 c 1,12,-1
 108 700 l 1,13,-1
 241 700 l 1,14,-1
 241 693 l 1,15,16
 235 670 235 670 230.5 594 c 128,-1,17
 226 518 226 518 226 480 c 2,0,-1
133 903 m 1,18,-1
 213 903 l 1,19,20
 239 850 239 850 288 805 c 0,21,22
 305 789 305 789 338 761 c 1,23,-1
 310 730 l 1,24,25
 239 771 239 771 170 845 c 1,26,27
 104 779 104 779 42 735 c 1,28,-1
 13 765 l 1,29,30
 100 841 100 841 133 903 c 1,18,-1
EndSplineSet
EndChar

StartChar: Idieresis
Encoding: 207 207 144
Width: 348
GlyphClass: 2
Flags: W
LayerCount: 2
Fore
SplineSet
230 480 m 2,0,-1
 230 210 l 2,1,2
 230 173 230 173 234.5 101.5 c 128,-1,3
 239 30 239 30 245 7 c 1,4,-1
 245 0 l 1,5,-1
 112 0 l 1,6,-1
 112 7 l 1,7,8
 127 65 127 65 127 220 c 2,9,-1
 127 490 l 2,10,11
 127 635 127 635 112 693 c 1,12,-1
 112 700 l 1,13,-1
 245 700 l 1,14,-1
 245 693 l 1,15,16
 239 670 239 670 234.5 594 c 128,-1,17
 230 518 230 518 230 480 c 2,0,-1
320 856 m 1,18,19
 327 848 327 848 330.5 827 c 128,-1,20
 334 806 334 806 334 795 c 128,-1,21
 334 784 334 784 333 778 c 1,22,-1
 325 771 l 1,23,24
 289 759 289 759 253 756 c 1,25,-1
 241 756 l 1,26,-1
 231 759 l 1,27,28
 216 789 216 789 216 837 c 1,29,-1
 226 845 l 1,30,31
 262 858 262 858 296 860 c 1,32,-1
 312 860 l 1,33,-1
 320 856 l 1,18,19
122 847 m 1,34,35
 129 839 129 839 132.5 817.5 c 128,-1,36
 136 796 136 796 136 785.5 c 128,-1,37
 136 775 136 775 135 769 c 1,38,-1
 127 762 l 1,39,40
 91 750 91 750 55 747 c 1,41,-1
 43 747 l 1,42,-1
 33 750 l 1,43,44
 18 780 18 780 18 828 c 1,45,-1
 28 836 l 1,46,47
 64 849 64 849 98 851 c 1,48,-1
 114 851 l 1,49,-1
 122 847 l 1,34,35
EndSplineSet
EndChar

StartChar: Eth
Encoding: 208 208 145
Width: 742
GlyphClass: 2
Flags: W
LayerCount: 2
Fore
SplineSet
154 698 m 1,0,1
 339 701 339 701 342 701 c 0,2,3
 519 701 519 701 606 620.5 c 128,-1,4
 693 540 693 540 693 373 c 0,5,6
 693 268 693 268 660 186 c 0,7,8
 585 0 585 0 345 0 c 1,9,-1
 155 1 l 1,10,-1
 96 1 l 1,11,-1
 96 8 l 1,12,13
 112 70 112 70 112 211 c 2,14,-1
 112 351 l 1,15,-1
 2 346 l 1,16,-1
 25 402 l 1,17,-1
 32 402 l 1,18,19
 68 399 68 399 112 399 c 1,20,-1
 112 490 l 2,21,22
 112 631 112 631 96 693 c 1,23,-1
 96 700 l 1,24,-1
 154 698 l 1,0,1
341 68 m 0,25,26
 462 68 462 68 514 99 c 1,27,28
 580 174 580 174 580 343.5 c 128,-1,29
 580 513 580 513 519.5 577 c 128,-1,30
 459 641 459 641 316 641 c 0,31,32
 313 641 313 641 217 640 c 1,33,34
 215 603 215 603 215 400 c 1,35,-1
 226 400 l 2,36,37
 259 400 259 400 375 404 c 1,38,-1
 350 346 l 1,39,-1
 343 346 l 1,40,41
 270 351 270 351 215 352 c 1,42,-1
 215 334 l 2,43,44
 215 104 215 104 219 74 c 1,45,46
 279 68 279 68 341 68 c 0,25,26
EndSplineSet
EndChar

StartChar: Ntilde
Encoding: 209 209 146
Width: 714
GlyphClass: 2
Flags: W
LayerCount: 2
Fore
SplineSet
180 0 m 1,0,-1
 79 0 l 1,1,-1
 79 7 l 1,2,3
 94 73 94 73 94 239 c 2,4,-1
 94 463 l 2,5,6
 94 617 94 617 81 693 c 1,7,-1
 81 700 l 1,8,-1
 202 709 l 1,9,-1
 552 165 l 1,10,-1
 552 490 l 2,11,12
 552 543 552 543 546 605.5 c 128,-1,13
 540 668 540 668 531 693 c 1,14,-1
 531 700 l 1,15,-1
 636 700 l 1,16,-1
 636 693 l 1,17,18
 621 627 621 627 621 461 c 2,19,-1
 621 210 l 2,20,21
 621 150 621 150 625.5 81.5 c 128,-1,22
 630 13 630 13 634 0 c 1,23,-1
 540 -10 l 1,24,-1
 162 575 l 1,25,-1
 162 210 l 2,26,27
 162 77 162 77 180 7 c 1,28,-1
 180 0 l 1,0,-1
442 781 m 0,29,30
 418 781 418 781 367.5 805 c 128,-1,31
 317 829 317 829 292.5 829 c 128,-1,32
 268 829 268 829 250 820.5 c 128,-1,33
 232 812 232 812 205 791 c 1,34,-1
 185 809 l 1,35,36
 209 839 209 839 245.5 871.5 c 128,-1,37
 282 904 282 904 304.5 904 c 128,-1,38
 327 904 327 904 375.5 882.5 c 128,-1,39
 424 861 424 861 445 861 c 0,40,41
 484 861 484 861 537 898 c 1,42,-1
 556 881 l 1,43,44
 479 781 479 781 442 781 c 0,29,30
EndSplineSet
EndChar

StartChar: Ograve
Encoding: 210 210 147
Width: 753
GlyphClass: 2
Flags: W
LayerCount: 2
Fore
SplineSet
134.5 89 m 128,-1,1
 49 190 49 190 49 344.5 c 128,-1,2
 49 499 49 499 146 606.5 c 128,-1,3
 243 714 243 714 396 714 c 0,4,5
 495 714 495 714 566 665 c 0,6,7
 704 570 704 570 704 368 c 0,8,9
 704 203 704 203 606.5 95.5 c 128,-1,10
 509 -12 509 -12 364.5 -12 c 128,-1,0
 220 -12 220 -12 134.5 89 c 128,-1,1
591 341 m 0,11,12
 591 469 591 469 543 550 c 0,13,14
 490 641 490 641 365 641 c 0,15,16
 277 641 277 641 227 610 c 1,17,18
 198 574 198 574 180 508.5 c 128,-1,19
 162 443 162 443 162 361.5 c 128,-1,20
 162 280 162 280 183 214.5 c 128,-1,21
 204 149 204 149 258.5 104 c 128,-1,22
 313 59 313 59 392.5 59 c 128,-1,23
 472 59 472 59 524 92 c 1,24,25
 591 167 591 167 591 341 c 0,11,12
463 784 m 1,26,-1
 453 751 l 1,27,28
 339 760 339 760 224 806 c 1,29,30
 230 852 230 852 261 887 c 1,31,32
 348 821 348 821 463 784 c 1,26,-1
EndSplineSet
EndChar

StartChar: Oacute
Encoding: 211 211 148
Width: 753
GlyphClass: 2
Flags: W
LayerCount: 2
Fore
SplineSet
134.5 89 m 128,-1,1
 49 190 49 190 49 344.5 c 128,-1,2
 49 499 49 499 146 606.5 c 128,-1,3
 243 714 243 714 396 714 c 0,4,5
 495 714 495 714 566 665 c 0,6,7
 704 570 704 570 704 368 c 0,8,9
 704 203 704 203 606.5 95.5 c 128,-1,10
 509 -12 509 -12 364.5 -12 c 128,-1,0
 220 -12 220 -12 134.5 89 c 128,-1,1
591 341 m 0,11,12
 591 469 591 469 543 550 c 0,13,14
 490 641 490 641 365 641 c 0,15,16
 277 641 277 641 227 610 c 1,17,18
 198 574 198 574 180 508.5 c 128,-1,19
 162 443 162 443 162 361.5 c 128,-1,20
 162 280 162 280 183 214.5 c 128,-1,21
 204 149 204 149 258.5 104 c 128,-1,22
 313 59 313 59 392.5 59 c 128,-1,23
 472 59 472 59 524 92 c 1,24,25
 591 167 591 167 591 341 c 0,11,12
295 751 m 1,26,-1
 285 784 l 1,27,28
 400 821 400 821 487 887 c 1,29,30
 518 852 518 852 524 806 c 1,31,32
 409 760 409 760 295 751 c 1,26,-1
EndSplineSet
EndChar

StartChar: Ocircumflex
Encoding: 212 212 149
Width: 753
GlyphClass: 2
Flags: W
LayerCount: 2
Fore
SplineSet
134.5 89 m 128,-1,1
 49 190 49 190 49 344.5 c 128,-1,2
 49 499 49 499 146 606.5 c 128,-1,3
 243 714 243 714 396 714 c 0,4,5
 495 714 495 714 566 665 c 0,6,7
 704 570 704 570 704 368 c 0,8,9
 704 203 704 203 606.5 95.5 c 128,-1,10
 509 -12 509 -12 364.5 -12 c 128,-1,0
 220 -12 220 -12 134.5 89 c 128,-1,1
591 341 m 0,11,12
 591 469 591 469 543 550 c 0,13,14
 490 641 490 641 365 641 c 0,15,16
 277 641 277 641 227 610 c 1,17,18
 198 574 198 574 180 508.5 c 128,-1,19
 162 443 162 443 162 361.5 c 128,-1,20
 162 280 162 280 183 214.5 c 128,-1,21
 204 149 204 149 258.5 104 c 128,-1,22
 313 59 313 59 392.5 59 c 128,-1,23
 472 59 472 59 524 92 c 1,24,25
 591 167 591 167 591 341 c 0,11,12
335 903 m 1,26,-1
 415 903 l 1,27,28
 441 850 441 850 490 805 c 0,29,30
 507 789 507 789 540 761 c 1,31,-1
 512 730 l 1,32,33
 441 771 441 771 372 845 c 1,34,35
 306 779 306 779 244 735 c 1,36,-1
 215 765 l 1,37,38
 302 841 302 841 335 903 c 1,26,-1
EndSplineSet
EndChar

StartChar: Otilde
Encoding: 213 213 150
Width: 753
GlyphClass: 2
Flags: W
LayerCount: 2
Fore
SplineSet
134.5 89 m 128,-1,1
 49 190 49 190 49 344.5 c 128,-1,2
 49 499 49 499 146 606.5 c 128,-1,3
 243 714 243 714 396 714 c 0,4,5
 495 714 495 714 566 665 c 0,6,7
 704 570 704 570 704 368 c 0,8,9
 704 203 704 203 606.5 95.5 c 128,-1,10
 509 -12 509 -12 364.5 -12 c 128,-1,0
 220 -12 220 -12 134.5 89 c 128,-1,1
591 341 m 0,11,12
 591 469 591 469 543 550 c 0,13,14
 490 641 490 641 365 641 c 0,15,16
 277 641 277 641 227 610 c 1,17,18
 198 574 198 574 180 508.5 c 128,-1,19
 162 443 162 443 162 361.5 c 128,-1,20
 162 280 162 280 183 214.5 c 128,-1,21
 204 149 204 149 258.5 104 c 128,-1,22
 313 59 313 59 392.5 59 c 128,-1,23
 472 59 472 59 524 92 c 1,24,25
 591 167 591 167 591 341 c 0,11,12
447 781 m 0,26,27
 423 781 423 781 372.5 805 c 128,-1,28
 322 829 322 829 297.5 829 c 128,-1,29
 273 829 273 829 255 820.5 c 128,-1,30
 237 812 237 812 210 791 c 1,31,-1
 190 809 l 1,32,33
 214 839 214 839 250.5 871.5 c 128,-1,34
 287 904 287 904 309.5 904 c 128,-1,35
 332 904 332 904 380.5 882.5 c 128,-1,36
 429 861 429 861 450 861 c 0,37,38
 489 861 489 861 542 898 c 1,39,-1
 561 881 l 1,40,41
 484 781 484 781 447 781 c 0,26,27
EndSplineSet
EndChar

StartChar: Odieresis
Encoding: 214 214 151
Width: 753
GlyphClass: 2
Flags: W
LayerCount: 2
Fore
SplineSet
134.5 89 m 128,-1,1
 49 190 49 190 49 344.5 c 128,-1,2
 49 499 49 499 146 606.5 c 128,-1,3
 243 714 243 714 396 714 c 0,4,5
 495 714 495 714 566 665 c 0,6,7
 704 570 704 570 704 368 c 0,8,9
 704 203 704 203 606.5 95.5 c 128,-1,10
 509 -12 509 -12 364.5 -12 c 128,-1,0
 220 -12 220 -12 134.5 89 c 128,-1,1
591 341 m 0,11,12
 591 469 591 469 543 550 c 0,13,14
 490 641 490 641 365 641 c 0,15,16
 277 641 277 641 227 610 c 1,17,18
 198 574 198 574 180 508.5 c 128,-1,19
 162 443 162 443 162 361.5 c 128,-1,20
 162 280 162 280 183 214.5 c 128,-1,21
 204 149 204 149 258.5 104 c 128,-1,22
 313 59 313 59 392.5 59 c 128,-1,23
 472 59 472 59 524 92 c 1,24,25
 591 167 591 167 591 341 c 0,11,12
320 846 m 1,26,27
 327 838 327 838 330.5 817 c 128,-1,28
 334 796 334 796 334 785 c 128,-1,29
 334 774 334 774 333 768 c 1,30,-1
 325 761 l 1,31,32
 289 749 289 749 253 746 c 1,33,-1
 241 746 l 1,34,-1
 231 749 l 1,35,36
 216 779 216 779 216 827 c 1,37,-1
 226 835 l 1,38,39
 262 848 262 848 296 850 c 1,40,-1
 312 850 l 1,41,-1
 320 846 l 1,26,27
518 855 m 1,42,43
 525 847 525 847 528.5 825.5 c 128,-1,44
 532 804 532 804 532 793.5 c 128,-1,45
 532 783 532 783 531 777 c 1,46,-1
 523 770 l 1,47,48
 487 758 487 758 451 755 c 1,49,-1
 439 755 l 1,50,-1
 429 758 l 1,51,52
 414 788 414 788 414 836 c 1,53,-1
 424 844 l 1,54,55
 460 857 460 857 494 859 c 1,56,-1
 510 859 l 1,57,-1
 518 855 l 1,42,43
EndSplineSet
EndChar

StartChar: multiply
Encoding: 215 215 152
Width: 565
GlyphClass: 2
Flags: W
LayerCount: 2
Fore
SplineSet
72 162 m 1,0,-1
 232 319 l 1,1,-1
 72 476 l 1,2,-1
 123 527 l 1,3,-1
 282 368 l 1,4,-1
 440 527 l 1,5,-1
 491 475 l 1,6,-1
 332 318 l 1,7,-1
 493 161 l 1,8,-1
 442 110 l 1,9,-1
 281 269 l 1,10,-1
 123 110 l 1,11,-1
 72 162 l 1,0,-1
EndSplineSet
EndChar

StartChar: Oslash
Encoding: 216 216 153
Width: 776
GlyphClass: 2
Flags: W
LayerCount: 2
Fore
SplineSet
49 347 m 0,0,1
 49 498 49 498 147 606 c 128,-1,2
 245 714 245 714 388 714 c 0,3,4
 510 714 510 714 590 648 c 1,5,-1
 640 728 l 1,6,-1
 727 741 l 1,7,-1
 727 735 l 1,8,9
 691 693 691 693 626 611 c 1,10,11
 704 516 704 516 704 360 c 128,-1,12
 704 204 704 204 606 96 c 128,-1,13
 508 -12 508 -12 365 -12 c 0,14,15
 274 -12 274 -12 204 30 c 1,16,17
 167 -23 167 -23 145 -61 c 1,18,-1
 53 -77 l 1,19,-1
 53 -71 l 1,20,21
 84 -35 84 -35 159 63 c 1,22,23
 49 162 49 162 49 347 c 0,0,1
359 641 m 0,24,25
 325 641 325 641 285.5 632 c 128,-1,26
 246 623 246 623 227 610 c 1,27,28
 198 574 198 574 180 506.5 c 128,-1,29
 162 439 162 439 162 371 c 0,30,31
 162 214 162 214 218 139 c 1,32,33
 311 260 311 260 535 570 c 1,34,35
 477 641 477 641 359 641 c 0,24,25
591 333 m 0,36,37
 591 460 591 460 561 526 c 1,38,39
 496 440 496 440 255 101 c 1,40,41
 311 59 311 59 405 59 c 0,42,43
 474 59 474 59 524 92 c 1,44,45
 557 128 557 128 574 195.5 c 128,-1,46
 591 263 591 263 591 333 c 0,36,37
EndSplineSet
EndChar

StartChar: Ugrave
Encoding: 217 217 154
Width: 701
GlyphClass: 2
Flags: W
LayerCount: 2
Fore
SplineSet
609 501 m 2,0,-1
 609 311 l 2,1,2
 609 215 609 215 594.5 153 c 128,-1,3
 580 91 580 91 546.5 54 c 128,-1,4
 513 17 513 17 465 2.5 c 128,-1,5
 417 -12 417 -12 344 -12 c 0,6,7
 202 -12 202 -12 145 55.5 c 128,-1,8
 88 123 88 123 88 275 c 2,9,-1
 88 486 l 2,10,11
 88 635 88 635 73 693 c 1,12,-1
 73 700 l 1,13,-1
 203 700 l 1,14,-1
 203 693 l 1,15,16
 190 608 190 608 190 367 c 2,17,18
 190 367 190 367 190 302 c 0,19,20
 190 219 190 219 198 177 c 128,-1,21
 206 135 206 135 212 124 c 128,-1,22
 218 113 218 113 227.5 98 c 128,-1,23
 237 83 237 83 249 76.5 c 128,-1,24
 261 70 261 70 278 63 c 0,25,26
 303 52 303 52 360 52 c 0,27,28
 450 52 450 52 495 82 c 1,29,30
 521 124 521 124 528 197 c 128,-1,31
 535 270 535 270 535 439.5 c 128,-1,32
 535 609 535 609 520 693 c 1,33,-1
 520 700 l 1,34,-1
 624 700 l 1,35,-1
 624 693 l 1,36,37
 618 669 618 669 613.5 602.5 c 128,-1,38
 609 536 609 536 609 501 c 2,0,-1
436 784 m 1,39,-1
 426 751 l 1,40,41
 312 760 312 760 197 806 c 1,42,43
 203 852 203 852 234 887 c 1,44,45
 321 821 321 821 436 784 c 1,39,-1
EndSplineSet
EndChar

StartChar: Uacute
Encoding: 218 218 155
Width: 701
GlyphClass: 2
Flags: W
LayerCount: 2
Fore
SplineSet
609 501 m 2,0,-1
 609 311 l 2,1,2
 609 215 609 215 594.5 153 c 128,-1,3
 580 91 580 91 546.5 54 c 128,-1,4
 513 17 513 17 465 2.5 c 128,-1,5
 417 -12 417 -12 344 -12 c 0,6,7
 202 -12 202 -12 145 55.5 c 128,-1,8
 88 123 88 123 88 275 c 2,9,-1
 88 486 l 2,10,11
 88 635 88 635 73 693 c 1,12,-1
 73 700 l 1,13,-1
 203 700 l 1,14,-1
 203 693 l 1,15,16
 190 608 190 608 190 367 c 2,17,18
 190 367 190 367 190 302 c 0,19,20
 190 219 190 219 198 177 c 128,-1,21
 206 135 206 135 212 124 c 128,-1,22
 218 113 218 113 227.5 98 c 128,-1,23
 237 83 237 83 249 76.5 c 128,-1,24
 261 70 261 70 278 63 c 0,25,26
 303 52 303 52 360 52 c 0,27,28
 450 52 450 52 495 82 c 1,29,30
 521 124 521 124 528 197 c 128,-1,31
 535 270 535 270 535 439.5 c 128,-1,32
 535 609 535 609 520 693 c 1,33,-1
 520 700 l 1,34,-1
 624 700 l 1,35,-1
 624 693 l 1,36,37
 618 669 618 669 613.5 602.5 c 128,-1,38
 609 536 609 536 609 501 c 2,0,-1
284 751 m 1,39,-1
 274 784 l 1,40,41
 389 821 389 821 476 887 c 1,42,43
 507 852 507 852 513 806 c 1,44,45
 398 760 398 760 284 751 c 1,39,-1
EndSplineSet
EndChar

StartChar: Ucircumflex
Encoding: 219 219 156
Width: 701
GlyphClass: 2
Flags: W
LayerCount: 2
Fore
SplineSet
609 501 m 2,0,-1
 609 311 l 2,1,2
 609 215 609 215 594.5 153 c 128,-1,3
 580 91 580 91 546.5 54 c 128,-1,4
 513 17 513 17 465 2.5 c 128,-1,5
 417 -12 417 -12 344 -12 c 0,6,7
 202 -12 202 -12 145 55.5 c 128,-1,8
 88 123 88 123 88 275 c 2,9,-1
 88 486 l 2,10,11
 88 635 88 635 73 693 c 1,12,-1
 73 700 l 1,13,-1
 203 700 l 1,14,-1
 203 693 l 1,15,16
 190 608 190 608 190 367 c 2,17,18
 190 367 190 367 190 302 c 0,19,20
 190 219 190 219 198 177 c 128,-1,21
 206 135 206 135 212 124 c 128,-1,22
 218 113 218 113 227.5 98 c 128,-1,23
 237 83 237 83 249 76.5 c 128,-1,24
 261 70 261 70 278 63 c 0,25,26
 303 52 303 52 360 52 c 0,27,28
 450 52 450 52 495 82 c 1,29,30
 521 124 521 124 528 197 c 128,-1,31
 535 270 535 270 535 439.5 c 128,-1,32
 535 609 535 609 520 693 c 1,33,-1
 520 700 l 1,34,-1
 624 700 l 1,35,-1
 624 693 l 1,36,37
 618 669 618 669 613.5 602.5 c 128,-1,38
 609 536 609 536 609 501 c 2,0,-1
315 903 m 1,39,-1
 395 903 l 1,40,41
 421 850 421 850 470 805 c 0,42,43
 487 789 487 789 520 761 c 1,44,-1
 492 730 l 1,45,46
 421 771 421 771 352 845 c 1,47,48
 286 779 286 779 224 735 c 1,49,-1
 195 765 l 1,50,51
 282 841 282 841 315 903 c 1,39,-1
EndSplineSet
EndChar

StartChar: Udieresis
Encoding: 220 220 157
Width: 744
GlyphClass: 2
Flags: W
LayerCount: 2
Fore
SplineSet
643 501 m 2,0,-1
 643 311 l 2,1,2
 643 215 643 215 628.5 153 c 128,-1,3
 614 91 614 91 580.5 54 c 128,-1,4
 547 17 547 17 499 2.5 c 128,-1,5
 451 -12 451 -12 378 -12 c 0,6,7
 236 -12 236 -12 179 55.5 c 128,-1,8
 122 123 122 123 122 275 c 2,9,-1
 122 486 l 2,10,11
 122 635 122 635 107 693 c 1,12,-1
 107 700 l 1,13,-1
 237 700 l 1,14,-1
 237 693 l 1,15,16
 224 609 224 609 224 367 c 2,17,18
 224 367 224 367 224 302 c 0,19,20
 224 219 224 219 232 177 c 128,-1,21
 240 135 240 135 246 124 c 128,-1,22
 252 113 252 113 261.5 98 c 128,-1,23
 271 83 271 83 283 76.5 c 128,-1,24
 295 70 295 70 312 63 c 0,25,26
 337 52 337 52 394 52 c 0,27,28
 484 52 484 52 529 82 c 1,29,30
 555 124 555 124 562 197 c 128,-1,31
 569 270 569 270 569 439.5 c 128,-1,32
 569 609 569 609 554 693 c 1,33,-1
 554 700 l 1,34,-1
 658 700 l 1,35,-1
 658 693 l 1,36,37
 652 669 652 669 647.5 602.5 c 128,-1,38
 643 536 643 536 643 501 c 2,0,-1
537 855 m 1,39,40
 544 847 544 847 547.5 825.5 c 128,-1,41
 551 804 551 804 551 793.5 c 128,-1,42
 551 783 551 783 550 777 c 1,43,-1
 542 770 l 1,44,45
 506 758 506 758 470 755 c 1,46,-1
 458 755 l 1,47,-1
 448 758 l 1,48,49
 433 788 433 788 433 836 c 1,50,-1
 443 844 l 1,51,52
 479 857 479 857 513 859 c 1,53,-1
 529 859 l 1,54,-1
 537 855 l 1,39,40
339 846 m 1,55,56
 346 838 346 838 349.5 817 c 128,-1,57
 353 796 353 796 353 785 c 128,-1,58
 353 774 353 774 352 768 c 1,59,-1
 344 761 l 1,60,61
 308 749 308 749 272 746 c 1,62,-1
 260 746 l 1,63,-1
 250 749 l 1,64,65
 235 779 235 779 235 827 c 1,66,-1
 245 835 l 1,67,68
 281 848 281 848 315 850 c 1,69,-1
 331 850 l 1,70,-1
 339 846 l 1,55,56
EndSplineSet
EndChar

StartChar: Yacute
Encoding: 221 221 158
Width: 511
GlyphClass: 2
Flags: W
LayerCount: 2
Fore
SplineSet
277 348 m 1,0,1
 404 623 404 623 404 683 c 2,2,-1
 404 700 l 1,3,-1
 520 700 l 1,4,-1
 520 690 l 1,5,6
 479 660 479 660 311 290 c 1,7,-1
 311 210 l 2,8,9
 311 175 311 175 315.5 103 c 128,-1,10
 320 31 320 31 325 7 c 1,11,-1
 325 0 l 1,12,-1
 197 0 l 1,13,-1
 197 7 l 1,14,15
 211 68 211 68 211 183 c 2,16,-1
 211 293 l 1,17,-1
 115 482 l 1,18,19
 16 671 16 671 -15 690 c 1,20,-1
 -15 700 l 1,21,-1
 133 700 l 1,22,-1
 133 683 l 2,23,24
 133 644 133 644 165.5 574 c 128,-1,25
 198 504 198 504 214 470 c 128,-1,26
 230 436 230 436 234 429 c 0,27,28
 247 409 247 409 277 348 c 1,0,1
189 751 m 1,29,-1
 179 784 l 1,30,31
 294 821 294 821 381 887 c 1,32,33
 412 852 412 852 418 806 c 1,34,35
 303 760 303 760 189 751 c 1,29,-1
EndSplineSet
EndChar

StartChar: Thorn
Encoding: 222 222 159
Width: 620
GlyphClass: 2
Flags: W
LayerCount: 2
Fore
SplineSet
230 136 m 2,0,1
 230 53 230 53 249 6 c 1,2,-1
 249 0 l 1,3,-1
 108 0 l 1,4,-1
 108 7 l 1,5,6
 127 58 127 58 127 150 c 2,7,-1
 127 512 l 1,8,9
 125 639 125 639 112 692 c 1,10,-1
 112 699 l 1,11,-1
 245 699 l 1,12,-1
 245 692 l 1,13,14
 242 676 242 676 236 615 c 1,15,-1
 326 615 l 2,16,17
 582 615 582 615 582 424 c 0,18,19
 582 316 582 316 506.5 255.5 c 128,-1,20
 431 195 431 195 312 195 c 0,21,22
 294 195 294 195 230 203 c 1,23,-1
 230 136 l 2,0,1
433.5 526.5 m 128,-1,25
 398 564 398 564 322.5 564 c 128,-1,26
 247 564 247 564 232 562 c 1,27,28
 230 535 230 535 230 387 c 2,29,-1
 230 251 l 1,30,31
 269 240 269 240 311 240 c 0,32,33
 388 240 388 240 428.5 285.5 c 128,-1,34
 469 331 469 331 469 410 c 128,-1,24
 469 489 469 489 433.5 526.5 c 128,-1,25
EndSplineSet
EndChar

StartChar: germandbls
Encoding: 223 223 160
Width: 601
GlyphClass: 2
Flags: W
LayerCount: 2
Fore
SplineSet
58 460 m 1,0,-1
 115 457 l 1,1,-1
 115 503 l 2,2,3
 115 606 115 606 178.5 673 c 128,-1,4
 242 740 242 740 336 740 c 0,5,6
 403 740 403 740 444.5 708.5 c 128,-1,7
 486 677 486 677 486 611 c 0,8,9
 486 557 486 557 442 522 c 0,10,11
 424 507 424 507 406 492 c 0,12,13
 362 457 362 457 362 408 c 0,14,15
 362 354 362 354 438 316 c 0,16,17
 469 301 469 301 500 282.5 c 128,-1,18
 531 264 531 264 553 229.5 c 128,-1,19
 575 195 575 195 575 145 c 0,20,21
 575 74 575 74 530 32 c 0,22,23
 484 -11 484 -11 405.5 -11 c 128,-1,24
 327 -11 327 -11 273 30 c 1,25,26
 274 81 274 81 292 115 c 1,27,28
 310 91 310 91 347.5 70.5 c 128,-1,29
 385 50 385 50 417 50 c 128,-1,30
 449 50 449 50 463 59 c 1,31,32
 479 76 479 76 479 138 c 0,33,34
 479 193 479 193 408 232 c 0,35,36
 378 249 378 249 348.5 267.5 c 128,-1,37
 319 286 319 286 298.5 317.5 c 128,-1,38
 278 349 278 349 278 391.5 c 128,-1,39
 278 434 278 434 297 465.5 c 128,-1,40
 316 497 316 497 338 513 c 0,41,42
 398 557 398 557 398 603 c 0,43,44
 398 678 398 678 293 678 c 0,45,46
 252 678 252 678 230 661 c 1,47,48
 209 632 209 632 209 538 c 2,49,-1
 209 0 l 1,50,-1
 98 0 l 1,51,-1
 98 7 l 1,52,53
 115 57 115 57 115 170 c 2,54,-1
 115 402 l 1,55,-1
 35 399 l 1,56,-1
 58 460 l 1,0,-1
EndSplineSet
EndChar

StartChar: agrave
Encoding: 224 224 161
Width: 504
GlyphClass: 2
Flags: W
LayerCount: 2
Fore
SplineSet
311 530 m 1,0,1
 216 582 216 582 124 674 c 1,2,3
 149 715 149 715 192 732 c 1,4,5
 246 636 246 636 334 556 c 1,6,-1
 311 530 l 1,0,1
330 200 m 1,7,8
 289 215 289 215 235.5 215 c 128,-1,9
 182 215 182 215 158 198 c 1,10,11
 143 175 143 175 143 136.5 c 128,-1,12
 143 98 143 98 164 76 c 128,-1,13
 185 54 185 54 216.5 54 c 128,-1,14
 248 54 248 54 281 70.5 c 128,-1,15
 314 87 314 87 330 106 c 1,16,-1
 330 200 l 1,7,8
346 56 m 1,17,18
 285 -11 285 -11 208.5 -11 c 128,-1,19
 132 -11 132 -11 88.5 22 c 128,-1,20
 45 55 45 55 45 128.5 c 128,-1,21
 45 202 45 202 96.5 234 c 128,-1,22
 148 266 148 266 242 266 c 1,23,-1
 330 263 l 1,24,-1
 330 320 l 2,25,26
 330 373 330 373 304 406 c 128,-1,27
 278 439 278 439 225 439 c 1,28,29
 186 438 186 438 100 364 c 1,30,31
 71 401 71 401 59 460 c 1,32,33
 158 492 158 492 241 492 c 128,-1,34
 324 492 324 492 374 449 c 128,-1,35
 424 406 424 406 424 327 c 2,36,-1
 424 159 l 1,37,38
 425 114 425 114 438.5 75.5 c 128,-1,39
 452 37 452 37 474 22 c 1,40,-1
 476 12 l 1,41,-1
 369 -14 l 1,42,43
 356 18 356 18 346 56 c 1,17,18
EndSplineSet
EndChar

StartChar: aacute
Encoding: 225 225 162
Width: 504
GlyphClass: 2
Flags: W
LayerCount: 2
Fore
SplineSet
402 674 m 1,0,1
 304 579 304 579 215 530 c 1,2,-1
 192 556 l 1,3,4
 280 636 280 636 334 732 c 1,5,6
 377 715 377 715 402 674 c 1,0,1
330 200 m 1,7,8
 289 215 289 215 235.5 215 c 128,-1,9
 182 215 182 215 158 198 c 1,10,11
 143 175 143 175 143 136.5 c 128,-1,12
 143 98 143 98 164 76 c 128,-1,13
 185 54 185 54 216.5 54 c 128,-1,14
 248 54 248 54 281 70.5 c 128,-1,15
 314 87 314 87 330 106 c 1,16,-1
 330 200 l 1,7,8
346 56 m 1,17,18
 285 -11 285 -11 208.5 -11 c 128,-1,19
 132 -11 132 -11 88.5 22 c 128,-1,20
 45 55 45 55 45 128.5 c 128,-1,21
 45 202 45 202 96.5 234 c 128,-1,22
 148 266 148 266 242 266 c 1,23,-1
 330 263 l 1,24,-1
 330 320 l 2,25,26
 330 373 330 373 304 406 c 128,-1,27
 278 439 278 439 225 439 c 1,28,29
 186 438 186 438 100 364 c 1,30,31
 71 401 71 401 59 460 c 1,32,33
 158 492 158 492 241 492 c 128,-1,34
 324 492 324 492 374 449 c 128,-1,35
 424 406 424 406 424 327 c 2,36,-1
 424 159 l 1,37,38
 425 114 425 114 438.5 75.5 c 128,-1,39
 452 37 452 37 474 22 c 1,40,-1
 476 12 l 1,41,-1
 369 -14 l 1,42,43
 356 18 356 18 346 56 c 1,17,18
EndSplineSet
EndChar

StartChar: acircumflex
Encoding: 226 226 163
Width: 504
GlyphClass: 2
Flags: W
LayerCount: 2
Fore
SplineSet
208 718 m 1,0,-1
 278 729 l 1,1,2
 299 667 299 667 342 616 c 0,3,4
 357 598 357 598 387 564 c 1,5,-1
 353 530 l 1,6,7
 328 550 328 550 289.5 592.5 c 128,-1,8
 251 635 251 635 235 661 c 1,9,10
 190 599 190 599 131 538 c 1,11,-1
 101 565 l 1,12,13
 132 600 132 600 145 615 c 128,-1,14
 158 630 158 630 178 660 c 128,-1,15
 198 690 198 690 208 718 c 1,0,-1
330 200 m 1,16,17
 289 215 289 215 235.5 215 c 128,-1,18
 182 215 182 215 158 198 c 1,19,20
 143 175 143 175 143 136.5 c 128,-1,21
 143 98 143 98 164 76 c 128,-1,22
 185 54 185 54 216.5 54 c 128,-1,23
 248 54 248 54 281 70.5 c 128,-1,24
 314 87 314 87 330 106 c 1,25,-1
 330 200 l 1,16,17
346 56 m 1,26,27
 285 -11 285 -11 208.5 -11 c 128,-1,28
 132 -11 132 -11 88.5 22 c 128,-1,29
 45 55 45 55 45 128.5 c 128,-1,30
 45 202 45 202 96.5 234 c 128,-1,31
 148 266 148 266 242 266 c 1,32,-1
 330 263 l 1,33,-1
 330 320 l 2,34,35
 330 373 330 373 304 406 c 128,-1,36
 278 439 278 439 225 439 c 1,37,38
 186 438 186 438 100 364 c 1,39,40
 71 401 71 401 59 460 c 1,41,42
 158 492 158 492 241 492 c 128,-1,43
 324 492 324 492 374 449 c 128,-1,44
 424 406 424 406 424 327 c 2,45,-1
 424 159 l 1,46,47
 425 114 425 114 438.5 75.5 c 128,-1,48
 452 37 452 37 474 22 c 1,49,-1
 476 12 l 1,50,-1
 369 -14 l 1,51,52
 356 18 356 18 346 56 c 1,26,27
EndSplineSet
EndChar

StartChar: atilde
Encoding: 227 227 164
Width: 504
GlyphClass: 2
Flags: W
LayerCount: 2
Fore
SplineSet
248.5 593 m 128,-1,1
 198 617 198 617 169.5 617 c 128,-1,2
 141 617 141 617 86 579 c 1,3,-1
 66 597 l 1,4,5
 90 627 90 627 126.5 659.5 c 128,-1,6
 163 692 163 692 185.5 692 c 128,-1,7
 208 692 208 692 256.5 670.5 c 128,-1,8
 305 649 305 649 330.5 649 c 128,-1,9
 356 649 356 649 418 686 c 1,10,-1
 437 669 l 1,11,12
 360 569 360 569 323 569 c 0,13,0
 299 569 299 569 248.5 593 c 128,-1,1
330 200 m 1,14,15
 289 215 289 215 235.5 215 c 128,-1,16
 182 215 182 215 158 198 c 1,17,18
 143 175 143 175 143 136.5 c 128,-1,19
 143 98 143 98 164 76 c 128,-1,20
 185 54 185 54 216.5 54 c 128,-1,21
 248 54 248 54 281 70.5 c 128,-1,22
 314 87 314 87 330 106 c 1,23,-1
 330 200 l 1,14,15
346 56 m 1,24,25
 285 -11 285 -11 208.5 -11 c 128,-1,26
 132 -11 132 -11 88.5 22 c 128,-1,27
 45 55 45 55 45 128.5 c 128,-1,28
 45 202 45 202 96.5 234 c 128,-1,29
 148 266 148 266 242 266 c 1,30,-1
 330 263 l 1,31,-1
 330 320 l 2,32,33
 330 373 330 373 304 406 c 128,-1,34
 278 439 278 439 225 439 c 1,35,36
 186 438 186 438 100 364 c 1,37,38
 71 401 71 401 59 460 c 1,39,40
 158 492 158 492 241 492 c 128,-1,41
 324 492 324 492 374 449 c 128,-1,42
 424 406 424 406 424 327 c 2,43,-1
 424 159 l 1,44,45
 425 114 425 114 438.5 75.5 c 128,-1,46
 452 37 452 37 474 22 c 1,47,-1
 476 12 l 1,48,-1
 369 -14 l 1,49,50
 356 18 356 18 346 56 c 1,24,25
EndSplineSet
EndChar

StartChar: adieresis
Encoding: 228 228 165
Width: 504
GlyphClass: 2
Flags: W
LayerCount: 2
Fore
SplineSet
400 687 m 1,0,1
 407 679 407 679 410.5 657.5 c 128,-1,2
 414 636 414 636 414 625 c 128,-1,3
 414 614 414 614 413 607 c 1,4,-1
 405 600 l 1,5,6
 368 588 368 588 331 585 c 1,7,-1
 319 585 l 1,8,-1
 309 588 l 1,9,10
 294 618 294 618 294 668 c 1,11,-1
 304 676 l 1,12,13
 340 689 340 689 375 691 c 1,14,-1
 392 691 l 1,15,-1
 400 687 l 1,0,1
184 678 m 1,16,17
 191 670 191 670 194.5 648.5 c 128,-1,18
 198 627 198 627 198 616 c 128,-1,19
 198 605 198 605 197 598 c 1,20,-1
 189 591 l 1,21,22
 153 579 153 579 116 576 c 1,23,-1
 103 576 l 1,24,-1
 93 579 l 1,25,26
 78 609 78 609 78 658 c 1,27,-1
 88 667 l 1,28,29
 126 680 126 680 160 682 c 1,30,-1
 176 682 l 1,31,-1
 184 678 l 1,16,17
330 200 m 1,32,33
 289 215 289 215 235.5 215 c 128,-1,34
 182 215 182 215 158 198 c 1,35,36
 143 175 143 175 143 136.5 c 128,-1,37
 143 98 143 98 164 76 c 128,-1,38
 185 54 185 54 216.5 54 c 128,-1,39
 248 54 248 54 281 70.5 c 128,-1,40
 314 87 314 87 330 106 c 1,41,-1
 330 200 l 1,32,33
346 56 m 1,42,43
 285 -11 285 -11 208.5 -11 c 128,-1,44
 132 -11 132 -11 88.5 22 c 128,-1,45
 45 55 45 55 45 128.5 c 128,-1,46
 45 202 45 202 96.5 234 c 128,-1,47
 148 266 148 266 242 266 c 1,48,-1
 330 263 l 1,49,-1
 330 320 l 2,50,51
 330 373 330 373 304 406 c 128,-1,52
 278 439 278 439 225 439 c 1,53,54
 186 438 186 438 100 364 c 1,55,56
 71 401 71 401 59 460 c 1,57,58
 158 492 158 492 241 492 c 128,-1,59
 324 492 324 492 374 449 c 128,-1,60
 424 406 424 406 424 327 c 2,61,-1
 424 159 l 1,62,63
 425 114 425 114 438.5 75.5 c 128,-1,64
 452 37 452 37 474 22 c 1,65,-1
 476 12 l 1,66,-1
 369 -14 l 1,67,68
 356 18 356 18 346 56 c 1,42,43
EndSplineSet
EndChar

StartChar: aring
Encoding: 229 229 166
Width: 504
GlyphClass: 2
Flags: W
LayerCount: 2
Fore
SplineSet
317.5 706 m 128,-1,1
 343 680 343 680 343 639.5 c 128,-1,2
 343 599 343 599 314.5 569.5 c 128,-1,3
 286 540 286 540 244.5 540 c 128,-1,4
 203 540 203 540 177 566 c 128,-1,5
 151 592 151 592 151 632.5 c 128,-1,6
 151 673 151 673 180 702.5 c 128,-1,7
 209 732 209 732 250.5 732 c 128,-1,0
 292 732 292 732 317.5 706 c 128,-1,1
295 637 m 0,8,9
 295 683 295 683 249 683 c 0,10,11
 198 683 198 683 198 631 c 0,12,13
 198 586 198 586 245 586 c 0,14,15
 295 586 295 586 295 637 c 0,8,9
330 200 m 1,16,17
 289 215 289 215 235.5 215 c 128,-1,18
 182 215 182 215 158 198 c 1,19,20
 143 175 143 175 143 136.5 c 128,-1,21
 143 98 143 98 164 76 c 128,-1,22
 185 54 185 54 216.5 54 c 128,-1,23
 248 54 248 54 281 70.5 c 128,-1,24
 314 87 314 87 330 106 c 1,25,-1
 330 200 l 1,16,17
346 56 m 1,26,27
 285 -11 285 -11 208.5 -11 c 128,-1,28
 132 -11 132 -11 88.5 22 c 128,-1,29
 45 55 45 55 45 128.5 c 128,-1,30
 45 202 45 202 96.5 234 c 128,-1,31
 148 266 148 266 242 266 c 1,32,-1
 330 263 l 1,33,-1
 330 320 l 2,34,35
 330 373 330 373 304 406 c 128,-1,36
 278 439 278 439 225 439 c 1,37,38
 186 438 186 438 100 364 c 1,39,40
 71 401 71 401 59 460 c 1,41,42
 158 492 158 492 241 492 c 128,-1,43
 324 492 324 492 374 449 c 128,-1,44
 424 406 424 406 424 327 c 2,45,-1
 424 159 l 1,46,47
 425 114 425 114 438.5 75.5 c 128,-1,48
 452 37 452 37 474 22 c 1,49,-1
 476 12 l 1,50,-1
 369 -14 l 1,51,52
 356 18 356 18 346 56 c 1,26,27
EndSplineSet
EndChar

StartChar: ae
Encoding: 230 230 167
Width: 780
GlyphClass: 2
Flags: W
LayerCount: 2
Fore
SplineSet
627.5 10 m 128,-1,1
 579 -11 579 -11 537.5 -11 c 128,-1,2
 496 -11 496 -11 449 11.5 c 128,-1,3
 402 34 402 34 376 74 c 1,4,5
 298 -11 298 -11 200 -11 c 0,6,7
 134 -11 134 -11 89.5 23.5 c 128,-1,8
 45 58 45 58 45 126 c 0,9,10
 45 261 45 261 242 261 c 1,11,-1
 330 257 l 1,12,-1
 330 320 l 2,13,14
 330 373 330 373 304 406 c 128,-1,15
 278 439 278 439 225 439 c 1,16,17
 186 438 186 438 100 364 c 1,18,19
 71 401 71 401 59 460 c 1,20,21
 158 492 158 492 237 492 c 0,22,23
 354 492 354 492 400 417 c 1,24,25
 467 492 467 492 560 492 c 128,-1,26
 653 492 653 492 696 433 c 128,-1,27
 739 374 739 374 739 271 c 1,28,-1
 702 235 l 1,29,-1
 436 235 l 1,30,31
 436 153 436 153 472 110 c 128,-1,32
 508 67 508 67 568.5 67 c 128,-1,33
 629 67 629 67 715 116 c 1,34,-1
 740 78 l 1,35,36
 722 63 722 63 699 47 c 128,-1,0
 676 31 676 31 627.5 10 c 128,-1,1
546 442 m 0,37,38
 499 442 499 442 476 423 c 1,39,40
 457 397 457 397 446 357 c 128,-1,41
 435 317 435 317 435 287 c 1,42,-1
 640 295 l 1,43,44
 640 442 640 442 546 442 c 0,37,38
333 196 m 1,45,46
 289 210 289 210 236 210 c 128,-1,47
 183 210 183 210 158 194 c 1,48,49
 143 172 143 172 143 135 c 128,-1,50
 143 98 143 98 165 76 c 128,-1,51
 187 54 187 54 222.5 54 c 128,-1,52
 258 54 258 54 293 73 c 128,-1,53
 328 92 328 92 349 119 c 1,54,55
 337 158 337 158 333 196 c 1,45,46
EndSplineSet
EndChar

StartChar: ccedilla
Encoding: 231 231 168
Width: 490
GlyphClass: 2
Flags: W
LayerCount: 2
Fore
SplineSet
169 354.5 m 128,-1,1
 150 305 150 305 150 236.5 c 128,-1,2
 150 168 150 168 177.5 117 c 128,-1,3
 205 66 205 66 265 66 c 0,4,5
 305 66 305 66 358 84.5 c 128,-1,6
 411 103 411 103 428 116 c 1,7,-1
 453 77 l 1,8,9
 356 8 356 8 293 -7 c 1,10,-1
 255 -68 l 1,11,12
 265 -65 265 -65 292 -65.5 c 128,-1,13
 319 -66 319 -66 342.5 -84.5 c 128,-1,14
 366 -103 366 -103 366 -140.5 c 128,-1,15
 366 -178 366 -178 334 -201 c 128,-1,16
 302 -224 302 -224 257 -224 c 0,17,18
 234 -224 234 -224 201 -213.5 c 128,-1,19
 168 -203 168 -203 155 -195 c 1,20,-1
 171 -163 l 1,21,22
 205 -180 205 -180 238 -180 c 0,23,24
 290 -180 290 -180 290 -135 c 0,25,26
 290 -114 290 -114 278 -102 c 1,27,28
 263 -95 263 -95 242.5 -95 c 128,-1,29
 222 -95 222 -95 201 -99 c 1,30,-1
 195 -90 l 1,31,-1
 233 -10 l 1,32,33
 145 -1 145 -1 94.5 65.5 c 128,-1,34
 44 132 44 132 44 238.5 c 128,-1,35
 44 345 44 345 118.5 419 c 128,-1,36
 193 493 193 493 288.5 493 c 128,-1,37
 384 493 384 493 447 450 c 1,38,39
 408 388 408 388 396 375 c 1,40,41
 328 427 328 427 266 427 c 0,42,43
 243 427 243 427 221 424 c 1,44,0
 188 404 188 404 169 354.5 c 128,-1,1
EndSplineSet
EndChar

StartChar: egrave
Encoding: 232 232 169
Width: 494
GlyphClass: 2
Flags: W
LayerCount: 2
Fore
SplineSet
294 530 m 1,0,1
 205 579 205 579 107 674 c 1,2,3
 132 715 132 715 175 732 c 1,4,5
 229 636 229 636 317 556 c 1,6,-1
 294 530 l 1,0,1
267 -11 m 0,7,8
 162 -11 162 -11 103 54 c 128,-1,9
 44 119 44 119 44 225.5 c 128,-1,10
 44 332 44 332 110 412 c 128,-1,11
 176 492 176 492 274 492 c 0,12,13
 453 492 453 492 453 271 c 1,14,-1
 416 235 l 1,15,-1
 150 235 l 1,16,17
 150 151 150 151 186 109 c 128,-1,18
 222 67 222 67 283 67 c 0,19,20
 307 67 307 67 351 81.5 c 128,-1,21
 395 96 395 96 429 116 c 1,22,-1
 454 78 l 1,23,24
 435 59 435 59 371.5 24 c 128,-1,25
 308 -11 308 -11 267 -11 c 0,7,8
256 442 m 0,26,27
 214 442 214 442 191 423 c 1,28,29
 172 397 172 397 161 357 c 128,-1,30
 150 317 150 317 150 287 c 1,31,-1
 355 295 l 1,32,33
 355 442 355 442 256 442 c 0,26,27
EndSplineSet
EndChar

StartChar: eacute
Encoding: 233 233 170
Width: 494
GlyphClass: 2
Flags: W
LayerCount: 2
Fore
SplineSet
391 674 m 1,0,1
 293 579 293 579 204 530 c 1,2,-1
 181 556 l 1,3,4
 269 636 269 636 323 732 c 1,5,6
 366 715 366 715 391 674 c 1,0,1
267 -11 m 0,7,8
 162 -11 162 -11 103 54 c 128,-1,9
 44 119 44 119 44 225.5 c 128,-1,10
 44 332 44 332 110 412 c 128,-1,11
 176 492 176 492 274 492 c 0,12,13
 453 492 453 492 453 271 c 1,14,-1
 416 235 l 1,15,-1
 150 235 l 1,16,17
 150 151 150 151 186 109 c 128,-1,18
 222 67 222 67 283 67 c 0,19,20
 307 67 307 67 351 81.5 c 128,-1,21
 395 96 395 96 429 116 c 1,22,-1
 454 78 l 1,23,24
 435 59 435 59 371.5 24 c 128,-1,25
 308 -11 308 -11 267 -11 c 0,7,8
256 442 m 0,26,27
 214 442 214 442 191 423 c 1,28,29
 172 397 172 397 161 357 c 128,-1,30
 150 317 150 317 150 287 c 1,31,-1
 355 295 l 1,32,33
 355 442 355 442 256 442 c 0,26,27
EndSplineSet
EndChar

StartChar: ecircumflex
Encoding: 234 234 171
Width: 494
GlyphClass: 2
Flags: W
LayerCount: 2
Fore
SplineSet
229 718 m 1,0,-1
 299 729 l 1,1,2
 320 667 320 667 363 616 c 0,3,4
 378 598 378 598 408 564 c 1,5,-1
 374 530 l 1,6,7
 349 550 349 550 310.5 592.5 c 128,-1,8
 272 635 272 635 256 661 c 1,9,10
 211 599 211 599 152 538 c 1,11,-1
 122 565 l 1,12,13
 153 600 153 600 166 615 c 128,-1,14
 179 630 179 630 199 660 c 128,-1,15
 219 690 219 690 229 718 c 1,0,-1
267 -11 m 0,16,17
 162 -11 162 -11 103 54 c 128,-1,18
 44 119 44 119 44 225.5 c 128,-1,19
 44 332 44 332 110 412 c 128,-1,20
 176 492 176 492 274 492 c 0,21,22
 453 492 453 492 453 271 c 1,23,-1
 416 235 l 1,24,-1
 150 235 l 1,25,26
 150 151 150 151 186 109 c 128,-1,27
 222 67 222 67 283 67 c 0,28,29
 307 67 307 67 351 81.5 c 128,-1,30
 395 96 395 96 429 116 c 1,31,-1
 454 78 l 1,32,33
 435 59 435 59 371.5 24 c 128,-1,34
 308 -11 308 -11 267 -11 c 0,16,17
256 442 m 0,35,36
 214 442 214 442 191 423 c 1,37,38
 172 397 172 397 161 357 c 128,-1,39
 150 317 150 317 150 287 c 1,40,-1
 355 295 l 1,41,42
 355 442 355 442 256 442 c 0,35,36
EndSplineSet
EndChar

StartChar: edieresis
Encoding: 235 235 172
Width: 494
GlyphClass: 2
Flags: W
LayerCount: 2
Fore
SplineSet
398 687 m 1,0,1
 405 679 405 679 408.5 657.5 c 128,-1,2
 412 636 412 636 412 625 c 128,-1,3
 412 614 412 614 411 607 c 1,4,-1
 403 600 l 1,5,6
 366 588 366 588 330 585 c 1,7,-1
 317 585 l 1,8,-1
 307 588 l 1,9,10
 292 618 292 618 292 668 c 1,11,-1
 302 676 l 1,12,13
 340 689 340 689 373 691 c 1,14,-1
 390 691 l 1,15,-1
 398 687 l 1,0,1
194 678 m 1,16,17
 201 670 201 670 204.5 648.5 c 128,-1,18
 208 627 208 627 208 616 c 128,-1,19
 208 605 208 605 207 598 c 1,20,-1
 199 591 l 1,21,22
 162 579 162 579 126 576 c 1,23,-1
 113 576 l 1,24,-1
 103 579 l 1,25,26
 88 609 88 609 88 658 c 1,27,-1
 98 667 l 1,28,29
 136 680 136 680 169 682 c 1,30,-1
 186 682 l 1,31,-1
 194 678 l 1,16,17
267 -11 m 0,32,33
 162 -11 162 -11 103 54 c 128,-1,34
 44 119 44 119 44 225.5 c 128,-1,35
 44 332 44 332 110 412 c 128,-1,36
 176 492 176 492 274 492 c 0,37,38
 453 492 453 492 453 271 c 1,39,-1
 416 235 l 1,40,-1
 150 235 l 1,41,42
 150 151 150 151 186 109 c 128,-1,43
 222 67 222 67 283 67 c 0,44,45
 307 67 307 67 351 81.5 c 128,-1,46
 395 96 395 96 429 116 c 1,47,-1
 454 78 l 1,48,49
 435 59 435 59 371.5 24 c 128,-1,50
 308 -11 308 -11 267 -11 c 0,32,33
256 442 m 0,51,52
 214 442 214 442 191 423 c 1,53,54
 172 397 172 397 161 357 c 128,-1,55
 150 317 150 317 150 287 c 1,56,-1
 355 295 l 1,57,58
 355 442 355 442 256 442 c 0,51,52
EndSplineSet
EndChar

StartChar: igrave
Encoding: 236 236 173
Width: 288
GlyphClass: 2
Flags: W
LayerCount: 2
Fore
SplineSet
109 139 m 2,0,-1
 109 333 l 2,1,2
 109 422 109 422 59 457 c 1,3,-1
 59 469 l 1,4,-1
 200 493 l 1,5,-1
 206 483 l 1,6,7
 203 454 203 454 203 400 c 2,8,-1
 203 164 l 2,9,10
 203 64 203 64 228 7 c 1,11,-1
 228 0 l 1,12,-1
 93 0 l 1,13,-1
 93 7 l 1,14,15
 109 54 109 54 109 139 c 2,0,-1
203 530 m 1,16,17
 114 579 114 579 16 674 c 1,18,19
 41 715 41 715 84 732 c 1,20,21
 138 636 138 636 226 556 c 1,22,-1
 203 530 l 1,16,17
EndSplineSet
EndChar

StartChar: iacute
Encoding: 237 237 174
Width: 286
GlyphClass: 2
Flags: W
LayerCount: 2
Fore
SplineSet
99 139 m 2,0,-1
 99 333 l 2,1,2
 99 422 99 422 49 457 c 1,3,-1
 49 469 l 1,4,-1
 190 493 l 1,5,-1
 196 483 l 1,6,7
 193 454 193 454 193 400 c 2,8,-1
 193 164 l 2,9,10
 193 64 193 64 218 7 c 1,11,-1
 218 0 l 1,12,-1
 83 0 l 1,13,-1
 83 7 l 1,14,15
 99 54 99 54 99 139 c 2,0,-1
291 674 m 1,16,17
 199 582 199 582 104 530 c 1,18,-1
 81 556 l 1,19,20
 169 636 169 636 223 732 c 1,21,22
 266 715 266 715 291 674 c 1,16,17
EndSplineSet
EndChar

StartChar: icircumflex
Encoding: 238 238 175
Width: 344
GlyphClass: 2
Flags: W
LayerCount: 2
Fore
SplineSet
128 139 m 2,0,-1
 128 333 l 2,1,2
 128 422 128 422 78 457 c 1,3,-1
 78 469 l 1,4,-1
 219 493 l 1,5,-1
 225 483 l 1,6,7
 222 454 222 454 222 400 c 2,8,-1
 222 164 l 2,9,10
 222 64 222 64 247 7 c 1,11,-1
 247 0 l 1,12,-1
 112 0 l 1,13,-1
 112 7 l 1,14,15
 128 54 128 54 128 139 c 2,0,-1
109 718 m 1,16,-1
 179 729 l 1,17,18
 200 667 200 667 243 616 c 0,19,20
 258 598 258 598 288 564 c 1,21,-1
 254 530 l 1,22,23
 229 550 229 550 190.5 592.5 c 128,-1,24
 152 635 152 635 136 661 c 1,25,26
 91 599 91 599 32 538 c 1,27,-1
 2 565 l 1,28,29
 33 600 33 600 46 615 c 128,-1,30
 59 630 59 630 79 660 c 128,-1,31
 99 690 99 690 109 718 c 1,16,-1
EndSplineSet
EndChar

StartChar: idieresis
Encoding: 239 239 176
Width: 357
GlyphClass: 2
Flags: W
LayerCount: 2
Fore
SplineSet
133 139 m 2,0,-1
 133 333 l 2,1,2
 133 422 133 422 83 457 c 1,3,-1
 83 469 l 1,4,-1
 224 493 l 1,5,-1
 230 483 l 1,6,7
 227 454 227 454 227 400 c 2,8,-1
 227 164 l 2,9,10
 227 64 227 64 252 7 c 1,11,-1
 252 0 l 1,12,-1
 117 0 l 1,13,-1
 117 7 l 1,14,15
 133 54 133 54 133 139 c 2,0,-1
299 687 m 1,16,17
 306 679 306 679 309.5 657.5 c 128,-1,18
 313 636 313 636 313 625 c 128,-1,19
 313 614 313 614 312 607 c 1,20,-1
 304 600 l 1,21,22
 267 588 267 588 230 585 c 1,23,-1
 218 585 l 1,24,-1
 208 588 l 1,25,26
 193 618 193 618 193 668 c 1,27,-1
 203 676 l 1,28,29
 239 689 239 689 274 691 c 1,30,-1
 291 691 l 1,31,-1
 299 687 l 1,16,17
129 678 m 1,32,33
 136 670 136 670 139.5 648.5 c 128,-1,34
 143 627 143 627 143 616 c 128,-1,35
 143 605 143 605 142 598 c 1,36,-1
 134 591 l 1,37,38
 98 579 98 579 61 576 c 1,39,-1
 48 576 l 1,40,-1
 38 579 l 1,41,42
 23 609 23 609 23 658 c 1,43,-1
 33 667 l 1,44,45
 71 680 71 680 105 682 c 1,46,-1
 121 682 l 1,47,-1
 129 678 l 1,32,33
EndSplineSet
EndChar

StartChar: eth
Encoding: 240 240 177
Width: 562
GlyphClass: 2
Flags: W
LayerCount: 2
Fore
SplineSet
518 250 m 0,0,1
 518 144 518 144 447 66 c 128,-1,2
 376 -12 376 -12 271 -12 c 128,-1,3
 166 -12 166 -12 105 54.5 c 128,-1,4
 44 121 44 121 44 233 c 128,-1,5
 44 345 44 345 110.5 418.5 c 128,-1,6
 177 492 177 492 289 492 c 0,7,8
 292 492 292 492 295 492 c 1,9,10
 264 531 264 531 225 567 c 1,11,12
 120 527 120 527 87 512 c 1,13,-1
 91 570 l 1,14,15
 144 586 144 586 187 603 c 1,16,17
 115 666 115 666 48 700 c 1,18,-1
 47 707 l 1,19,-1
 191 740 l 1,20,21
 213 704 213 704 268 634 c 1,22,23
 313 651 313 651 403 687 c 1,24,-1
 400 631 l 1,25,26
 367 621 367 621 300 596 c 1,27,28
 356 537 356 537 376 518 c 0,29,30
 464 433 464 433 491 382 c 128,-1,31
 518 331 518 331 518 250 c 0,0,1
412 228 m 0,32,33
 412 327 412 327 381 381 c 128,-1,34
 350 435 350 435 271 435 c 0,35,36
 220 435 220 435 191 413 c 1,37,38
 173 390 173 390 161.5 343 c 128,-1,39
 150 296 150 296 150 253 c 0,40,41
 150 44 150 44 298 44 c 0,42,43
 344 44 344 44 373 65 c 1,44,45
 392 88 392 88 402 136 c 128,-1,46
 412 184 412 184 412 228 c 0,32,33
EndSplineSet
EndChar

StartChar: ntilde
Encoding: 241 241 178
Width: 605
GlyphClass: 2
Flags: W
LayerCount: 2
Fore
SplineSet
370 569 m 0,0,1
 346 569 346 569 295.5 593 c 128,-1,2
 245 617 245 617 220 617 c 0,3,4
 187 617 187 617 144 586 c 0,5,6
 135 580 135 580 133 579 c 1,7,-1
 113 597 l 1,8,9
 137 627 137 627 173.5 659.5 c 128,-1,10
 210 692 210 692 232.5 692 c 128,-1,11
 255 692 255 692 303.5 670.5 c 128,-1,12
 352 649 352 649 377.5 649 c 128,-1,13
 403 649 403 649 465 686 c 1,14,-1
 484 669 l 1,15,16
 407 569 407 569 370 569 c 0,0,1
369 492 m 0,17,18
 441 492 441 492 480.5 446 c 128,-1,19
 520 400 520 400 520 314 c 2,20,-1
 520 170 l 2,21,22
 520 75 520 75 550 7 c 1,23,-1
 550 0 l 1,24,-1
 409 0 l 1,25,-1
 409 7 l 1,26,27
 426 57 426 57 426 140 c 2,28,-1
 426 293 l 2,29,30
 426 351 426 351 408.5 380.5 c 128,-1,31
 391 410 391 410 338 410 c 128,-1,32
 285 410 285 410 202 359 c 1,33,-1
 202 170 l 2,34,35
 202 73 202 73 231 7 c 1,36,-1
 231 0 l 1,37,-1
 91 0 l 1,38,-1
 91 7 l 1,39,40
 108 57 108 57 108 140 c 2,41,-1
 108 310 l 2,42,43
 108 353 108 353 90.5 394.5 c 128,-1,44
 73 436 73 436 50 450 c 1,45,-1
 49 462 l 1,46,-1
 180 493 l 1,47,-1
 186 483 l 1,48,49
 194 446 194 446 198 408 c 1,50,51
 235 437 235 437 255.5 451 c 128,-1,52
 276 465 276 465 308 478.5 c 128,-1,53
 340 492 340 492 369 492 c 0,17,18
EndSplineSet
EndChar

StartChar: ograve
Encoding: 242 242 179
Width: 562
GlyphClass: 2
Flags: W
LayerCount: 2
Fore
SplineSet
334 530 m 1,0,1
 245 579 245 579 147 674 c 1,2,3
 172 715 172 715 215 732 c 1,4,5
 269 636 269 636 357 556 c 1,6,-1
 334 530 l 1,0,1
105 54.5 m 128,-1,8
 44 121 44 121 44 228.5 c 128,-1,9
 44 336 44 336 115 414 c 128,-1,10
 186 492 186 492 293.5 492 c 128,-1,11
 401 492 401 492 459.5 427 c 128,-1,12
 518 362 518 362 518 253 c 128,-1,13
 518 144 518 144 447 66 c 128,-1,14
 376 -12 376 -12 271 -12 c 128,-1,7
 166 -12 166 -12 105 54.5 c 128,-1,8
412 228 m 0,15,16
 412 327 412 327 381 381 c 128,-1,17
 350 435 350 435 271 435 c 0,18,19
 220 435 220 435 191 413 c 1,20,21
 173 390 173 390 161.5 343 c 128,-1,22
 150 296 150 296 150 253 c 0,23,24
 150 44 150 44 298 44 c 0,25,26
 344 44 344 44 373 65 c 1,27,28
 392 88 392 88 402 136 c 128,-1,29
 412 184 412 184 412 228 c 0,15,16
EndSplineSet
EndChar

StartChar: oacute
Encoding: 243 243 180
Width: 562
GlyphClass: 2
Flags: W
LayerCount: 2
Fore
SplineSet
426 674 m 1,0,1
 334 582 334 582 239 530 c 1,2,-1
 216 556 l 1,3,4
 304 636 304 636 358 732 c 1,5,6
 401 715 401 715 426 674 c 1,0,1
105 54.5 m 128,-1,8
 44 121 44 121 44 228.5 c 128,-1,9
 44 336 44 336 115 414 c 128,-1,10
 186 492 186 492 293.5 492 c 128,-1,11
 401 492 401 492 459.5 427 c 128,-1,12
 518 362 518 362 518 253 c 128,-1,13
 518 144 518 144 447 66 c 128,-1,14
 376 -12 376 -12 271 -12 c 128,-1,7
 166 -12 166 -12 105 54.5 c 128,-1,8
412 228 m 0,15,16
 412 327 412 327 381 381 c 128,-1,17
 350 435 350 435 271 435 c 0,18,19
 220 435 220 435 191 413 c 1,20,21
 173 390 173 390 161.5 343 c 128,-1,22
 150 296 150 296 150 253 c 0,23,24
 150 44 150 44 298 44 c 0,25,26
 344 44 344 44 373 65 c 1,27,28
 392 88 392 88 402 136 c 128,-1,29
 412 184 412 184 412 228 c 0,15,16
EndSplineSet
EndChar

StartChar: ocircumflex
Encoding: 244 244 181
Width: 562
GlyphClass: 2
Flags: W
LayerCount: 2
Fore
SplineSet
254 718 m 1,0,-1
 324 729 l 1,1,2
 345 667 345 667 388 616 c 0,3,4
 403 598 403 598 433 564 c 1,5,-1
 399 530 l 1,6,7
 374 550 374 550 335.5 592.5 c 128,-1,8
 297 635 297 635 281 661 c 1,9,10
 236 599 236 599 177 538 c 1,11,-1
 147 565 l 1,12,13
 178 600 178 600 191 615 c 128,-1,14
 204 630 204 630 224 660 c 128,-1,15
 244 690 244 690 254 718 c 1,0,-1
105 54.5 m 128,-1,17
 44 121 44 121 44 228.5 c 128,-1,18
 44 336 44 336 115 414 c 128,-1,19
 186 492 186 492 293.5 492 c 128,-1,20
 401 492 401 492 459.5 427 c 128,-1,21
 518 362 518 362 518 253 c 128,-1,22
 518 144 518 144 447 66 c 128,-1,23
 376 -12 376 -12 271 -12 c 128,-1,16
 166 -12 166 -12 105 54.5 c 128,-1,17
412 228 m 0,24,25
 412 327 412 327 381 381 c 128,-1,26
 350 435 350 435 271 435 c 0,27,28
 220 435 220 435 191 413 c 1,29,30
 173 390 173 390 161.5 343 c 128,-1,31
 150 296 150 296 150 253 c 0,32,33
 150 44 150 44 298 44 c 0,34,35
 344 44 344 44 373 65 c 1,36,37
 392 88 392 88 402 136 c 128,-1,38
 412 184 412 184 412 228 c 0,24,25
EndSplineSet
EndChar

StartChar: otilde
Encoding: 245 245 182
Width: 562
GlyphClass: 2
Flags: W
LayerCount: 2
Fore
SplineSet
357 569 m 0,0,1
 333 569 333 569 282.5 593 c 128,-1,2
 232 617 232 617 207 617 c 0,3,4
 174 617 174 617 130 586 c 0,5,6
 122 580 122 580 120 579 c 1,7,-1
 100 597 l 1,8,9
 124 627 124 627 160.5 659.5 c 128,-1,10
 197 692 197 692 219.5 692 c 128,-1,11
 242 692 242 692 290.5 670.5 c 128,-1,12
 339 649 339 649 364.5 649 c 128,-1,13
 390 649 390 649 452 686 c 1,14,-1
 471 669 l 1,15,16
 394 569 394 569 357 569 c 0,0,1
105 54.5 m 128,-1,18
 44 121 44 121 44 228.5 c 128,-1,19
 44 336 44 336 115 414 c 128,-1,20
 186 492 186 492 293.5 492 c 128,-1,21
 401 492 401 492 459.5 427 c 128,-1,22
 518 362 518 362 518 253 c 128,-1,23
 518 144 518 144 447 66 c 128,-1,24
 376 -12 376 -12 271 -12 c 128,-1,17
 166 -12 166 -12 105 54.5 c 128,-1,18
412 228 m 0,25,26
 412 327 412 327 381 381 c 128,-1,27
 350 435 350 435 271 435 c 0,28,29
 220 435 220 435 191 413 c 1,30,31
 173 390 173 390 161.5 343 c 128,-1,32
 150 296 150 296 150 253 c 0,33,34
 150 44 150 44 298 44 c 0,35,36
 344 44 344 44 373 65 c 1,37,38
 392 88 392 88 402 136 c 128,-1,39
 412 184 412 184 412 228 c 0,25,26
EndSplineSet
EndChar

StartChar: odieresis
Encoding: 246 246 183
Width: 562
GlyphClass: 2
Flags: W
LayerCount: 2
Fore
SplineSet
418 687 m 1,0,1
 425 679 425 679 428.5 657.5 c 128,-1,2
 432 636 432 636 432 625 c 128,-1,3
 432 614 432 614 431 607 c 1,4,-1
 423 600 l 1,5,6
 386 588 386 588 350 585 c 1,7,-1
 337 585 l 1,8,-1
 327 588 l 1,9,10
 312 618 312 618 312 668 c 1,11,-1
 322 676 l 1,12,13
 360 689 360 689 393 691 c 1,14,-1
 410 691 l 1,15,-1
 418 687 l 1,0,1
216 678 m 1,16,17
 223 670 223 670 226.5 648.5 c 128,-1,18
 230 627 230 627 230 616 c 128,-1,19
 230 605 230 605 229 598 c 1,20,-1
 221 591 l 1,21,22
 184 579 184 579 148 576 c 1,23,-1
 135 576 l 1,24,-1
 125 579 l 1,25,26
 110 609 110 609 110 658 c 1,27,-1
 120 667 l 1,28,29
 158 680 158 680 191 682 c 1,30,-1
 208 682 l 1,31,-1
 216 678 l 1,16,17
105 54.5 m 128,-1,33
 44 121 44 121 44 228.5 c 128,-1,34
 44 336 44 336 115 414 c 128,-1,35
 186 492 186 492 293.5 492 c 128,-1,36
 401 492 401 492 459.5 427 c 128,-1,37
 518 362 518 362 518 253 c 128,-1,38
 518 144 518 144 447 66 c 128,-1,39
 376 -12 376 -12 271 -12 c 128,-1,32
 166 -12 166 -12 105 54.5 c 128,-1,33
412 228 m 0,40,41
 412 327 412 327 381 381 c 128,-1,42
 350 435 350 435 271 435 c 0,43,44
 220 435 220 435 191 413 c 1,45,46
 173 390 173 390 161.5 343 c 128,-1,47
 150 296 150 296 150 253 c 0,48,49
 150 44 150 44 298 44 c 0,50,51
 344 44 344 44 373 65 c 1,52,53
 392 88 392 88 402 136 c 128,-1,54
 412 184 412 184 412 228 c 0,40,41
EndSplineSet
EndChar

StartChar: divide
Encoding: 247 247 184
Width: 536
GlyphClass: 2
Flags: W
LayerCount: 2
Fore
SplineSet
216 466 m 128,-1,1
 216 486 216 486 229.5 500 c 128,-1,2
 243 514 243 514 263 514 c 128,-1,3
 283 514 283 514 297 500 c 128,-1,4
 311 486 311 486 311 466 c 128,-1,5
 311 446 311 446 297 432.5 c 128,-1,6
 283 419 283 419 263 419 c 128,-1,7
 243 419 243 419 229.5 432.5 c 128,-1,0
 216 446 216 446 216 466 c 128,-1,1
216 177 m 128,-1,9
 216 197 216 197 229.5 211 c 128,-1,10
 243 225 243 225 263 225 c 128,-1,11
 283 225 283 225 297 211 c 128,-1,12
 311 197 311 197 311 177 c 128,-1,13
 311 157 311 157 297 143.5 c 128,-1,14
 283 130 283 130 263 130 c 128,-1,15
 243 130 243 130 229.5 143.5 c 128,-1,8
 216 157 216 157 216 177 c 128,-1,9
526 354 m 1,16,-1
 525 288 l 1,17,-1
 10 288 l 1,18,-1
 11 355 l 1,19,-1
 526 354 l 1,16,-1
EndSplineSet
EndChar

StartChar: oslash
Encoding: 248 248 185
Width: 548
GlyphClass: 2
Flags: W
LayerCount: 2
Fore
SplineSet
31 230 m 0,0,1
 31 336 31 336 102 414 c 128,-1,2
 173 492 173 492 276 492 c 0,3,4
 317 492 317 492 360 480 c 1,5,6
 381 521 381 521 398 564 c 1,7,-1
 460 570 l 1,8,-1
 459 564 l 1,9,10
 438 532 438 532 398 464 c 1,11,12
 505 406 505 406 505 250 c 0,13,14
 505 144 505 144 434 66 c 128,-1,15
 363 -12 363 -12 260 -12 c 0,16,17
 205 -12 205 -12 159 7 c 1,18,19
 144 -24 144 -24 126 -67 c 1,20,-1
 53 -81 l 1,21,-1
 54 -75 l 1,22,23
 76 -45 76 -45 121 29 c 1,24,25
 31 93 31 93 31 230 c 0,0,1
399 228 m 0,26,27
 399 344 399 344 358 393 c 1,28,29
 301 287 301 287 192 75 c 1,30,31
 228 44 228 44 279.5 44 c 128,-1,32
 331 44 331 44 360 65 c 1,33,34
 379 88 379 88 389 136 c 128,-1,35
 399 184 399 184 399 228 c 0,26,27
328 419 m 1,36,37
 299 435 299 435 253 435 c 128,-1,38
 207 435 207 435 178 413 c 1,39,40
 160 390 160 390 148.5 343 c 128,-1,41
 137 296 137 296 137 253 c 0,42,43
 137 160 137 160 166 108 c 1,44,45
 243 248 243 248 325 412 c 1,46,-1
 328 419 l 1,36,37
EndSplineSet
EndChar

StartChar: ugrave
Encoding: 249 249 186
Width: 602
GlyphClass: 2
Flags: W
LayerCount: 2
Fore
SplineSet
344 530 m 1,0,1
 249 582 249 582 157 674 c 1,2,3
 182 715 182 715 225 732 c 1,4,5
 279 636 279 636 367 556 c 1,6,-1
 344 530 l 1,0,1
236 -11 m 0,7,8
 152 -11 152 -11 118.5 32.5 c 128,-1,9
 85 76 85 76 85 167 c 2,10,-1
 85 310 l 2,11,12
 85 405 85 405 55 473 c 1,13,-1
 55 480 l 1,14,-1
 194 480 l 1,15,-1
 194 473 l 1,16,17
 179 420 179 420 179 340 c 2,18,-1
 179 183 l 2,19,20
 179 123 179 123 194 97 c 128,-1,21
 209 71 209 71 267 71 c 128,-1,22
 325 71 325 71 403 126 c 1,23,-1
 403 310 l 2,24,25
 403 407 403 407 374 473 c 1,26,-1
 374 480 l 1,27,-1
 512 480 l 1,28,-1
 512 473 l 1,29,30
 497 420 497 420 497 340 c 2,31,-1
 497 171 l 2,32,33
 497 127 497 127 512 84.5 c 128,-1,34
 527 42 527 42 547 28 c 1,35,-1
 548 16 l 1,36,-1
 431 -12 l 1,37,38
 414 34 414 34 407 76 c 1,39,40
 358 34 358 34 318 11.5 c 128,-1,41
 278 -11 278 -11 236 -11 c 0,7,8
EndSplineSet
EndChar

StartChar: uacute
Encoding: 250 250 187
Width: 602
GlyphClass: 2
Flags: W
LayerCount: 2
Fore
SplineSet
442 674 m 1,0,1
 344 579 344 579 255 530 c 1,2,-1
 232 556 l 1,3,4
 320 636 320 636 374 732 c 1,5,6
 417 715 417 715 442 674 c 1,0,1
236 -11 m 0,7,8
 152 -11 152 -11 118.5 32.5 c 128,-1,9
 85 76 85 76 85 167 c 2,10,-1
 85 310 l 2,11,12
 85 405 85 405 55 473 c 1,13,-1
 55 480 l 1,14,-1
 194 480 l 1,15,-1
 194 473 l 1,16,17
 179 420 179 420 179 340 c 2,18,-1
 179 183 l 2,19,20
 179 123 179 123 194 97 c 128,-1,21
 209 71 209 71 267 71 c 128,-1,22
 325 71 325 71 403 126 c 1,23,-1
 403 310 l 2,24,25
 403 407 403 407 374 473 c 1,26,-1
 374 480 l 1,27,-1
 512 480 l 1,28,-1
 512 473 l 1,29,30
 497 420 497 420 497 340 c 2,31,-1
 497 171 l 2,32,33
 497 127 497 127 512 84.5 c 128,-1,34
 527 42 527 42 547 28 c 1,35,-1
 548 16 l 1,36,-1
 431 -12 l 1,37,38
 414 34 414 34 407 76 c 1,39,40
 358 34 358 34 318 11.5 c 128,-1,41
 278 -11 278 -11 236 -11 c 0,7,8
EndSplineSet
EndChar

StartChar: ucircumflex
Encoding: 251 251 188
Width: 602
GlyphClass: 2
Flags: W
LayerCount: 2
Fore
SplineSet
256 718 m 1,0,-1
 326 729 l 1,1,2
 347 667 347 667 390 616 c 0,3,4
 405 598 405 598 435 564 c 1,5,-1
 401 530 l 1,6,7
 376 550 376 550 337.5 592.5 c 128,-1,8
 299 635 299 635 283 661 c 1,9,10
 238 599 238 599 179 538 c 1,11,-1
 149 565 l 1,12,13
 180 600 180 600 193 615 c 128,-1,14
 206 630 206 630 226 660 c 128,-1,15
 246 690 246 690 256 718 c 1,0,-1
236 -11 m 0,16,17
 152 -11 152 -11 118.5 32.5 c 128,-1,18
 85 76 85 76 85 167 c 2,19,-1
 85 310 l 2,20,21
 85 405 85 405 55 473 c 1,22,-1
 55 480 l 1,23,-1
 194 480 l 1,24,-1
 194 473 l 1,25,26
 179 420 179 420 179 340 c 2,27,-1
 179 183 l 2,28,29
 179 123 179 123 194 97 c 128,-1,30
 209 71 209 71 267 71 c 128,-1,31
 325 71 325 71 403 126 c 1,32,-1
 403 310 l 2,33,34
 403 407 403 407 374 473 c 1,35,-1
 374 480 l 1,36,-1
 512 480 l 1,37,-1
 512 473 l 1,38,39
 497 420 497 420 497 340 c 2,40,-1
 497 171 l 2,41,42
 497 127 497 127 512 84.5 c 128,-1,43
 527 42 527 42 547 28 c 1,44,-1
 548 16 l 1,45,-1
 431 -12 l 1,46,47
 414 34 414 34 407 76 c 1,48,49
 358 34 358 34 318 11.5 c 128,-1,50
 278 -11 278 -11 236 -11 c 0,16,17
EndSplineSet
EndChar

StartChar: udieresis
Encoding: 252 252 189
Width: 602
GlyphClass: 2
Flags: W
LayerCount: 2
Fore
SplineSet
462 682 m 1,0,1
 469 674 469 674 472.5 652.5 c 128,-1,2
 476 631 476 631 476 620 c 128,-1,3
 476 609 476 609 475 602 c 1,4,-1
 467 595 l 1,5,6
 430 583 430 583 394 580 c 1,7,-1
 381 580 l 1,8,-1
 371 583 l 1,9,10
 356 613 356 613 356 663 c 1,11,-1
 366 671 l 1,12,13
 404 684 404 684 437 686 c 1,14,-1
 454 686 l 1,15,-1
 462 682 l 1,0,1
216 673 m 1,16,17
 223 665 223 665 226.5 643.5 c 128,-1,18
 230 622 230 622 230 611 c 128,-1,19
 230 600 230 600 229 593 c 1,20,-1
 221 586 l 1,21,22
 184 574 184 574 148 571 c 1,23,-1
 135 571 l 1,24,-1
 125 574 l 1,25,26
 110 604 110 604 110 653 c 1,27,-1
 120 662 l 1,28,29
 158 675 158 675 191 677 c 1,30,-1
 208 677 l 1,31,-1
 216 673 l 1,16,17
236 -11 m 0,33,34
 152 -11 152 -11 118.5 32.5 c 128,-1,35
 85 76 85 76 85 167 c 2,36,-1
 85 310 l 2,37,38
 85 405 85 405 55 473 c 1,39,-1
 55 480 l 1,40,-1
 194 480 l 1,41,-1
 194 473 l 1,42,43
 179 420 179 420 179 340 c 2,44,-1
 179 183 l 2,45,46
 179 123 179 123 194 97 c 128,-1,47
 209 71 209 71 267 71 c 128,-1,48
 325 71 325 71 403 126 c 1,49,-1
 403 310 l 2,50,51
 403 407 403 407 374 473 c 1,52,-1
 374 480 l 1,53,-1
 512 480 l 1,54,-1
 512 473 l 1,55,56
 497 420 497 420 497 340 c 2,57,-1
 497 171 l 2,58,59
 497 127 497 127 512 84.5 c 128,-1,60
 527 42 527 42 547 28 c 1,61,-1
 548 16 l 1,62,-1
 431 -12 l 1,63,64
 414 34 414 34 407 76 c 1,65,66
 358 34 358 34 318 11.5 c 128,-1,32
 278 -11 278 -11 236 -11 c 0,33,34
EndSplineSet
EndChar

StartChar: yacute
Encoding: 253 253 190
Width: 489
GlyphClass: 2
Flags: W
LayerCount: 2
Fore
SplineSet
387 674 m 1,0,1
 295 582 295 582 200 530 c 1,2,-1
 177 556 l 1,3,4
 265 636 265 636 319 732 c 1,5,6
 362 715 362 715 387 674 c 1,0,1
263 92 m 1,7,8
 359 385 359 385 359 440 c 0,9,10
 359 457 359 457 352 468 c 1,11,-1
 352 480 l 1,12,-1
 459 480 l 1,13,-1
 459 468 l 1,14,15
 444 455 444 455 296 10 c 1,16,17
 225 -198 225 -198 215 -238 c 1,18,-1
 215 -246 l 1,19,-1
 91 -255 l 1,20,-1
 90 -248 l 1,21,22
 163 -161 163 -161 218 -14 c 1,23,24
 212 3 212 3 45 398 c 0,25,26
 25 445 25 445 2 464 c 1,27,-1
 2 476 l 1,28,-1
 136 487 l 1,29,-1
 136 475 l 2,30,31
 136 449 136 449 160 374.5 c 128,-1,32
 184 300 184 300 263 92 c 1,7,8
EndSplineSet
EndChar

StartChar: thorn
Encoding: 254 254 191
Width: 588
GlyphClass: 2
Flags: W
LayerCount: 2
Fore
SplineSet
190 648 m 2,0,-1
 190 417 l 1,1,2
 273 491 273 491 355.5 491 c 128,-1,3
 438 491 438 491 490.5 426 c 128,-1,4
 543 361 543 361 543 268 c 0,5,6
 543 151 543 151 472 70 c 128,-1,7
 401 -11 401 -11 304 -11 c 0,8,9
 267 -11 267 -11 197 9 c 1,10,-1
 197 -60 l 1,11,12
 199 -180 199 -180 238 -228 c 1,13,-1
 238 -233 l 1,14,-1
 95 -248 l 1,15,16
 98 -208 98 -208 98 -102 c 2,17,-1
 96 581 l 2,18,19
 96 661 96 661 50 705 c 1,20,-1
 50 717 l 1,21,-1
 187 741 l 1,22,-1
 193 731 l 1,23,24
 190 702 190 702 190 648 c 2,0,-1
328 54 m 0,25,26
 373 54 373 54 394 66 c 1,27,28
 410 85 410 85 423 141 c 128,-1,29
 436 197 436 197 436 250 c 0,30,31
 436 417 436 417 335 417 c 0,32,33
 274 417 274 417 196 363 c 1,34,-1
 196 95 l 1,35,36
 260 54 260 54 328 54 c 0,25,26
EndSplineSet
EndChar

StartChar: ydieresis
Encoding: 255 255 192
Width: 489
GlyphClass: 2
Flags: W
LayerCount: 2
Fore
SplineSet
402 687 m 1,0,1
 409 679 409 679 412.5 657.5 c 128,-1,2
 416 636 416 636 416 625 c 128,-1,3
 416 614 416 614 415 607 c 1,4,-1
 407 600 l 1,5,6
 370 588 370 588 333 585 c 1,7,-1
 321 585 l 1,8,-1
 311 588 l 1,9,10
 296 618 296 618 296 668 c 1,11,-1
 306 676 l 1,12,13
 342 689 342 689 377 691 c 1,14,-1
 394 691 l 1,15,-1
 402 687 l 1,0,1
213 678 m 1,16,17
 220 670 220 670 223.5 648.5 c 128,-1,18
 227 627 227 627 227 616 c 128,-1,19
 227 605 227 605 226 598 c 1,20,-1
 218 591 l 1,21,22
 182 579 182 579 145 576 c 1,23,-1
 132 576 l 1,24,-1
 122 579 l 1,25,26
 107 609 107 609 107 658 c 1,27,-1
 117 667 l 1,28,29
 155 680 155 680 189 682 c 1,30,-1
 205 682 l 1,31,-1
 213 678 l 1,16,17
263 92 m 1,32,33
 359 385 359 385 359 440 c 0,34,35
 359 457 359 457 352 468 c 1,36,-1
 352 480 l 1,37,-1
 459 480 l 1,38,-1
 459 468 l 1,39,40
 444 455 444 455 296 10 c 1,41,42
 225 -198 225 -198 215 -238 c 1,43,-1
 215 -246 l 1,44,-1
 91 -255 l 1,45,-1
 90 -248 l 1,46,47
 163 -161 163 -161 218 -14 c 1,48,49
 212 3 212 3 45 398 c 0,50,51
 25 445 25 445 2 464 c 1,52,-1
 2 476 l 1,53,-1
 136 487 l 1,54,-1
 136 475 l 2,55,56
 136 449 136 449 160 374.5 c 128,-1,57
 184 300 184 300 263 92 c 1,32,33
EndSplineSet
EndChar

StartChar: hbar
Encoding: 295 295 193
Width: 599
GlyphClass: 2
Flags: W
LayerCount: 2
Fore
SplineSet
-8 618 m 1,0,1
 21 616 21 616 108 616 c 0,2,3
 224 616 224 616 340 620 c 1,4,-1
 314 559 l 1,5,-1
 307 559 l 1,6,7
 231 565 231 565 109 565 c 1,8,-1
 -39 559 l 1,9,-1
 -15 618 l 1,10,-1
 -8 618 l 1,0,1
187 545 m 2,11,-1
 187 408 l 1,12,13
 225 437 225 437 245.5 451 c 128,-1,14
 266 465 266 465 298.5 478.5 c 128,-1,15
 331 492 331 492 360 492 c 0,16,17
 434 492 434 492 474 446 c 128,-1,18
 514 400 514 400 514 314 c 2,19,-1
 514 170 l 2,20,21
 514 75 514 75 544 7 c 1,22,-1
 544 0 l 1,23,-1
 403 0 l 1,24,-1
 403 7 l 1,25,26
 420 57 420 57 420 140 c 2,27,-1
 420 293 l 2,28,29
 420 351 420 351 402.5 380.5 c 128,-1,30
 385 410 385 410 329.5 410 c 128,-1,31
 274 410 274 410 190 359 c 1,32,-1
 190 170 l 2,33,34
 190 73 190 73 219 7 c 1,35,-1
 219 0 l 1,36,-1
 79 0 l 1,37,-1
 79 7 l 1,38,39
 96 57 96 57 96 140 c 2,40,-1
 96 587 l 2,41,42
 96 667 96 667 50 711 c 1,43,-1
 50 723 l 1,44,-1
 184 747 l 1,45,-1
 190 737 l 1,46,47
 187 708 187 708 187 545 c 2,11,-1
EndSplineSet
EndChar

StartChar: Itilde
Encoding: 296 296 194
Width: 349
GlyphClass: 2
Flags: W
LayerCount: 2
Fore
SplineSet
226 480 m 2,0,-1
 226 210 l 2,1,2
 226 173 226 173 230.5 101.5 c 128,-1,3
 235 30 235 30 241 7 c 1,4,-1
 241 0 l 1,5,-1
 108 0 l 1,6,-1
 108 7 l 1,7,8
 123 65 123 65 123 220 c 2,9,-1
 123 490 l 2,10,11
 123 635 123 635 108 693 c 1,12,-1
 108 700 l 1,13,-1
 241 700 l 1,14,-1
 241 693 l 1,15,16
 235 670 235 670 230.5 594 c 128,-1,17
 226 518 226 518 226 480 c 2,0,-1
246 786 m 0,18,19
 222 786 222 786 171.5 810 c 128,-1,20
 121 834 121 834 96 834 c 0,21,22
 63 834 63 834 20 803 c 0,23,24
 11 797 11 797 9 796 c 1,25,-1
 -11 814 l 1,26,27
 13 844 13 844 49.5 876.5 c 128,-1,28
 86 909 86 909 108.5 909 c 128,-1,29
 131 909 131 909 179.5 887.5 c 128,-1,30
 228 866 228 866 253.5 866 c 128,-1,31
 279 866 279 866 341 903 c 1,32,-1
 360 886 l 1,33,34
 283 786 283 786 246 786 c 0,18,19
EndSplineSet
EndChar

StartChar: itilde
Encoding: 297 297 195
Width: 265
GlyphClass: 2
Flags: W
LayerCount: 2
Fore
SplineSet
97 139 m 2,0,-1
 97 333 l 2,1,2
 97 422 97 422 47 457 c 1,3,-1
 47 469 l 1,4,-1
 188 493 l 1,5,-1
 194 483 l 1,6,7
 191 454 191 454 191 400 c 2,8,-1
 191 164 l 2,9,10
 191 64 191 64 216 7 c 1,11,-1
 216 0 l 1,12,-1
 81 0 l 1,13,-1
 81 7 l 1,14,15
 97 54 97 54 97 139 c 2,0,-1
204 569 m 0,16,17
 180 569 180 569 129.5 593 c 128,-1,18
 79 617 79 617 54 617 c 0,19,20
 21 617 21 617 -22 586 c 0,21,22
 -31 580 -31 580 -33 579 c 1,23,-1
 -53 597 l 1,24,25
 -29 627 -29 627 7.5 659.5 c 128,-1,26
 44 692 44 692 66.5 692 c 128,-1,27
 89 692 89 692 137.5 670.5 c 128,-1,28
 186 649 186 649 211.5 649 c 128,-1,29
 237 649 237 649 299 686 c 1,30,-1
 318 669 l 1,31,32
 241 569 241 569 204 569 c 0,16,17
EndSplineSet
EndChar

StartChar: dotlessi
Encoding: 305 305 196
Width: 265
GlyphClass: 2
Flags: W
LayerCount: 2
Fore
SplineSet
97 139 m 2,0,-1
 97 333 l 2,1,2
 97 422 97 422 47 457 c 1,3,-1
 47 469 l 1,4,-1
 188 493 l 1,5,-1
 194 483 l 1,6,7
 191 454 191 454 191 400 c 2,8,-1
 191 164 l 2,9,10
 191 64 191 64 216 7 c 1,11,-1
 216 0 l 1,12,-1
 81 0 l 1,13,-1
 81 7 l 1,14,15
 97 54 97 54 97 139 c 2,0,-1
EndSplineSet
EndChar

StartChar: IJ
Encoding: 306 306 197
Width: 705
GlyphClass: 2
Flags: W
LayerCount: 2
Fore
SplineSet
226 480 m 2,0,-1
 226 210 l 2,1,2
 226 173 226 173 230.5 101.5 c 128,-1,3
 235 30 235 30 241 7 c 1,4,-1
 241 0 l 1,5,-1
 108 0 l 1,6,-1
 108 7 l 1,7,8
 123 65 123 65 123 220 c 2,9,-1
 123 490 l 2,10,11
 123 635 123 635 108 693 c 1,12,-1
 108 700 l 1,13,-1
 241 700 l 1,14,-1
 241 693 l 1,15,16
 235 670 235 670 230.5 594 c 128,-1,17
 226 518 226 518 226 480 c 2,0,-1
479 199 m 2,18,-1
 479 490 l 2,19,20
 479 643 479 643 462 693 c 1,21,-1
 462 700 l 1,22,-1
 597 700 l 1,23,-1
 597 693 l 1,24,25
 582 645 582 645 582 490 c 2,26,-1
 582 156 l 2,27,28
 582 73 582 73 564 -14 c 0,29,30
 555 -54 555 -54 513 -121 c 0,31,32
 503 -137 503 -137 477 -161 c 0,33,34
 447 -189 447 -189 372 -247 c 1,35,-1
 336 -213 l 1,36,37
 350 -204 350 -204 382 -174 c 0,38,39
 442 -120 442 -120 460.5 -45 c 128,-1,40
 479 30 479 30 479 199 c 2,18,-1
EndSplineSet
EndChar

StartChar: ij
Encoding: 307 307 198
Width: 516
GlyphClass: 2
Flags: W
LayerCount: 2
Fore
SplineSet
97 139 m 2,0,-1
 97 333 l 2,1,2
 97 422 97 422 47 457 c 1,3,-1
 47 469 l 1,4,-1
 188 493 l 1,5,-1
 194 483 l 1,6,7
 191 454 191 454 191 400 c 2,8,-1
 191 164 l 2,9,10
 191 64 191 64 216 7 c 1,11,-1
 216 0 l 1,12,-1
 81 0 l 1,13,-1
 81 7 l 1,14,15
 97 54 97 54 97 139 c 2,0,-1
181 708 m 1,16,17
 195 696 195 696 195 650 c 0,18,19
 195 639 195 639 194 630 c 1,20,-1
 186 623 l 1,21,22
 146 612 146 612 91 607 c 1,23,-1
 82 611 l 1,24,25
 67 637 67 637 67 680 c 0,26,27
 67 685 67 685 67 690 c 1,28,-1
 75 697 l 1,29,30
 123 713 123 713 167 713 c 0,31,32
 172 713 172 713 181 708 c 1,16,17
441 707 m 1,33,34
 455 694 455 694 455 649 c 0,35,36
 455 638 455 638 454 629 c 1,37,-1
 446 622 l 1,38,39
 406 611 406 611 351 606 c 1,40,-1
 342 610 l 1,41,42
 327 636 327 636 327 679 c 0,43,44
 327 684 327 684 327 689 c 1,45,-1
 335 696 l 1,46,47
 383 712 383 712 427 712 c 0,48,49
 432 712 432 712 441 707 c 1,33,34
451 398 m 2,50,-1
 451 110 l 2,51,52
 451 -42 451 -42 408 -112 c 0,53,54
 385 -150 385 -150 367 -169.5 c 128,-1,55
 349 -189 349 -189 328 -207 c 0,56,57
 327 -208 327 -208 280 -248 c 1,58,-1
 244 -215 l 1,59,60
 318 -169 318 -169 341 -70 c 0,61,62
 357 -1 357 -1 357 149 c 2,63,-1
 357 330 l 2,64,65
 357 421 357 421 301 457 c 1,66,-1
 301 469 l 1,67,-1
 448 493 l 1,68,-1
 454 483 l 1,69,70
 451 453 451 453 451 398 c 2,50,-1
EndSplineSet
EndChar

StartChar: Jcircumflex
Encoding: 308 308 199
Width: 356
GlyphClass: 2
Flags: W
LayerCount: 2
Fore
SplineSet
130 199 m 2,0,-1
 130 490 l 2,1,2
 130 643 130 643 113 693 c 1,3,-1
 113 700 l 1,4,-1
 248 700 l 1,5,-1
 248 693 l 1,6,7
 233 645 233 645 233 490 c 2,8,-1
 233 156 l 2,9,10
 233 73 233 73 214 -14 c 0,11,12
 206 -54 206 -54 164 -121 c 0,13,14
 154 -137 154 -137 128 -161 c 0,15,16
 98 -189 98 -189 23 -247 c 1,17,-1
 -13 -213 l 1,18,19
 1 -204 1 -204 33 -174 c 0,20,21
 93 -120 93 -120 111.5 -45 c 128,-1,22
 130 30 130 30 130 199 c 2,0,-1
136 920 m 1,23,-1
 216 920 l 1,24,25
 242 867 242 867 290 822 c 0,26,27
 308 806 308 806 341 778 c 1,28,-1
 313 747 l 1,29,30
 242 788 242 788 173 862 c 1,31,32
 107 796 107 796 45 752 c 1,33,-1
 16 782 l 1,34,35
 103 858 103 858 136 920 c 1,23,-1
EndSplineSet
EndChar

StartChar: jcircumflex
Encoding: 309 309 200
Width: 251
GlyphClass: 2
Flags: W
LayerCount: 2
Fore
SplineSet
189 398 m 2,0,-1
 189 110 l 2,1,2
 189 -42 189 -42 146 -112 c 0,3,4
 123 -150 123 -150 105 -169.5 c 128,-1,5
 87 -189 87 -189 66 -207 c 0,6,7
 65 -208 65 -208 18 -248 c 1,8,-1
 -18 -215 l 1,9,10
 56 -169 56 -169 79 -70 c 0,11,12
 95 -1 95 -1 95 149 c 2,13,-1
 95 330 l 2,14,15
 95 421 95 421 39 457 c 1,16,-1
 39 469 l 1,17,-1
 186 493 l 1,18,-1
 192 483 l 1,19,20
 189 453 189 453 189 398 c 2,0,-1
83 703 m 1,21,-1
 163 703 l 1,22,23
 189 650 189 650 238 605 c 0,24,25
 255 589 255 589 288 561 c 1,26,-1
 260 530 l 1,27,28
 189 571 189 571 120 645 c 1,29,30
 54 579 54 579 -8 535 c 1,31,-1
 -37 565 l 1,32,33
 50 641 50 641 83 703 c 1,21,-1
EndSplineSet
EndChar

StartChar: kcommaaccent
Encoding: 311 311 201
Width: 534
GlyphClass: 2
Flags: W
LayerCount: 2
Fore
SplineSet
332 -83 m 0,0,1
 332 -154 332 -154 259 -236 c 1,2,-1
 222 -221 l 1,3,4
 244 -186 244 -186 252 -160.5 c 128,-1,5
 260 -135 260 -135 260 -104 c 128,-1,6
 260 -73 260 -73 243 -43 c 1,7,8
 245 -37 245 -37 248 -34 c 1,9,10
 269 -22 269 -22 307 -22 c 0,11,12
 312 -22 312 -22 315 -23 c 1,13,-1
 322 -30 l 1,14,15
 332 -56 332 -56 332 -83 c 0,0,1
206 0 m 1,16,-1
 79 0 l 1,17,-1
 79 12 l 1,18,19
 96 62 96 62 96 170 c 2,20,-1
 96 587 l 2,21,22
 96 667 96 667 50 711 c 1,23,-1
 50 723 l 1,24,-1
 187 747 l 1,25,-1
 193 737 l 1,26,27
 190 708 190 708 190 654 c 2,28,-1
 190 302 l 1,29,-1
 360 444 l 2,30,31
 388 467 388 467 388 480 c 1,32,-1
 503 480 l 1,33,-1
 503 468 l 1,34,35
 484 466 484 466 409 406 c 1,36,-1
 267 284 l 1,37,-1
 392 150 l 1,38,39
 461 74 461 74 491 48 c 128,-1,40
 521 22 521 22 549 12 c 1,41,-1
 549 0 l 1,42,-1
 400 0 l 1,43,44
 400 2 400 2 190 252 c 1,45,-1
 190 170 l 2,46,47
 190 59 190 59 206 12 c 1,48,-1
 206 0 l 1,16,-1
EndSplineSet
EndChar

StartChar: kgreenlandic
Encoding: 312 312 202
Width: 545
GlyphClass: 2
Flags: W
LayerCount: 2
Fore
SplineSet
202 359 m 2,0,-1
 202 303 l 1,1,-1
 371 444 l 2,2,3
 399 467 399 467 399 480 c 1,4,-1
 514 480 l 1,5,-1
 514 468 l 1,6,7
 495 466 495 466 420 406 c 1,8,-1
 278 284 l 1,9,-1
 403 150 l 1,10,11
 472 74 472 74 502 48 c 128,-1,12
 532 22 532 22 560 12 c 1,13,-1
 560 0 l 1,14,-1
 411 0 l 1,15,16
 411 2 411 2 202 251 c 1,17,-1
 202 170 l 2,18,19
 202 73 202 73 231 7 c 1,20,-1
 231 0 l 1,21,-1
 91 0 l 1,22,-1
 91 7 l 1,23,24
 108 57 108 57 108 140 c 2,25,-1
 108 310 l 2,26,27
 108 353 108 353 90.5 394.5 c 128,-1,28
 73 436 73 436 50 450 c 1,29,-1
 49 462 l 1,30,-1
 180 493 l 1,31,-1
 186 483 l 1,32,33
 202 405 202 405 202 359 c 2,0,-1
EndSplineSet
EndChar

StartChar: Ldotaccent
Encoding: 319 319 203
Width: 833
GlyphClass: 2
Flags: W
LayerCount: 2
Fore
SplineSet
108 0 m 1,0,-1
 108 7 l 1,1,2
 123 65 123 65 123 210 c 2,3,-1
 123 490 l 2,4,5
 123 635 123 635 108 693 c 1,6,-1
 108 700 l 1,7,-1
 241 700 l 1,8,-1
 241 693 l 1,9,10
 235 669 235 669 230.5 596.5 c 128,-1,11
 226 524 226 524 226 487 c 2,12,-1
 226 206 l 2,13,14
 226 140 226 140 232 63 c 1,15,16
 254 60 254 60 312 60 c 0,17,18
 465 60 465 60 536 92 c 1,19,-1
 543 92 l 1,20,-1
 525 0 l 1,21,-1
 108 0 l 1,0,-1
430 322 m 1,22,23
 444 308 444 308 444 262 c 0,24,25
 444 250 444 250 443 241 c 1,26,-1
 434 234 l 1,27,28
 394 222 394 222 336 217 c 1,29,-1
 326 221 l 1,30,31
 311 249 311 249 311 292 c 0,32,33
 311 297 311 297 311 302 c 1,34,-1
 320 310 l 1,35,36
 366 327 366 327 411 327 c 0,37,38
 415 327 415 327 420 327 c 1,39,-1
 430 322 l 1,22,23
EndSplineSet
EndChar

StartChar: ldot
Encoding: 320 320 204
Width: 558
GlyphClass: 2
Flags: W
LayerCount: 2
Fore
SplineSet
380 391 m 1,0,1
 394 377 394 377 394 331 c 0,2,3
 394 319 394 319 393 310 c 1,4,-1
 384 303 l 1,5,6
 344 291 344 291 286 286 c 1,7,-1
 276 290 l 1,8,9
 261 318 261 318 261 361 c 0,10,11
 261 366 261 366 261 371 c 1,12,-1
 270 379 l 1,13,14
 316 396 316 396 361 396 c 0,15,16
 365 396 365 396 370 396 c 1,17,-1
 380 391 l 1,0,1
208 0 m 1,18,-1
 79 0 l 1,19,-1
 79 12 l 1,20,21
 96 62 96 62 96 170 c 2,22,-1
 96 587 l 2,23,24
 96 667 96 667 50 711 c 1,25,-1
 50 723 l 1,26,-1
 187 747 l 1,27,-1
 193 737 l 1,28,29
 190 708 190 708 190 545 c 2,30,-1
 191 170 l 2,31,32
 191 62 191 62 208 12 c 1,33,-1
 208 0 l 1,18,-1
EndSplineSet
EndChar

StartChar: Lslash
Encoding: 321 321 205
Width: 514
GlyphClass: 2
Flags: W
LayerCount: 2
Fore
SplineSet
99 0 m 1,0,-1
 99 7 l 1,1,2
 114 65 114 65 114 210 c 2,3,-1
 114 326 l 1,4,5
 27 293 27 293 0 280 c 1,6,-1
 5 344 l 1,7,8
 73 366 73 366 114 381 c 1,9,-1
 114 490 l 2,10,11
 114 635 114 635 99 693 c 1,12,-1
 99 700 l 1,13,-1
 232 700 l 1,14,-1
 232 693 l 1,15,16
 226 669 226 669 221.5 596.5 c 128,-1,17
 217 524 217 524 217 487 c 2,18,-1
 217 420 l 1,19,20
 289 448 289 448 365 481 c 1,21,-1
 361 419 l 1,22,23
 314 404 314 404 217 366 c 1,24,-1
 217 206 l 2,25,26
 217 140 217 140 223 63 c 1,27,28
 245 60 245 60 303 60 c 0,29,30
 456 60 456 60 527 92 c 1,31,-1
 534 92 l 1,32,-1
 516 0 l 1,33,-1
 99 0 l 1,0,-1
EndSplineSet
EndChar

StartChar: lslash
Encoding: 322 322 206
Width: 320
GlyphClass: 2
Flags: W
LayerCount: 2
Fore
SplineSet
2 304 m 1,0,-1
 7 361 l 1,1,2
 92 389 92 389 318 478 c 1,3,-1
 315 423 l 1,4,5
 249 403 249 403 2 304 c 1,0,-1
223 0 m 1,6,-1
 94 0 l 1,7,-1
 94 12 l 1,8,9
 111 62 111 62 111 170 c 2,10,-1
 111 587 l 2,11,12
 111 667 111 667 65 711 c 1,13,-1
 65 723 l 1,14,-1
 202 747 l 1,15,-1
 208 737 l 1,16,17
 205 708 205 708 205 545 c 2,18,-1
 206 170 l 2,19,20
 206 62 206 62 223 12 c 1,21,-1
 223 0 l 1,6,-1
EndSplineSet
EndChar

StartChar: Nacute
Encoding: 323 323 207
Width: 710
GlyphClass: 2
Flags: W
LayerCount: 2
Fore
SplineSet
173 0 m 1,0,-1
 72 0 l 1,1,-1
 72 7 l 1,2,3
 87 73 87 73 87 239 c 2,4,-1
 87 463 l 2,5,6
 87 617 87 617 74 693 c 1,7,-1
 74 700 l 1,8,-1
 195 709 l 1,9,-1
 545 165 l 1,10,-1
 545 490 l 2,11,12
 545 543 545 543 539 605.5 c 128,-1,13
 533 668 533 668 524 693 c 1,14,-1
 524 700 l 1,15,-1
 629 700 l 1,16,-1
 629 693 l 1,17,18
 614 627 614 627 614 461 c 2,19,-1
 614 210 l 2,20,21
 614 150 614 150 618.5 81.5 c 128,-1,22
 623 13 623 13 627 0 c 1,23,-1
 533 -10 l 1,24,-1
 155 575 l 1,25,-1
 155 210 l 2,26,27
 155 77 155 77 173 7 c 1,28,-1
 173 0 l 1,0,-1
460 891 m 1,29,30
 368 799 368 799 273 747 c 1,31,-1
 250 773 l 1,32,33
 338 853 338 853 392 949 c 1,34,35
 435 932 435 932 460 891 c 1,29,30
EndSplineSet
EndChar

StartChar: nacute
Encoding: 324 324 208
Width: 605
GlyphClass: 2
Flags: W
LayerCount: 2
Fore
SplineSet
369 492 m 0,0,1
 441 492 441 492 480.5 446 c 128,-1,2
 520 400 520 400 520 314 c 2,3,-1
 520 170 l 2,4,5
 520 75 520 75 550 7 c 1,6,-1
 550 0 l 1,7,-1
 409 0 l 1,8,-1
 409 7 l 1,9,10
 426 57 426 57 426 140 c 2,11,-1
 426 293 l 2,12,13
 426 351 426 351 408.5 380.5 c 128,-1,14
 391 410 391 410 338 410 c 128,-1,15
 285 410 285 410 202 359 c 1,16,-1
 202 170 l 2,17,18
 202 73 202 73 231 7 c 1,19,-1
 231 0 l 1,20,-1
 91 0 l 1,21,-1
 91 7 l 1,22,23
 108 57 108 57 108 140 c 2,24,-1
 108 310 l 2,25,26
 108 353 108 353 90.5 394.5 c 128,-1,27
 73 436 73 436 50 450 c 1,28,-1
 49 462 l 1,29,-1
 180 493 l 1,30,-1
 186 483 l 1,31,32
 194 446 194 446 198 408 c 1,33,34
 235 437 235 437 255.5 451 c 128,-1,35
 276 465 276 465 308 478.5 c 128,-1,36
 340 492 340 492 369 492 c 0,0,1
407 674 m 1,37,38
 315 582 315 582 220 530 c 1,39,-1
 197 556 l 1,40,41
 285 636 285 636 339 732 c 1,42,43
 382 715 382 715 407 674 c 1,37,38
EndSplineSet
EndChar

StartChar: OE
Encoding: 338 338 209
Width: 1055
GlyphClass: 2
Flags: W
LayerCount: 2
Fore
SplineSet
962 628 m 1,0,1
 903 643 903 643 816.5 643 c 128,-1,2
 730 643 730 643 707 641 c 1,3,4
 705 603 705 603 705 395 c 1,5,-1
 944 399 l 1,6,-1
 928 331 l 1,7,-1
 921 331 l 1,8,9
 853 339 853 339 806 339 c 128,-1,10
 759 339 759 339 705 336 c 1,11,12
 705 93 705 93 709 63 c 1,13,14
 732 60 732 60 791 60 c 0,15,16
 948 60 948 60 1020 92 c 1,17,-1
 1027 92 l 1,18,-1
 1009 0 l 1,19,-1
 584 0 l 1,20,-1
 584 7 l 1,21,22
 593 41 593 41 597 89 c 1,23,24
 498 -12 498 -12 358.5 -12 c 128,-1,25
 219 -12 219 -12 134 88 c 128,-1,26
 49 188 49 188 49 344.5 c 128,-1,27
 49 501 49 501 145.5 607.5 c 128,-1,28
 242 714 242 714 393 714 c 0,29,30
 513 714 513 714 597 628 c 1,31,32
 592 676 592 676 588 693 c 1,33,-1
 588 700 l 1,34,-1
 994 703 l 1,35,-1
 969 628 l 1,36,-1
 962 628 l 1,0,1
591 333 m 0,37,38
 591 641 591 641 359 641 c 0,39,40
 325 641 325 641 285.5 632 c 128,-1,41
 246 623 246 623 227 610 c 1,42,43
 198 574 198 574 180 506.5 c 128,-1,44
 162 439 162 439 162 371 c 0,45,46
 162 59 162 59 405 59 c 0,47,48
 474 59 474 59 524 92 c 1,49,50
 557 128 557 128 574 195.5 c 128,-1,51
 591 263 591 263 591 333 c 0,37,38
EndSplineSet
EndChar

StartChar: oe
Encoding: 339 339 210
Width: 870
GlyphClass: 2
Flags: W
LayerCount: 2
Fore
SplineSet
643 -11 m 0,0,1
 516 -11 516 -11 458 80 c 1,2,3
 386 -12 386 -12 276 -12 c 128,-1,4
 166 -12 166 -12 105 54.5 c 128,-1,5
 44 121 44 121 44 228.5 c 128,-1,6
 44 336 44 336 115 414 c 128,-1,7
 186 492 186 492 289 492 c 0,8,9
 419 492 419 492 478 402 c 1,10,11
 548 492 548 492 650 492 c 0,12,13
 829 492 829 492 829 271 c 1,14,-1
 792 235 l 1,15,-1
 526 235 l 1,16,17
 526 151 526 151 562 109 c 128,-1,18
 598 67 598 67 659 67 c 0,19,20
 683 67 683 67 727 81.5 c 128,-1,21
 771 96 771 96 805 116 c 1,22,-1
 830 78 l 1,23,24
 811 59 811 59 747.5 24 c 128,-1,25
 684 -11 684 -11 643 -11 c 0,0,1
412 228 m 0,26,27
 412 327 412 327 381 381 c 128,-1,28
 350 435 350 435 271 435 c 0,29,30
 220 435 220 435 191 413 c 1,31,32
 173 390 173 390 161.5 343 c 128,-1,33
 150 296 150 296 150 253 c 0,34,35
 150 44 150 44 298 44 c 0,36,37
 344 44 344 44 373 65 c 1,38,39
 392 88 392 88 402 136 c 128,-1,40
 412 184 412 184 412 228 c 0,26,27
632 442 m 0,41,42
 590 442 590 442 567 423 c 1,43,44
 548 397 548 397 537 357 c 128,-1,45
 526 317 526 317 526 287 c 1,46,-1
 731 295 l 1,47,48
 731 442 731 442 632 442 c 0,41,42
EndSplineSet
EndChar

StartChar: Racute
Encoding: 340 340 211
Width: 641
GlyphClass: 2
Flags: W
LayerCount: 2
Fore
SplineSet
174 698 m 1,0,-1
 323 700 l 1,1,2
 563 700 563 700 563 527 c 0,3,4
 563 443 563 443 507.5 386.5 c 128,-1,5
 452 330 452 330 360 319 c 1,6,-1
 475 174 l 2,7,8
 547 83 547 83 583 50 c 128,-1,9
 619 17 619 17 645 10 c 1,10,-1
 645 0 l 1,11,-1
 481 0 l 1,12,13
 462 31 462 31 421 89 c 2,14,-1
 259 316 l 1,15,-1
 230 318 l 1,16,-1
 230 161 l 2,17,18
 230 56 230 56 245 7 c 1,19,-1
 245 0 l 1,20,-1
 108 0 l 1,21,-1
 108 7 l 1,22,23
 127 58 127 58 127 150 c 2,24,-1
 127 538 l 2,25,26
 127 642 127 642 112 693 c 1,27,-1
 112 700 l 1,28,29
 112 700 112 700 174 698 c 1,0,-1
310 649 m 0,30,31
 262 649 262 649 233 645 c 1,32,33
 230 623 230 623 230 367 c 1,34,35
 266 363 266 363 299 363 c 0,36,37
 383 363 383 363 417.5 401.5 c 128,-1,38
 452 440 452 440 452 515.5 c 128,-1,39
 452 591 452 591 420 620 c 128,-1,40
 388 649 388 649 310 649 c 0,30,31
425 891 m 1,41,42
 333 799 333 799 238 747 c 1,43,-1
 215 773 l 1,44,45
 303 853 303 853 357 949 c 1,46,47
 400 932 400 932 425 891 c 1,41,42
EndSplineSet
EndChar

StartChar: Rcommaaccent
Encoding: 342 342 212
Width: 641
GlyphClass: 2
Flags: W
LayerCount: 2
Fore
SplineSet
380 -83 m 0,0,1
 380 -154 380 -154 307 -236 c 1,2,-1
 270 -221 l 1,3,4
 292 -186 292 -186 300 -160.5 c 128,-1,5
 308 -135 308 -135 308 -104 c 128,-1,6
 308 -73 308 -73 291 -43 c 1,7,8
 293 -37 293 -37 296 -34 c 1,9,10
 317 -22 317 -22 355 -22 c 0,11,12
 360 -22 360 -22 363 -23 c 1,13,-1
 370 -30 l 1,14,15
 380 -56 380 -56 380 -83 c 0,0,1
174 698 m 1,16,-1
 323 700 l 1,17,18
 563 700 563 700 563 527 c 0,19,20
 563 443 563 443 507.5 386.5 c 128,-1,21
 452 330 452 330 360 319 c 1,22,-1
 475 174 l 2,23,24
 547 83 547 83 583 50 c 128,-1,25
 619 17 619 17 645 10 c 1,26,-1
 645 0 l 1,27,-1
 481 0 l 1,28,29
 462 31 462 31 421 89 c 2,30,-1
 259 316 l 1,31,-1
 230 318 l 1,32,-1
 230 161 l 2,33,34
 230 56 230 56 245 7 c 1,35,-1
 245 0 l 1,36,-1
 108 0 l 1,37,-1
 108 7 l 1,38,39
 127 58 127 58 127 150 c 2,40,-1
 127 538 l 2,41,42
 127 642 127 642 112 693 c 1,43,-1
 112 700 l 1,44,-1
 174 698 l 1,16,-1
310 649 m 0,45,46
 262 649 262 649 233 645 c 1,47,48
 230 623 230 623 230 367 c 1,49,50
 266 363 266 363 299 363 c 0,51,52
 383 363 383 363 417.5 401.5 c 128,-1,53
 452 440 452 440 452 515.5 c 128,-1,54
 452 591 452 591 420 620 c 128,-1,55
 388 649 388 649 310 649 c 0,45,46
EndSplineSet
EndChar

StartChar: rcommaaccent
Encoding: 343 343 213
Width: 377
GlyphClass: 2
Flags: W
LayerCount: 2
Fore
SplineSet
204 -83 m 0,0,1
 204 -154 204 -154 131 -236 c 1,2,-1
 94 -221 l 1,3,4
 116 -186 116 -186 124 -160.5 c 128,-1,5
 132 -135 132 -135 132 -104 c 128,-1,6
 132 -73 132 -73 115 -43 c 1,7,8
 117 -37 117 -37 120 -34 c 1,9,10
 141 -22 141 -22 179 -22 c 0,11,12
 184 -22 184 -22 187 -23 c 1,13,-1
 194 -30 l 1,14,15
 204 -56 204 -56 204 -83 c 0,0,1
338 492 m 0,16,17
 369 492 369 492 384 485 c 1,18,19
 384 479 384 479 384 473 c 0,20,21
 384 414 384 414 366 366 c 1,22,23
 321 395 321 395 264 395 c 0,24,25
 233 395 233 395 202 384 c 1,26,-1
 202 170 l 2,27,28
 202 73 202 73 231 7 c 1,29,-1
 231 0 l 1,30,-1
 91 0 l 1,31,-1
 91 7 l 1,32,33
 108 57 108 57 108 140 c 2,34,-1
 108 310 l 2,35,36
 108 353 108 353 90.5 394.5 c 128,-1,37
 73 436 73 436 50 450 c 1,38,-1
 49 462 l 1,39,-1
 167 493 l 1,40,41
 183 466 183 466 193 430 c 1,42,43
 253 492 253 492 338 492 c 0,16,17
EndSplineSet
EndChar

StartChar: Rcaron
Encoding: 344 344 214
Width: 641
GlyphClass: 2
Flags: W
LayerCount: 2
Fore
SplineSet
174 698 m 1,0,-1
 323 700 l 1,1,2
 563 700 563 700 563 527 c 0,3,4
 563 443 563 443 507.5 386.5 c 128,-1,5
 452 330 452 330 360 319 c 1,6,-1
 475 174 l 2,7,8
 547 83 547 83 583 50 c 128,-1,9
 619 17 619 17 645 10 c 1,10,-1
 645 0 l 1,11,-1
 481 0 l 1,12,13
 462 31 462 31 421 89 c 2,14,-1
 259 316 l 1,15,-1
 230 318 l 1,16,-1
 230 161 l 2,17,18
 230 56 230 56 245 7 c 1,19,-1
 245 0 l 1,20,-1
 108 0 l 1,21,-1
 108 7 l 1,22,23
 127 58 127 58 127 150 c 2,24,-1
 127 538 l 2,25,26
 127 642 127 642 112 693 c 1,27,-1
 112 700 l 1,28,29
 112 700 112 700 174 698 c 1,0,-1
310 649 m 0,30,31
 262 649 262 649 233 645 c 1,32,33
 230 623 230 623 230 367 c 1,34,35
 266 363 266 363 299 363 c 0,36,37
 383 363 383 363 417.5 401.5 c 128,-1,38
 452 440 452 440 452 515.5 c 128,-1,39
 452 591 452 591 420 620 c 128,-1,40
 388 649 388 649 310 649 c 0,30,31
373 747 m 1,41,-1
 273 737 l 1,42,43
 231 822 231 822 162 888 c 1,44,-1
 193 919 l 1,45,46
 226 893 226 893 262 857.5 c 128,-1,47
 298 822 298 822 318 793 c 1,48,49
 360 858 360 858 446 919 c 1,50,-1
 478 891 l 1,51,52
 411 832 411 832 373 747 c 1,41,-1
EndSplineSet
EndChar

StartChar: rcaron
Encoding: 345 345 215
Width: 377
GlyphClass: 2
Flags: W
LayerCount: 2
Fore
SplineSet
338 492 m 0,0,1
 369 492 369 492 384 485 c 1,2,3
 384 479 384 479 384 473 c 0,4,5
 384 414 384 414 366 366 c 1,6,7
 321 395 321 395 264 395 c 0,8,9
 233 395 233 395 202 384 c 1,10,-1
 202 170 l 2,11,12
 202 73 202 73 231 7 c 1,13,-1
 231 0 l 1,14,-1
 91 0 l 1,15,-1
 91 7 l 1,16,17
 108 57 108 57 108 140 c 2,18,-1
 108 310 l 2,19,20
 108 353 108 353 90.5 394.5 c 128,-1,21
 73 436 73 436 50 450 c 1,22,-1
 49 462 l 1,23,-1
 167 493 l 1,24,25
 183 466 183 466 193 430 c 1,26,27
 253 492 253 492 338 492 c 0,0,1
242 530 m 1,28,-1
 142 520 l 1,29,30
 100 605 100 605 31 671 c 1,31,-1
 62 702 l 1,32,33
 95 676 95 676 131 640.5 c 128,-1,34
 167 605 167 605 187 576 c 1,35,36
 229 641 229 641 315 702 c 1,37,-1
 347 674 l 1,38,39
 280 615 280 615 242 530 c 1,28,-1
EndSplineSet
EndChar

StartChar: dotlessj
Encoding: 567 567 216
Width: 251
GlyphClass: 2
Flags: W
LayerCount: 2
Fore
SplineSet
186 398 m 2,0,-1
 186 110 l 2,1,2
 186 -42 186 -42 143 -112 c 0,3,4
 120 -150 120 -150 102 -169.5 c 128,-1,5
 84 -189 84 -189 62 -207 c 0,6,7
 62 -208 62 -208 15 -248 c 1,8,-1
 -21 -215 l 1,9,10
 53 -169 53 -169 76 -70 c 0,11,12
 92 -1 92 -1 92 149 c 2,13,-1
 92 330 l 2,14,15
 92 421 92 421 36 457 c 1,16,-1
 36 469 l 1,17,-1
 183 493 l 1,18,-1
 189 483 l 1,19,20
 186 453 186 453 186 398 c 2,0,-1
EndSplineSet
EndChar

StartChar: circumflex
Encoding: 710 710 217
Width: 500
GlyphClass: 2
Flags: W
LayerCount: 2
Fore
SplineSet
207 703 m 1,0,-1
 287 703 l 1,1,2
 313 650 313 650 362 605 c 0,3,4
 379 589 379 589 412 561 c 1,5,-1
 384 530 l 1,6,7
 313 571 313 571 244 645 c 1,8,9
 178 579 178 579 116 535 c 1,10,-1
 87 565 l 1,11,12
 174 641 174 641 207 703 c 1,0,-1
EndSplineSet
EndChar

StartChar: caron
Encoding: 711 711 218
Width: 500
GlyphClass: 2
Flags: W
LayerCount: 2
Fore
SplineSet
303 530 m 1,0,-1
 203 520 l 1,1,2
 161 605 161 605 92 671 c 1,3,-1
 123 702 l 1,4,5
 156 676 156 676 192 640.5 c 128,-1,6
 228 605 228 605 248 576 c 1,7,8
 290 641 290 641 376 702 c 1,9,-1
 408 674 l 1,10,11
 341 615 341 615 303 530 c 1,0,-1
EndSplineSet
EndChar

StartChar: ring
Encoding: 730 730 219
Width: 500
GlyphClass: 2
Flags: W
LayerCount: 2
Fore
SplineSet
344 638 m 128,-1,1
 344 598 344 598 316 570 c 0,2,3
 286 540 286 540 245 540 c 128,-1,4
 204 540 204 540 178 566.5 c 128,-1,5
 152 593 152 593 152 633.5 c 128,-1,6
 152 674 152 674 181 703 c 128,-1,7
 210 732 210 732 250 732 c 0,8,9
 292 732 292 732 318 705 c 128,-1,0
 344 678 344 678 344 638 c 128,-1,1
252 584 m 0,10,11
 276 584 276 584 289 593 c 1,12,13
 302 606 302 606 302 633 c 0,14,15
 302 688 302 688 245 688 c 0,16,17
 222 688 222 688 208 679 c 1,18,19
 195 666 195 666 195 643 c 0,20,21
 195 584 195 584 252 584 c 0,10,11
EndSplineSet
EndChar

StartChar: tilde
Encoding: 732 732 220
Width: 500
GlyphClass: 2
Flags: W
LayerCount: 2
Fore
SplineSet
321 569 m 0,0,1
 297 569 297 569 246.5 593 c 128,-1,2
 196 617 196 617 171 617 c 0,3,4
 138 617 138 617 94 586 c 0,5,6
 86 580 86 580 84 579 c 1,7,-1
 64 597 l 1,8,9
 88 627 88 627 124.5 659.5 c 128,-1,10
 161 692 161 692 183.5 692 c 128,-1,11
 206 692 206 692 254.5 670.5 c 128,-1,12
 303 649 303 649 328.5 649 c 128,-1,13
 354 649 354 649 416 686 c 1,14,-1
 435 669 l 1,15,16
 358 569 358 569 321 569 c 0,0,1
EndSplineSet
EndChar

StartChar: dotaccentcmb
Encoding: 775 775 221
Width: 500
GlyphClass: 2
Flags: W
LayerCount: 2
Fore
SplineSet
302 684 m 1,0,1
 316 672 316 672 316 624 c 0,2,3
 316 613 316 613 315 604 c 1,4,-1
 306 596 l 1,5,6
 264 585 264 585 209 580 c 1,7,-1
 199 584 l 1,8,9
 184 612 184 612 184 655 c 0,10,11
 184 660 184 660 184 665 c 1,12,-1
 193 673 l 1,13,14
 239 689 239 689 282 689 c 0,15,16
 287 689 287 689 292 689 c 1,17,-1
 302 684 l 1,0,1
EndSplineSet
EndChar

StartChar: endash
Encoding: 8211 8211 222
Width: 567
GlyphClass: 2
Flags: W
LayerCount: 2
Fore
SplineSet
37 323 m 1,0,1
 114 313 114 313 230 313 c 1,2,-1
 428 315 l 2,3,4
 450 315 450 315 496.5 317 c 128,-1,5
 543 319 543 319 567 319 c 1,6,-1
 537 243 l 1,7,-1
 530 243 l 1,8,9
 457 252 457 252 244 252 c 1,10,-1
 0 246 l 1,11,-1
 30 323 l 1,12,-1
 37 323 l 1,0,1
EndSplineSet
EndChar

StartChar: emdash
Encoding: 8212 8212 223
Width: 942
GlyphClass: 2
Flags: W
LayerCount: 2
Fore
SplineSet
38 323 m 1,0,1
 116 314 116 314 368 314 c 128,-1,2
 620 314 620 314 722 314.5 c 128,-1,3
 824 315 824 315 870.5 317 c 128,-1,4
 917 319 917 319 941 319 c 1,5,-1
 911 243 l 1,6,-1
 904 243 l 1,7,8
 831 252 831 252 245 252 c 1,9,-1
 1 246 l 1,10,-1
 31 323 l 1,11,-1
 38 323 l 1,0,1
EndSplineSet
EndChar

StartChar: quoteleft
Encoding: 8216 8216 224
Width: 278
GlyphClass: 2
Flags: W
LayerCount: 2
Fore
SplineSet
81 538 m 0,0,1
 81 559 81 559 85.5 578 c 128,-1,2
 90 597 90 597 97.5 615.5 c 128,-1,3
 105 634 105 634 118 655 c 0,4,5
 135 684 135 684 165 725 c 1,6,-1
 203 714 l 1,7,8
 185 682 185 682 176 664 c 0,9,10
 157 621 157 621 157 578 c 0,11,12
 157 566 157 566 159 554 c 1,13,14
 170 525 170 525 210 489 c 1,15,-1
 209 477 l 1,16,17
 187 458 187 458 177 451.5 c 128,-1,18
 167 445 167 445 160 440 c 0,19,20
 147 429 147 429 141 428 c 1,21,-1
 128 436 l 1,22,23
 81 487 81 487 81 538 c 0,0,1
EndSplineSet
EndChar

StartChar: quoteright
Encoding: 8217 8217 225
Width: 278
GlyphClass: 2
Flags: W
LayerCount: 2
Fore
SplineSet
197 615 m 0,0,1
 197 594 197 594 192.5 575 c 128,-1,2
 188 556 188 556 180.5 537.5 c 128,-1,3
 173 519 173 519 160 498 c 0,4,5
 143 469 143 469 113 428 c 1,6,-1
 75 439 l 1,7,8
 93 471 93 471 102 490 c 0,9,10
 121 532 121 532 121 575 c 0,11,12
 121 587 121 587 119 599 c 1,13,14
 108 628 108 628 68 664 c 1,15,-1
 69 676 l 1,16,17
 91 695 91 695 101 701.5 c 128,-1,18
 111 708 111 708 118 713 c 0,19,20
 131 724 131 724 137 725 c 1,21,22
 149 718 149 718 150 717 c 0,23,24
 197 666 197 666 197 615 c 0,0,1
EndSplineSet
EndChar

StartChar: quotesinglbase
Encoding: 8218 8218 226
Width: 304
GlyphClass: 2
Flags: W
LayerCount: 2
Fore
SplineSet
213 101 m 0,0,1
 227 69 227 69 227 19 c 0,2,3
 227 -75 227 -75 117 -189 c 1,4,-1
 65 -165 l 1,5,6
 99 -115 99 -115 113 -77 c 128,-1,7
 127 -39 127 -39 127 6.5 c 128,-1,8
 127 52 127 52 97 85 c 1,9,10
 97 92 97 92 100 96 c 1,11,12
 144 113 144 113 191 113 c 0,13,14
 198 113 198 113 203 112 c 1,15,16
 212 102 212 102 213 101 c 0,0,1
EndSplineSet
EndChar

StartChar: quotedblleft
Encoding: 8220 8220 227
Width: 477
GlyphClass: 2
Flags: W
LayerCount: 2
Fore
SplineSet
305 423 m 0,0,1
 257 474 257 474 257 529 c 0,2,3
 257 598 257 598 306 682 c 0,4,5
 318 701 318 701 334 726 c 1,6,-1
 370 718 l 1,7,8
 353 685 353 685 344.5 648 c 128,-1,9
 336 611 336 611 336 592 c 128,-1,10
 336 573 336 573 341 541 c 1,11,12
 349 519 349 519 397 476 c 1,13,-1
 396 464 l 1,14,15
 353 427 353 427 318 415 c 1,16,17
 306 423 306 423 305 423 c 0,0,1
111 422 m 0,18,19
 63 473 63 473 63 529 c 0,20,21
 63 597 63 597 112 680 c 0,22,23
 124 700 124 700 140 725 c 1,24,-1
 176 717 l 1,25,26
 159 684 159 684 150.5 647 c 128,-1,27
 142 610 142 610 142 591 c 128,-1,28
 142 572 142 572 147 540 c 1,29,30
 155 518 155 518 203 475 c 1,31,-1
 202 463 l 1,32,33
 159 426 159 426 124 414 c 1,34,35
 112 421 112 421 111 422 c 0,18,19
EndSplineSet
EndChar

StartChar: quotedblright
Encoding: 8221 8221 228
Width: 477
GlyphClass: 2
Flags: W
LayerCount: 2
Fore
SplineSet
157 717 m 0,0,1
 205 666 205 666 205 611 c 0,2,3
 205 542 205 542 156 458 c 0,4,5
 144 439 144 439 128 414 c 1,6,-1
 92 422 l 1,7,8
 109 455 109 455 117.5 492 c 128,-1,9
 126 529 126 529 126 548 c 128,-1,10
 126 567 126 567 121 599 c 1,11,12
 113 621 113 621 65 664 c 1,13,-1
 66 676 l 1,14,15
 109 713 109 713 144 725 c 1,16,17
 157 718 157 718 157 717 c 0,0,1
351 718 m 1,18,19
 399 667 399 667 399 611 c 0,20,21
 399 543 399 543 350 460 c 0,22,23
 338 440 338 440 322 415 c 1,24,-1
 286 423 l 1,25,26
 303 456 303 456 311.5 493 c 128,-1,27
 320 530 320 530 320 549 c 128,-1,28
 320 568 320 568 315 600 c 1,29,30
 307 622 307 622 259 665 c 1,31,-1
 260 677 l 1,32,33
 303 714 303 714 338 726 c 1,34,-1
 351 718 l 1,18,19
EndSplineSet
EndChar

